<svg xmlns="http://www.w3.org/2000/svg" xmlns:xlink="http://www.w3.org/1999/xlink" width="445" height="330" viewBox="0 0 445 330">
  <defs>
    <filter id="Rectángulo_38526" x="0" y="0" width="445" height="330" filterUnits="userSpaceOnUse">
      <feOffset dx="8" dy="8" input="SourceAlpha"/>
      <feGaussianBlur stdDeviation="7.5" result="blur"/>
      <feFlood flood-opacity="0.051"/>
      <feComposite operator="in" in2="blur"/>
      <feComposite in="SourceGraphic"/>
    </filter>
    <clipPath id="clip-path">
      <rect id="Rectángulo_38632" data-name="Rectángulo 38632" width="383.428" height="241.814" fill="none"/>
    </clipPath>
  </defs>
  <g id="Grupo_157510" data-name="Grupo 157510" transform="translate(-273.107 -390.5)">
    <g transform="matrix(1, 0, 0, 1, 273.11, 390.5)" filter="url(#Rectángulo_38526)">
      <g id="Rectángulo_38526-2" data-name="Rectángulo 38526" transform="translate(14.5 14.5)" fill="#f9d98d" stroke="#fff" stroke-width="8">
        <path d="M0,0H350a50,50,0,0,1,50,50V285a0,0,0,0,1,0,0H50A50,50,0,0,1,0,235V0A0,0,0,0,1,0,0Z" stroke="none"/>
        <path d="M4,4H350a46,46,0,0,1,46,46V281a0,0,0,0,1,0,0H50A46,46,0,0,1,4,235V4A0,0,0,0,1,4,4Z" fill="none"/>
      </g>
    </g>
    <path id="Trazado_149908" data-name="Trazado 149908" d="M32.977,85.132H6.046a6.046,6.046,0,1,1,0-12.091H32.977a6.046,6.046,0,0,1,0,12.091" transform="translate(476.596 387.414)" fill="#43a99b"/>
    <path id="Trazado_149910" data-name="Trazado 149910" d="M409.606,79.086h-47.6a5.847,5.847,0,1,1,0-11.693h47.6a5.847,5.847,0,0,1,0,11.693" transform="translate(27.178 454.761)" fill="#fff3cd"/>
    <g id="Grupo_145213" data-name="Grupo 145213" transform="translate(-5.393 -698)">
      <rect id="Rectángulo_38660" data-name="Rectángulo 38660" width="401.393" height="289.393" transform="translate(292 1101)" fill="none"/>
      <g id="Grupo_145216" data-name="Grupo 145216" transform="translate(302.482 1122.29)">
        <g id="Grupo_145195" data-name="Grupo 145195" transform="translate(0 0)" clip-path="url(#clip-path)">
          <path id="Trazado_150328" data-name="Trazado 150328" d="M83.206,35.381,62.848,46.146a42.253,42.253,0,0,0-19.792,22.63L16.723,139.37H157.935L109.564,23.448Z" transform="translate(70.84 99.33)" fill="#ff8578"/>
          <path id="Trazado_150329" data-name="Trazado 150329" d="M30.854,85.4A1.36,1.36,0,0,1,29.5,84.167L24.921,36.01a1.368,1.368,0,0,1,1.23-1.492,1.344,1.344,0,0,1,1.487,1.23l4.576,48.156a1.368,1.368,0,0,1-1.23,1.492l-.131.005" transform="translate(105.541 146.181)" fill="#e05d53"/>
          <path id="Trazado_150330" data-name="Trazado 150330" d="M67.413,57.5c-.079,0-.157,0-.236-.005A15.344,15.344,0,0,1,55.93,52.3C45.007,40.37,46.3,11.676,46.594,6.99c4.126-.246,26.447-1.073,34.422,8.865L89.76,32.16C86.666,43.81,76.157,57.5,67.413,57.5" transform="translate(196.523 29.073)" fill="#ffd8c5"/>
          <path id="Trazado_150331" data-name="Trazado 150331" d="M45.254,22.538,77.729,36.4a44.155,44.155,0,0,1,22.965,22.557l24.72,55.178c5.938,13.242-3.576,28.3-17.881,28.3H31.211l-.78-27,49.931-11.116" transform="translate(128.908 95.475)" fill="#ff8578"/>
          <path id="Trazado_150332" data-name="Trazado 150332" d="M373.649,48.393H3.353a1.367,1.367,0,0,1,0-2.733h370.3a1.367,1.367,0,1,1,0,2.733" transform="translate(8.413 193.422)" fill="#e05d53"/>
          <path id="Trazado_150333" data-name="Trazado 150333" d="M28.6,36.5c6.278,18.29,10.284,27.212,11.31,28.123,7.069,6.3,28-9.97,25.374-14.5-2.639-4.55-6.639-27.463-6.5-31.05.173-3.581-33.9,6.587-30.186,17.431" transform="translate(119.936 77.693)" fill="#ffd8c5"/>
          <path id="Trazado_150334" data-name="Trazado 150334" d="M39.115,22.773c5.791-2.178,11.676-3.592,15.007-3.8a153.335,153.335,0,0,1,.969,15.5c-.141,10.771-8.158,16.106-13.064,20.232a14.709,14.709,0,0,1-4.095,2.236c-1.555-3-4.33-9.5-9.4-22.259-1.9-4.775,3.807-9.027,10.582-11.912" transform="translate(119.308 80.39)" fill="#f0af9b"/>
          <path id="Trazado_150335" data-name="Trazado 150335" d="M75.813,38.174A3.439,3.439,0,0,0,72,34.928l-1.607.131C69.885,25.215,69.1,16.125,69.1,16.125s-4.32-8.556-21.159-1.791c-16.824,6.76-22.866,1.016-22.866,1.016l2.168,53.534s7.948,11.184,12.912,12.561c4.927,1.361,10.535-.4,15.85-5,5.3-4.623,13.923-10.708,14.661-22.06.079-1.152.12-2.461.141-3.885l1.833-.162a3.805,3.805,0,0,0,3.519-3.859Z" transform="translate(106.22 49.694)" fill="#ffd8c5"/>
          <path id="Trazado_150336" data-name="Trazado 150336" d="M23.958,17.922c.791-4.267,4.723-6.519,7.069-7.4,8.749-3.288,14.394,6.561,27.542,1.367,4.032-1.6,10.456,1.471,12.362,4.367A2.973,2.973,0,0,0,72.6,17.493c.853.236,1.812.555,2.88.969,5.105,1.979,4.409,15.844,3.011,26.091a3.463,3.463,0,0,0-1.047-.073l-2.152.189c-2.037.168-3.927,2.629-3.843,4.733l.262,6.482-.309.026-.052.005a3.094,3.094,0,0,1-3.246-2.6l-1.2-6.5a3.087,3.087,0,0,0-3.33-2.592,3.074,3.074,0,0,1-3.283-2.372L57.223,29.918a3.075,3.075,0,0,0-3.314-2.361c-8.074.974-20.379,1.8-22.95,1.382-3.681-.581-7.812-6.629-7-11.017" transform="translate(101.053 41.666)" fill="#12263f"/>
          <path id="Trazado_150337" data-name="Trazado 150337" d="M37.852,21.393,27.71,23.833s9.812,12.488,10.142-2.44" transform="translate(117.382 90.624)" fill="#fff"/>
          <path id="Trazado_150338" data-name="Trazado 150338" d="M33.616,36.561c-3.126,0-5.985-2.451-6.309-2.744a1.362,1.362,0,0,1-.461-1.042l.246-14.708a1.37,1.37,0,0,1,1.367-1.346h.021a1.368,1.368,0,0,1,1.346,1.388L29.59,32.152a7.508,7.508,0,0,0,4.226,1.67A1.391,1.391,0,0,1,35.271,35.1a1.372,1.372,0,0,1-1.278,1.45c-.126.005-.251.01-.377.01" transform="translate(113.722 70.833)" fill="#f0af9b"/>
          <path id="Trazado_150339" data-name="Trazado 150339" d="M37.737,20.006a1.364,1.364,0,0,1-.55-.115,9.591,9.591,0,0,0-7.079-.241,1.367,1.367,0,0,1-.932-2.571,12.344,12.344,0,0,1,9.111.314,1.364,1.364,0,0,1-.55,2.613" transform="translate(119.785 69.292)"/>
          <path id="Trazado_150340" data-name="Trazado 150340" d="M26.043,20.179a1.436,1.436,0,0,1-.524-.1,1.367,1.367,0,0,1-.738-1.786c.414-.99,1.518-2.11,4.362-1.8l3.99.424a1.366,1.366,0,1,1-.288,2.718l-3.99-.429c-1.236-.131-1.55.131-1.55.131a1.365,1.365,0,0,1-1.262.843" transform="translate(104.534 69.638)"/>
          <path id="Trazado_150341" data-name="Trazado 150341" d="M28.771,19.838c0,1.068.623,1.937,1.393,1.937s1.393-.869,1.393-1.937S30.934,17.9,30.164,17.9s-1.393.869-1.393,1.937" transform="translate(121.877 75.832)"/>
          <path id="Trazado_150342" data-name="Trazado 150342" d="M25.956,19.838c0,1.068.623,1.937,1.393,1.937s1.393-.869,1.393-1.937S28.119,17.9,27.349,17.9s-1.393.869-1.393,1.937" transform="translate(109.952 75.832)"/>
          <path id="Trazado_150343" data-name="Trazado 150343" d="M116.833,101.5H27.788a6.55,6.55,0,0,1-6.152-4.3L1.236,41.124a6.537,6.537,0,0,1,6.142-8.781H96.423a6.55,6.55,0,0,1,6.152,4.3L122.981,92.72a6.542,6.542,0,0,1-6.147,8.781" transform="translate(3.529 137.01)" fill="#12263f"/>
          <path id="Trazado_150344" data-name="Trazado 150344" d="M117.936,103.974H28.891a7.936,7.936,0,0,1-7.435-5.2L1.051,42.7a7.912,7.912,0,0,1,7.43-10.614h89.05a7.941,7.941,0,0,1,7.43,5.2l20.41,56.073a7.914,7.914,0,0,1-7.435,10.614M8.481,34.815a5.178,5.178,0,0,0-4.864,6.948L24.022,97.837a5.2,5.2,0,0,0,4.87,3.4h89.045a5.174,5.174,0,0,0,4.864-6.948L102.4,38.219a5.193,5.193,0,0,0-4.864-3.4Z" transform="translate(2.426 135.904)"/>
          <path id="Trazado_150345" data-name="Trazado 150345" d="M127.642,51.418l-1.073-2.948a6.543,6.543,0,0,0-6.147-4.3H12.553a6.545,6.545,0,0,0-6.5,7.252Z" transform="translate(25.456 187.093)" fill="#12263f"/>
          <path id="Trazado_150346" data-name="Trazado 150346" d="M128.749,53.89H7.157A1.371,1.371,0,0,1,5.8,52.675a7.928,7.928,0,0,1,1.979-6.142A7.8,7.8,0,0,1,13.66,43.9H121.529a7.931,7.931,0,0,1,7.43,5.2l1.073,2.948a1.366,1.366,0,0,1-1.283,1.833M8.523,51.157H126.8l-.4-1.11a5.185,5.185,0,0,0-4.864-3.409H13.66a5.087,5.087,0,0,0-3.849,1.717,5.175,5.175,0,0,0-1.288,2.8" transform="translate(24.349 185.987)"/>
          <path id="Trazado_150347" data-name="Trazado 150347" d="M116,105.807H26.959a6.582,6.582,0,0,1-6.152-4.6L.4,41.256c-1.555-4.566,1.607-9.388,6.147-9.388H95.593a6.582,6.582,0,0,1,6.152,4.6l20.405,59.948c1.555,4.561-1.607,9.388-6.147,9.388" transform="translate(0.002 134.998)" fill="#12263f"/>
          <path id="Trazado_150348" data-name="Trazado 150348" d="M23.883,44.1c1.33,3.655-.555,6.618-4.21,6.618s-7.7-2.964-9.027-6.618.555-6.618,4.21-6.618,7.7,2.964,9.027,6.618" transform="translate(43.291 158.792)" fill="#fff"/>
          <path id="Trazado_150349" data-name="Trazado 150349" d="M20.775,53.194c-4.246,0-8.776-3.3-10.31-7.519a6.555,6.555,0,0,1,.5-6.074,5.875,5.875,0,0,1,5-2.377c4.246,0,8.776,3.3,10.31,7.519a6.567,6.567,0,0,1-.492,6.074,5.865,5.865,0,0,1-5,2.377M15.958,39.957A3.215,3.215,0,0,0,13.2,41.172a3.908,3.908,0,0,0-.168,3.571c1.131,3.1,4.676,5.718,7.744,5.718a3.219,3.219,0,0,0,2.759-1.21,3.918,3.918,0,0,0,.168-3.576c-1.126-3.1-4.676-5.718-7.744-5.718" transform="translate(42.189 157.686)"/>
          <path id="Trazado_150350" data-name="Trazado 150350" d="M49.456,81.594a1.373,1.373,0,0,1-1.33-1.052l-11.038-47.1a1.366,1.366,0,1,1,2.66-.623l11.038,47.1a1.363,1.363,0,0,1-1.016,1.639,1.286,1.286,0,0,1-.314.037" transform="translate(156.956 134.559)" fill="#e05d53"/>
          <path id="Trazado_150351" data-name="Trazado 150351" d="M101.233,45.709c-9.755,1.613-16.97,2.969-16.97,2.969s-4.11.749-9.147,2c-8.608-3.32-24.489-10.959-25.976-10.959-2.147,0-19.347,7.886-21.5,10.755s2.508,13.619,4.3,17.2,18.279-1.791,18.635-3.225,11.828,8.6,19.353,7.524a13.6,13.6,0,0,0,8.624-4.686c2.388.372,5,.744,7.859,1.1,5.278.665,10.189,1.22,14.823,1.691,0,0,4.712-6.132,4.435-13.043a17.222,17.222,0,0,0-4.435-11.331" transform="translate(114.729 168.255)" fill="#ffd8c5"/>
          <path id="Trazado_150352" data-name="Trazado 150352" d="M29.08,54.321a1.373,1.373,0,0,1-1.246-.8,2.616,2.616,0,0,1,.283-2.592c2.629-4.089,17.4-8.252,18.421-8.252A1.365,1.365,0,0,1,46.6,45.4c-2.288.293-15.473,4.828-16.242,7.074a1.36,1.36,0,0,1-1.278,1.843" transform="translate(116.975 180.781)" fill="#f0af9b"/>
          <path id="Trazado_150353" data-name="Trazado 150353" d="M28.652,55.552a1.363,1.363,0,0,1-1.32-1.016c-.864-3.288,2.168-6.482,9.278-9.75a80.865,80.865,0,0,1,9.912-3.7,1.365,1.365,0,1,1,.759,2.623C39.8,45.876,29.123,50.6,29.971,53.84A1.359,1.359,0,0,1,29,55.505a1.377,1.377,0,0,1-.351.047" transform="translate(115.173 173.822)" fill="#f0af9b"/>
          <path id="Trazado_150354" data-name="Trazado 150354" d="M115.778,32.91,92.6,114.593H36.3s-.55-3.864,8.278-6.069,32.013-7.173,32.013-7.173L92.6,29.6Z" transform="translate(153.739 125.394)" fill="#ffd8c5"/>
          <path id="Trazado_150355" data-name="Trazado 150355" d="M93.707,117.068H37.4a1.373,1.373,0,0,1-1.351-1.173c-.073-.518-.44-5.152,9.3-7.587,7.786-1.948,26.919-6.084,31.2-7l15.818-70.9A1.36,1.36,0,1,1,95.031,31l-16,71.75a1.354,1.354,0,0,1-1.047,1.037c-.225.052-23.253,4.99-31.966,7.163-4.184,1.047-5.953,2.409-6.7,3.383H93.707a1.367,1.367,0,0,1,0,2.733" transform="translate(152.63 124.287)" fill="#f0af9b"/>
          <path id="Trazado_150356" data-name="Trazado 150356" d="M41.095,54,40.959,54a1.373,1.373,0,0,1-1.231-1.5c.628-6.31,15.384-8.1,18.332-8.4a1.366,1.366,0,0,1,.278,2.718c-6.226.628-15.588,2.953-15.886,5.953A1.367,1.367,0,0,1,41.095,54" transform="translate(168.265 186.797)" fill="#f0af9b"/>
          <path id="Trazado_150357" data-name="Trazado 150357" d="M144.658,59.384l-12.247-34.94a16.417,16.417,0,0,0-23.63-8.828L68.017,38.88A27.074,27.074,0,0,0,55.079,57.023l-8.666,43.758,31.464,2.2V76.758a15.41,15.41,0,0,0,17.687,4l7.7,4.016Z" transform="translate(196.61 56.974)" fill="#43a99b"/>
          <path id="Trazado_150358" data-name="Trazado 150358" d="M68.241,41.516A16.838,16.838,0,0,1,51.423,24.7a1.364,1.364,0,1,1,2.728,0,14.1,14.1,0,0,0,14.09,14.085,13.931,13.931,0,0,0,6.3-1.482,1.365,1.365,0,0,1,1.225,2.44,16.638,16.638,0,0,1-7.524,1.775" transform="translate(217.832 98.834)" fill="#fff"/>
          <path id="Trazado_150359" data-name="Trazado 150359" d="M114.738,22.222l13.954,12.5a36.081,36.081,0,0,1,11.985,28.06l-2.759,84.731H103.146l3.314-67.336-13.8,67.336H53.476L81.62,52.026l-8.278-4.414Z" transform="translate(226.529 94.136)"/>
          <path id="Trazado_150360" data-name="Trazado 150360" d="M58.455,13.91a1.378,1.378,0,0,1-1.047-.487c-.2-.23-2.005-2.089-5.775-.23a1.366,1.366,0,0,1-1.21-2.45c5.859-2.885,8.959.78,9.085.937a1.364,1.364,0,0,1-1.052,2.231" transform="translate(210.376 40.83)"/>
          <path id="Trazado_150361" data-name="Trazado 150361" d="M47.366,15.287a1.367,1.367,0,0,1-.963-2.335c4.639-4.6,8.739-2.1,8.912-1.995a1.364,1.364,0,0,1-1.435,2.32c-.267-.152-2.571-1.34-5.55,1.613a1.36,1.36,0,0,1-.963.4" transform="translate(194.856 43.144)"/>
          <path id="Trazado_150362" data-name="Trazado 150362" d="M50.147,12.822a1.555,1.555,0,1,0,1.639-1.466,1.553,1.553,0,0,0-1.639,1.466" transform="translate(212.417 48.096)"/>
          <path id="Trazado_150363" data-name="Trazado 150363" d="M47.486,13.217a1.555,1.555,0,1,0,1.639-1.466,1.553,1.553,0,0,0-1.639,1.466" transform="translate(201.145 49.77)"/>
          <path id="Trazado_150364" data-name="Trazado 150364" d="M52.856,20.619a12.2,12.2,0,0,1-1.649-.115,1.366,1.366,0,1,1,.367-2.707c1.875.257,3.257-.016,4.131-.8a4.1,4.1,0,0,0,1.152-2.838,1.369,1.369,0,0,1,1.32-1.4h.042a1.363,1.363,0,0,1,1.367,1.309,6.8,6.8,0,0,1-2.032,4.938,6.723,6.723,0,0,1-4.7,1.613" transform="translate(211.896 54.054)"/>
          <path id="Trazado_150365" data-name="Trazado 150365" d="M51.1,22.289s1.738,9.022,18.216,7.21c15-1.644,13.394,9.551,16.792,13.787,3.561,4.435.618,8.891,4.309,9.1s20.421-19.075,1.885-38.9C76.14-3.8,60.306,5.151,53.274,13.87s11.781-1.906-.754-1.749-4.8,19.662-2.88,20.908S51.1,22.289,51.1,22.289" transform="translate(192.822 15.381)" fill="#12263f"/>
          <path id="Trazado_150366" data-name="Trazado 150366" d="M58.022,34.993s7.959,5.283,13.97-.361S83.616,15.07,77,11.284s-20.8.262-21.494,2.5-4.147,13.148,2.519,21.206" transform="translate(228.722 41.225)" fill="#12263f"/>
          <path id="Trazado_150367" data-name="Trazado 150367" d="M59.642,45.233c-.058,0-.115-.005-.178-.01a1.366,1.366,0,0,1-1.178-1.529L61.6,18.3a1.365,1.365,0,1,1,2.707.351l-3.314,25.39a1.365,1.365,0,0,1-1.351,1.189" transform="translate(246.853 72.492)" fill="#fff"/>
          <path id="Trazado_150368" data-name="Trazado 150368" d="M73.015,23.586C66.988,24.722,56.3,25.576,50.2,26.675c-8.891,1.6-9.446,6.671-9.446,6.671l48.277-1.791a28.708,28.708,0,0,0-16.017-7.969" transform="translate(172.642 99.914)" fill="#fbc2a9"/>
          <path id="Trazado_150369" data-name="Trazado 150369" d="M160.147,28.859,153.66,62.323A14.159,14.159,0,0,1,132.045,71.5L85.088,41,40.932,37.137s1.1-4.969,9.383-5.519,25.39.55,25.39-1.655-17.661-4.969-17.661-7.728,25.385,0,28.144,1.1,44.706,23.18,44.706,23.18l2.21-17.661" transform="translate(173.392 89.154)" fill="#ffd8c5"/>
          <path id="Trazado_150370" data-name="Trazado 150370" d="M53.031,22.923A14.6,14.6,0,0,1,51.2,22.8a1.361,1.361,0,0,1-1.183-1.157L48.643,12.32a1.365,1.365,0,1,1,2.7-.4l1.22,8.252a6.263,6.263,0,0,0,1.681-.1,1.366,1.366,0,0,1,1.817,2.037,4.5,4.5,0,0,1-3.032.817m1.131-2.78-.005.005Z" transform="translate(205.993 45.551)"/>
          <path id="Trazado_150371" data-name="Trazado 150371" d="M66.171,46.578a8.3,8.3,0,0,1-5.807-1L52.285,29.194A43.121,43.121,0,0,0,62.658,12.1L76.371,38.216c-3.194,4.875-6.624,7.692-10.2,8.362" transform="translate(221.484 51.25)" fill="#ffd8c5"/>
          <path id="Trazado_150372" data-name="Trazado 150372" d="M67.773,21.849,62.652,12.1a43.11,43.11,0,0,1-10.367,17.1l4.147,8.414c.215-.068.435-.115.649-.189.073-.026.147-.052.22-.084,4.765-1.791,8.456-8.132,10.472-15.488" transform="translate(221.484 51.254)" fill="#f0af9b"/>
          <path id="Trazado_150373" data-name="Trazado 150373" d="M56.31,24.691a7.174,7.174,0,1,0-3.335-12.834" transform="translate(224.407 44.097)" fill="#ffd8c5"/>
          <path id="Trazado_150374" data-name="Trazado 150374" d="M63.281,0c-16.8,0-30.416,10.734-30.416,23.976,0,9.566,7.132,17.8,17.415,21.651-.2.414-.382.838-.623,1.241A19.872,19.872,0,0,1,41.2,54.513c7.77.555,14.959-1.77,19.7-6.66.791.047,1.581.094,2.388.094,16.8,0,30.416-10.734,30.416-23.971S80.079,0,63.281,0" transform="translate(139.219 0.002)" fill="#5263e2"/>
          <rect id="Rectángulo_38631" data-name="Rectángulo 38631" width="29.027" height="2.732" transform="translate(191.364 33.192) rotate(-45)" fill="#fff"/>
          <path id="Trazado_150375" data-name="Trazado 150375" d="M41.5,13.286a5.472,5.472,0,1,1,5.472-5.472A5.479,5.479,0,0,1,41.5,13.286m0-8.21a2.738,2.738,0,1,0,2.738,2.738A2.741,2.741,0,0,0,41.5,5.076" transform="translate(152.609 9.927)" fill="#fff"/>
          <path id="Trazado_150376" data-name="Trazado 150376" d="M44.543,15.637a5.472,5.472,0,1,1,5.472-5.472,5.479,5.479,0,0,1-5.472,5.472m0-8.21a2.738,2.738,0,1,0,2.738,2.738,2.741,2.741,0,0,0-2.738-2.738" transform="translate(165.508 19.886)" fill="#fff"/>
        </g>
      </g>
    </g>
  </g>
</svg>
