<svg xmlns="http://www.w3.org/2000/svg" xmlns:xlink="http://www.w3.org/1999/xlink" width="445" height="390.269" viewBox="0 0 445 390.269">
  <defs>
    <filter id="Rectángulo_38526" x="0" y="0" width="445" height="390.269" filterUnits="userSpaceOnUse">
      <feOffset dx="8" dy="8" input="SourceAlpha"/>
      <feGaussianBlur stdDeviation="7.5" result="blur"/>
      <feFlood flood-opacity="0.051"/>
      <feComposite operator="in" in2="blur"/>
      <feComposite in="SourceGraphic"/>
    </filter>
    <clipPath id="clip-path">
      <rect id="Rectángulo_43064" data-name="Rectángulo 43064" width="408.641" height="384.206" fill="none"/>
    </clipPath>
  </defs>
  <g id="Grupo_157512" data-name="Grupo 157512" transform="translate(-231.578 -14226.231)">
    <g id="Grupo_156370" data-name="Grupo 156370" transform="translate(-773.922 13780.559)">
      <g transform="matrix(1, 0, 0, 1, 1005.5, 445.67)" filter="url(#Rectángulo_38526)">
        <g id="Rectángulo_38526-2" data-name="Rectángulo 38526" transform="translate(14.5 14.5)" fill="#f9d98d" stroke="#fff" stroke-width="8">
          <path d="M0,0H350a50,50,0,0,1,50,50V345.268a0,0,0,0,1,0,0H50a50,50,0,0,1-50-50V0A0,0,0,0,1,0,0Z" stroke="none"/>
          <path d="M4,4H350a46,46,0,0,1,46,46V341.268a0,0,0,0,1,0,0H50a46,46,0,0,1-46-46V4A0,0,0,0,1,4,4Z" fill="none"/>
        </g>
      </g>
      <path id="Trazado_149908" data-name="Trazado 149908" d="M32.977,86.236H6.046a6.623,6.623,0,0,1,0-13.2H32.977a6.623,6.623,0,0,1,0,13.2" transform="translate(1208.988 456.797)" fill="#43a99b"/>
      <path id="Trazado_149910" data-name="Trazado 149910" d="M409.606,80.154h-47.6a6.4,6.4,0,0,1,0-12.761h47.6a6.4,6.4,0,0,1,0,12.761" transform="translate(759.57 536.877)" fill="#fff3cd"/>
    </g>
    <g id="Grupo_156373" data-name="Grupo 156373" transform="translate(235 14228.455)">
      <g id="Grupo_156372" data-name="Grupo 156372">
        <g id="Grupo_156371" data-name="Grupo 156371" clip-path="url(#clip-path)">
          <path id="Trazado_191151" data-name="Trazado 191151" d="M206.794,141.815l32.482,17.176A67.413,67.413,0,0,1,270.854,195.1l42.015,112.634H87.562l77.177-184.956Z" transform="translate(-43.936 73.116)" fill="#ff8578"/>
          <path id="Trazado_191152" data-name="Trazado 191152" d="M132.635,261.885a2.17,2.17,0,0,0,2.16-1.967l7.306-76.836a2.183,2.183,0,0,0-1.962-2.381,2.144,2.144,0,0,0-2.366,1.9c0,.021,0,.043-.006.065l-7.3,76.834a2.183,2.183,0,0,0,1.962,2.381l.209.008" transform="translate(58.386 107.604)" fill="#e05d53"/>
          <path id="Trazado_191153" data-name="Trazado 191153" d="M290.1,118.011l-51.815,22.117a70.447,70.447,0,0,0-36.641,35.99L162.2,264.156c-9.474,21.128,5.706,45.153,28.53,45.153H312.506l1.245-43.079-79.666-17.736" transform="translate(-159.338 70.278)" fill="#ff8578"/>
          <path id="Trazado_191154" data-name="Trazado 191154" d="M207.142,125c-10.017,29.182-16.408,43.417-18.045,44.871-11.279,10.052-44.675-15.907-40.485-23.135,4.211-7.26,10.593-43.818,10.371-49.541-.276-5.714,54.088,10.51,48.162,27.812" transform="translate(-35.492 57.189)" fill="#ffd8c5"/>
          <path id="Trazado_191155" data-name="Trazado 191155" d="M172.959,105.424c-9.24-3.475-18.629-5.731-23.944-6.063a244.46,244.46,0,0,0-1.546,24.731c.225,17.185,13.016,25.7,20.844,32.281a23.5,23.5,0,0,0,6.534,3.568c2.481-4.787,6.909-15.157,15-35.515,3.031-7.619-6.074-14.4-16.884-19.006" transform="translate(-17.085 59.172)" fill="#f0af9b"/>
          <path id="Trazado_191156" data-name="Trazado 191156" d="M131.847,103.614a5.488,5.488,0,0,1,5.755-5.206c.11.006.219.014.329.027l2.564.209c.811-15.706,2.063-30.21,2.063-30.21s6.893-13.651,33.76-2.858C203.16,76.362,212.8,67.2,212.8,67.2l-3.459,85.415s-12.681,17.844-20.6,20.041c-7.861,2.172-16.809-.638-25.289-7.978-8.456-7.376-22.214-17.085-23.392-35.2-.126-1.838-.191-3.927-.225-6.2l-2.925-.258a6.071,6.071,0,0,1-5.615-6.157Z" transform="translate(-13.643 36.578)" fill="#ffd8c5"/>
          <path id="Trazado_191157" data-name="Trazado 191157" d="M213.535,64.4C212.273,57.594,206,54,202.256,52.6,188.3,47.35,179.29,63.064,158.312,54.777c-6.433-2.553-16.683,2.347-19.724,6.968a4.736,4.736,0,0,1-2.663,1.974c-1.361.377-2.891.886-4.6,1.546-8.145,3.158-7.035,25.279-4.8,41.629a5.543,5.543,0,0,1,1.671-.116l3.434.3c3.25.268,6.266,4.195,6.132,7.552l-.418,10.342.493.041.083.008a4.937,4.937,0,0,0,5.179-4.148l1.915-10.371a4.926,4.926,0,0,1,5.313-4.136,4.9,4.9,0,0,0,5.238-3.785l4.9-19.039a4.906,4.906,0,0,1,5.288-3.767c12.882,1.554,32.515,2.872,36.617,2.205,5.873-.927,12.464-10.577,11.169-17.578" transform="translate(-4.351 30.668)" fill="#12263f"/>
          <path id="Trazado_191158" data-name="Trazado 191158" d="M145.091,112.015l16.182,3.893s-15.655,19.925-16.182-3.893" transform="translate(15.872 66.707)" fill="#fff"/>
          <path id="Trazado_191159" data-name="Trazado 191159" d="M143.211,119.207c4.988,0,9.549-3.911,10.066-4.378a2.17,2.17,0,0,0,.736-1.663L153.621,89.7a2.187,2.187,0,0,0-2.181-2.148h-.034a2.182,2.182,0,0,0-2.148,2.215l.377,22.406a11.979,11.979,0,0,1-6.743,2.665,2.219,2.219,0,0,0-2.321,2.039,2.188,2.188,0,0,0,2.039,2.313c.2.008.4.016.6.016" transform="translate(30.35 52.139)" fill="#f0af9b"/>
          <path id="Trazado_191160" data-name="Trazado 191160" d="M150.239,91.469a2.185,2.185,0,0,0,.878-.183,15.3,15.3,0,0,1,11.295-.385,2.182,2.182,0,0,0,1.487-4.1,19.7,19.7,0,0,0-14.537.5,2.176,2.176,0,0,0,.878,4.169" transform="translate(7.074 51.005)"/>
          <path id="Trazado_191161" data-name="Trazado 191161" d="M142.473,92.041a2.276,2.276,0,0,0,.836-.16,2.181,2.181,0,0,0,1.178-2.85c-.661-1.58-2.422-3.367-6.96-2.872l-6.366.676a2.18,2.18,0,1,0,.46,4.337l6.366-.684c1.972-.209,2.473.209,2.473.209a2.176,2.176,0,0,0,2.014,1.345" transform="translate(57.831 51.26)"/>
          <path id="Trazado_191162" data-name="Trazado 191162" d="M155.092,96.822c0,1.7-.994,3.091-2.223,3.091s-2.223-1.387-2.223-3.091.994-3.092,2.223-3.092,2.223,1.387,2.223,3.091" transform="translate(13.188 55.818)"/>
          <path id="Trazado_191163" data-name="Trazado 191163" d="M140.352,96.822c0,1.7-.994,3.091-2.223,3.091s-2.223-1.387-2.223-3.091.994-3.092,2.223-3.092,2.223,1.387,2.223,3.091" transform="translate(51.446 55.818)"/>
          <path id="Trazado_191164" data-name="Trazado 191164" d="M14.808,279.692H156.881a10.451,10.451,0,0,0,9.816-6.861l32.549-89.47a10.429,10.429,0,0,0-9.8-14.01H47.373a10.451,10.451,0,0,0-9.816,6.861L5,265.684a10.438,10.438,0,0,0,9.808,14.01" transform="translate(201.794 100.852)" fill="#12263f"/>
          <path id="Trazado_191165" data-name="Trazado 191165" d="M15.622,282.687H157.7a12.66,12.66,0,0,0,11.863-8.3l32.557-89.467a12.624,12.624,0,0,0-11.855-16.935H48.178a12.672,12.672,0,0,0-11.855,8.3L3.759,265.75a12.627,12.627,0,0,0,11.863,16.935M190.26,172.342a8.261,8.261,0,0,1,7.761,11.086L165.464,272.9a8.3,8.3,0,0,1-7.77,5.425H15.62A8.254,8.254,0,0,1,7.86,267.234l32.55-89.461a8.286,8.286,0,0,1,7.761-5.425Z" transform="translate(200.98 100.041)"/>
          <path id="Trazado_191166" data-name="Trazado 191166" d="M31.47,242.825l1.712-4.7a10.44,10.44,0,0,1,9.808-6.861H215.1a10.447,10.447,0,0,1,10.371,11.571Z" transform="translate(132.901 137.721)" fill="#12263f"/>
          <path id="Trazado_191167" data-name="Trazado 191167" d="M32.281,245.824h194a2.188,2.188,0,0,0,2.165-1.939,12.649,12.649,0,0,0-3.158-9.8,12.446,12.446,0,0,0-9.383-4.2H43.8a12.656,12.656,0,0,0-11.855,8.3l-1.712,4.7a2.179,2.179,0,0,0,2.047,2.925M224.1,241.464H35.391l.638-1.771a8.273,8.273,0,0,1,7.761-5.439H215.908a8.115,8.115,0,0,1,6.141,2.74,8.258,8.258,0,0,1,2.055,4.467" transform="translate(132.09 136.901)"/>
          <path id="Trazado_191168" data-name="Trazado 191168" d="M10.452,284.835H152.519a10.5,10.5,0,0,0,9.816-7.339l32.56-95.653c2.481-7.285-2.564-14.979-9.808-14.979H43.012A10.5,10.5,0,0,0,33.2,174.2L.64,269.852c-2.481,7.277,2.564,14.979,9.808,14.979" transform="translate(213.106 99.371)" fill="#12263f"/>
          <path id="Trazado_191169" data-name="Trazado 191169" d="M54.191,206.831c-2.122,5.832.886,10.559,6.717,10.559s12.286-4.729,14.4-10.559-.886-10.559-6.717-10.559S56.308,201,54.191,206.831" transform="translate(247.273 116.884)" fill="#fff"/>
          <path id="Trazado_191170" data-name="Trazado 191170" d="M61.741,220.392c6.775,0,14-5.265,16.45-12a10.458,10.458,0,0,0-.8-9.691,9.373,9.373,0,0,0-7.978-3.793c-6.775,0-14,5.265-16.45,12a10.48,10.48,0,0,0,.785,9.691,9.355,9.355,0,0,0,7.978,3.793m7.7-21.12a5.131,5.131,0,0,1,4.4,1.939,6.234,6.234,0,0,1,.268,5.7c-1.8,4.946-7.461,9.123-12.356,9.123a5.141,5.141,0,0,1-4.4-1.931,6.25,6.25,0,0,1-.268-5.706c1.8-4.946,7.461-9.123,12.356-9.123" transform="translate(246.441 116.068)"/>
          <path id="Trazado_191171" data-name="Trazado 191171" d="M196.186,245.829a2.19,2.19,0,0,0,2.122-1.678L215.919,169a2.18,2.18,0,0,0-4.241-1.01l0,.016-17.611,75.149a2.176,2.176,0,0,0,1.619,2.615h0a2.038,2.038,0,0,0,.5.059" transform="translate(-116.878 99.045)" fill="#e05d53"/>
          <path id="Trazado_191172" data-name="Trazado 191172" d="M148.908,217.529c15.564,2.574,27.076,4.737,27.076,4.737s6.558,1.2,14.594,3.191c13.734-5.3,39.073-17.485,41.445-17.485,3.426,0,30.869,12.582,34.3,17.16s-4,21.729-6.861,27.443-29.165-2.858-29.733-5.146-18.872,13.722-30.878,12a21.7,21.7,0,0,1-13.76-7.477c-3.81.594-7.978,1.187-12.539,1.755-8.421,1.061-16.257,1.947-23.65,2.7,0,0-7.518-9.784-7.076-20.81a27.475,27.475,0,0,1,7.076-18.079" transform="translate(-84.838 123.852)" fill="#ffd8c5"/>
          <path id="Trazado_191173" data-name="Trazado 191173" d="M174.522,242.034a2.192,2.192,0,0,0,1.988-1.276,4.172,4.172,0,0,0-.452-4.136c-4.195-6.524-27.762-13.166-29.391-13.166a2.178,2.178,0,0,0-.1,4.345c3.651.467,24.688,7.7,25.914,11.287a2.171,2.171,0,0,0,2.039,2.941" transform="translate(1.086 133.073)" fill="#f0af9b"/>
          <path id="Trazado_191174" data-name="Trazado 191174" d="M173.657,238.019a2.175,2.175,0,0,0,2.106-1.621c1.379-5.246-3.459-10.342-14.8-15.556a129.261,129.261,0,0,0-15.815-5.9,2.178,2.178,0,0,0-1.211,4.185c11.936,3.458,28.972,10.995,27.619,16.164a2.169,2.169,0,0,0,1.536,2.653l.013,0a2.134,2.134,0,0,0,.56.075" transform="translate(5.509 127.949)" fill="#f0af9b"/>
          <path id="Trazado_191175" data-name="Trazado 191175" d="M220.624,0c26.8,0,48.529,17.126,48.529,38.254,0,15.263-11.379,28.4-27.786,34.545.319.661.61,1.337.994,1.98a31.708,31.708,0,0,0,13.493,12.2c-12.4.886-23.867-2.824-31.432-10.626-1.262.075-2.523.15-3.81.15-26.8,0-48.529-17.126-48.529-38.246S193.822,0,220.624,0" transform="translate(-135.075)" fill="#5263e2"/>
        </g>
      </g>
      <text id="_" data-name="?" transform="translate(78.099 61.48)" fill="#fff" font-size="52" font-family="MyriadPro-Regular, Myriad Pro"><tspan x="0" y="0">?</tspan></text>
    </g>
  </g>
</svg>
