<svg xmlns="http://www.w3.org/2000/svg" xmlns:xlink="http://www.w3.org/1999/xlink" width="400" height="454" viewBox="0 0 400 454">
  <defs>
    <clipPath id="clip-path">
      <rect id="Rectángulo_38815" data-name="Rectángulo 38815" width="86.954" height="129" fill="#fff"/>
    </clipPath>
  </defs>
  <g id="Grupo_157515" data-name="Grupo 157515" transform="translate(-370 -1312.36)">
    <path id="Trazado_196196" data-name="Trazado 196196" d="M10,0H390a10,10,0,0,1,10,10V444a10,10,0,0,1-10,10H10A10,10,0,0,1,0,444V10A10,10,0,0,1,10,0Z" transform="translate(370 1312.36)" fill="#ff8578"/>
    <path id="Trazado_196197" data-name="Trazado 196197" d="M9.825,14.882h5.6V17H7.188V4.2H9.825ZM22.279,17a2.821,2.821,0,0,1-.255-.853,3.073,3.073,0,0,1-2.4,1.028,3.376,3.376,0,0,1-2.316-.809,2.6,2.6,0,0,1-.918-2.039,2.687,2.687,0,0,1,1.121-2.32,5.529,5.529,0,0,1,3.239-.817h1.169v-.545a1.567,1.567,0,0,0-.338-1.055,1.331,1.331,0,0,0-1.068-.4,1.513,1.513,0,0,0-1.006.308,1.045,1.045,0,0,0-.365.844H16.6a2.551,2.551,0,0,1,.51-1.529,3.37,3.37,0,0,1,1.441-1.1,5.253,5.253,0,0,1,2.092-.4,4.15,4.15,0,0,1,2.791.883,3.09,3.09,0,0,1,1.033,2.483V14.8a4.546,4.546,0,0,0,.378,2.048V17Zm-2.1-1.767a2.188,2.188,0,0,0,1.037-.25,1.645,1.645,0,0,0,.7-.672V12.676H20.97q-1.907,0-2.03,1.318l-.009.149a1.017,1.017,0,0,0,.334.782A1.3,1.3,0,0,0,20.179,15.233Zm11.391-.861a.818.818,0,0,0-.461-.734,5.241,5.241,0,0,0-1.481-.479q-3.393-.712-3.393-2.883a2.613,2.613,0,0,1,1.05-2.114,4.237,4.237,0,0,1,2.747-.848,4.56,4.56,0,0,1,2.9.853,2.687,2.687,0,0,1,1.085,2.215h-2.54a1.229,1.229,0,0,0-.352-.9,1.488,1.488,0,0,0-1.1-.356,1.52,1.52,0,0,0-.993.29.916.916,0,0,0-.352.738.783.783,0,0,0,.4.681,4.114,4.114,0,0,0,1.349.448,11.019,11.019,0,0,1,1.6.426,2.628,2.628,0,0,1,2.013,2.558,2.481,2.481,0,0,1-1.116,2.1,4.815,4.815,0,0,1-2.883.8,5.029,5.029,0,0,1-2.123-.426,3.561,3.561,0,0,1-1.455-1.169,2.716,2.716,0,0,1-.527-1.6h2.408a1.326,1.326,0,0,0,.5,1.037,1.987,1.987,0,0,0,1.248.36,1.839,1.839,0,0,0,1.1-.277A.861.861,0,0,0,31.569,14.372Zm17.156-2.039A5.758,5.758,0,0,1,47.75,15.9a3.231,3.231,0,0,1-2.725,1.279,2.969,2.969,0,0,1-2.47-1.187L42.441,17H40.156V3.5H42.7V8.343a2.893,2.893,0,0,1,2.312-1.028,3.258,3.258,0,0,1,2.729,1.279,5.767,5.767,0,0,1,.989,3.6Zm-2.54-.194a3.8,3.8,0,0,0-.457-2.111,1.544,1.544,0,0,0-1.362-.666,1.675,1.675,0,0,0-1.67,1v3.764a1.7,1.7,0,0,0,1.688,1A1.569,1.569,0,0,0,46,13.911,6.294,6.294,0,0,0,46.186,12.139ZM55.8,17a2.821,2.821,0,0,1-.255-.853,3.073,3.073,0,0,1-2.4,1.028,3.376,3.376,0,0,1-2.316-.809,2.6,2.6,0,0,1-.918-2.039,2.687,2.687,0,0,1,1.121-2.32,5.529,5.529,0,0,1,3.239-.817H55.44v-.545A1.567,1.567,0,0,0,55.1,9.591a1.331,1.331,0,0,0-1.068-.4,1.513,1.513,0,0,0-1.006.308,1.045,1.045,0,0,0-.365.844h-2.54a2.551,2.551,0,0,1,.51-1.529,3.37,3.37,0,0,1,1.441-1.1,5.253,5.253,0,0,1,2.092-.4,4.15,4.15,0,0,1,2.791.883,3.09,3.09,0,0,1,1.033,2.483V14.8a4.546,4.546,0,0,0,.378,2.048V17Zm-2.1-1.767a2.188,2.188,0,0,0,1.037-.25,1.645,1.645,0,0,0,.7-.672V12.676h-.949q-1.907,0-2.03,1.318l-.009.149a1.017,1.017,0,0,0,.334.782A1.3,1.3,0,0,0,53.7,15.233Zm11.391-.861a.818.818,0,0,0-.461-.734,5.241,5.241,0,0,0-1.481-.479q-3.393-.712-3.393-2.883a2.613,2.613,0,0,1,1.05-2.114,4.237,4.237,0,0,1,2.747-.848,4.56,4.56,0,0,1,2.9.853,2.687,2.687,0,0,1,1.085,2.215h-2.54a1.229,1.229,0,0,0-.352-.9,1.488,1.488,0,0,0-1.1-.356,1.52,1.52,0,0,0-.993.29.916.916,0,0,0-.352.738.783.783,0,0,0,.4.681,4.114,4.114,0,0,0,1.349.448,11.019,11.019,0,0,1,1.6.426,2.628,2.628,0,0,1,2.013,2.558,2.481,2.481,0,0,1-1.116,2.1,4.815,4.815,0,0,1-2.883.8,5.029,5.029,0,0,1-2.123-.426,3.561,3.561,0,0,1-1.455-1.169,2.716,2.716,0,0,1-.527-1.6h2.408a1.326,1.326,0,0,0,.5,1.037,1.987,1.987,0,0,0,1.248.36,1.839,1.839,0,0,0,1.1-.277A.861.861,0,0,0,65.091,14.372Zm8.481,2.8a4.668,4.668,0,0,1-3.406-1.283,4.561,4.561,0,0,1-1.314-3.419v-.246a5.745,5.745,0,0,1,.554-2.562,4.064,4.064,0,0,1,1.569-1.74,4.4,4.4,0,0,1,2.316-.611,3.947,3.947,0,0,1,3.072,1.23,5,5,0,0,1,1.121,3.489v1.037H71.428a2.36,2.36,0,0,0,.743,1.494,2.245,2.245,0,0,0,1.569.563,2.742,2.742,0,0,0,2.294-1.063l1.248,1.4a3.813,3.813,0,0,1-1.547,1.261A5.075,5.075,0,0,1,73.572,17.176Zm-.29-7.813a1.587,1.587,0,0,0-1.226.512,2.651,2.651,0,0,0-.6,1.466h3.533v-.2a1.891,1.891,0,0,0-.457-1.311A1.638,1.638,0,0,0,73.282,9.362Zm10.793,5.01a.818.818,0,0,0-.461-.734,5.241,5.241,0,0,0-1.481-.479q-3.393-.712-3.393-2.883a2.613,2.613,0,0,1,1.05-2.114,4.237,4.237,0,0,1,2.747-.848,4.56,4.56,0,0,1,2.9.853,2.687,2.687,0,0,1,1.085,2.215h-2.54a1.229,1.229,0,0,0-.352-.9,1.488,1.488,0,0,0-1.1-.356,1.52,1.52,0,0,0-.993.29.916.916,0,0,0-.352.738.783.783,0,0,0,.4.681,4.114,4.114,0,0,0,1.349.448,11.019,11.019,0,0,1,1.6.426,2.628,2.628,0,0,1,2.013,2.558,2.481,2.481,0,0,1-1.116,2.1,4.815,4.815,0,0,1-2.883.8,5.029,5.029,0,0,1-2.123-.426,3.561,3.561,0,0,1-1.455-1.169,2.716,2.716,0,0,1-.527-1.6H80.85a1.326,1.326,0,0,0,.5,1.037,1.987,1.987,0,0,0,1.248.36,1.839,1.839,0,0,0,1.1-.277A.861.861,0,0,0,84.075,14.372Zm-71.569,21.8a5.731,5.731,0,0,1,1-3.542,3.237,3.237,0,0,1,2.729-1.318,2.913,2.913,0,0,1,2.294,1.037V27.5h2.549V41H18.781l-.123-1.011a2.989,2.989,0,0,1-2.443,1.187,3.228,3.228,0,0,1-2.694-1.323A5.916,5.916,0,0,1,12.506,36.175Zm2.54.181a3.775,3.775,0,0,0,.466,2.057,1.516,1.516,0,0,0,1.354.715,1.7,1.7,0,0,0,1.661-1V34.36a1.675,1.675,0,0,0-1.644-1Q15.046,33.362,15.046,36.356Zm12.375,4.82a4.668,4.668,0,0,1-3.406-1.283A4.561,4.561,0,0,1,22.7,36.474v-.246a5.745,5.745,0,0,1,.554-2.562,4.064,4.064,0,0,1,1.569-1.74,4.4,4.4,0,0,1,2.316-.611,3.947,3.947,0,0,1,3.072,1.23,5,5,0,0,1,1.121,3.489v1.037H25.276a2.36,2.36,0,0,0,.743,1.494,2.245,2.245,0,0,0,1.569.563,2.742,2.742,0,0,0,2.294-1.063l1.248,1.4a3.813,3.813,0,0,1-1.547,1.261A5.075,5.075,0,0,1,27.421,41.176Zm-.29-7.813a1.587,1.587,0,0,0-1.226.512,2.651,2.651,0,0,0-.6,1.466h3.533v-.2a1.891,1.891,0,0,0-.457-1.311A1.638,1.638,0,0,0,27.131,33.362Zm9.729,2.813a5.731,5.731,0,0,1,1-3.542,3.237,3.237,0,0,1,2.729-1.318,2.913,2.913,0,0,1,2.294,1.037V27.5H45.43V41H43.136l-.123-1.011a2.989,2.989,0,0,1-2.443,1.187,3.228,3.228,0,0,1-2.694-1.323A5.916,5.916,0,0,1,36.86,36.175Zm2.54.181a3.775,3.775,0,0,0,.466,2.057,1.516,1.516,0,0,0,1.354.715,1.7,1.7,0,0,0,1.661-1V34.36a1.675,1.675,0,0,0-1.644-1Q39.4,33.362,39.4,36.356ZM52.909,41a2.821,2.821,0,0,1-.255-.853,3.073,3.073,0,0,1-2.4,1.028,3.376,3.376,0,0,1-2.316-.809,2.6,2.6,0,0,1-.918-2.039,2.687,2.687,0,0,1,1.121-2.32,5.529,5.529,0,0,1,3.239-.817h1.169v-.545a1.567,1.567,0,0,0-.338-1.055,1.331,1.331,0,0,0-1.068-.4,1.513,1.513,0,0,0-1.006.308,1.045,1.045,0,0,0-.365.844h-2.54a2.551,2.551,0,0,1,.51-1.529,3.37,3.37,0,0,1,1.441-1.1,5.253,5.253,0,0,1,2.092-.4,4.15,4.15,0,0,1,2.791.883A3.09,3.09,0,0,1,55.1,34.681V38.8a4.546,4.546,0,0,0,.378,2.048V41Zm-2.1-1.767a2.188,2.188,0,0,0,1.037-.25,1.645,1.645,0,0,0,.7-.672V36.676H51.6q-1.907,0-2.03,1.318l-.009.149a1.017,1.017,0,0,0,.334.782A1.3,1.3,0,0,0,50.809,39.233ZM60.09,29.152V31.49h1.626v1.863H60.09V38.1a1.133,1.133,0,0,0,.2.756,1.015,1.015,0,0,0,.773.229,4.051,4.051,0,0,0,.747-.062v1.925a5.229,5.229,0,0,1-1.538.229,2.425,2.425,0,0,1-2.725-2.7V33.354H56.161V31.49H57.55V29.152Zm2.382,7a5.64,5.64,0,0,1,.545-2.522,3.989,3.989,0,0,1,1.569-1.714,4.577,4.577,0,0,1,2.377-.606A4.33,4.33,0,0,1,70.1,32.492a4.727,4.727,0,0,1,1.358,3.2l.018.65a4.97,4.97,0,0,1-1.222,3.511,4.735,4.735,0,0,1-6.561,0,5.058,5.058,0,0,1-1.226-3.586Zm2.54.18a3.555,3.555,0,0,0,.51,2.073,1.831,1.831,0,0,0,2.9.009,3.89,3.89,0,0,0,.519-2.267,3.519,3.519,0,0,0-.519-2.06,1.686,1.686,0,0,0-1.459-.731,1.658,1.658,0,0,0-1.441.726A3.955,3.955,0,0,0,65.012,36.338ZM78.2,38.372a.818.818,0,0,0-.461-.734,5.241,5.241,0,0,0-1.481-.479q-3.393-.712-3.393-2.883a2.613,2.613,0,0,1,1.05-2.114,4.237,4.237,0,0,1,2.747-.848,4.56,4.56,0,0,1,2.9.853,2.687,2.687,0,0,1,1.085,2.215H78.1a1.229,1.229,0,0,0-.352-.9,1.488,1.488,0,0,0-1.1-.356,1.52,1.52,0,0,0-.993.29.916.916,0,0,0-.352.738.783.783,0,0,0,.4.681,4.114,4.114,0,0,0,1.349.448,11.019,11.019,0,0,1,1.6.426,2.628,2.628,0,0,1,2.013,2.558,2.481,2.481,0,0,1-1.116,2.1,4.815,4.815,0,0,1-2.883.8,5.029,5.029,0,0,1-2.123-.426,3.561,3.561,0,0,1-1.455-1.169,2.716,2.716,0,0,1-.527-1.6H74.97a1.326,1.326,0,0,0,.5,1.037,1.987,1.987,0,0,0,1.248.36,1.839,1.839,0,0,0,1.1-.277A.861.861,0,0,0,78.2,38.372Z" transform="translate(534.42 1592.933)" fill="#12263f"/>
    <g id="Grupo_145419" data-name="Grupo 145419" transform="translate(539.625 1438.237)">
      <g id="Grupo_145418" data-name="Grupo 145418" transform="translate(0 0)" clip-path="url(#clip-path)">
        <path id="Trazado_150832" data-name="Trazado 150832" d="M6.8,47.71a2.157,2.157,0,0,1-2.156-2.156V20.563a2.156,2.156,0,1,1,4.313,0V45.554A2.157,2.157,0,0,1,6.8,47.71" transform="translate(6.402 25.403)" fill="#fff"/>
        <path id="Trazado_150833" data-name="Trazado 150833" d="M17.893,47.71a2.157,2.157,0,0,1-2.156-2.156V20.563a2.156,2.156,0,1,1,4.313,0V45.554a2.157,2.157,0,0,1-2.156,2.156" transform="translate(21.718 25.403)" fill="#fff"/>
        <path id="Trazado_150834" data-name="Trazado 150834" d="M18.1,27.611c-2.773,0-6.745-1.28-9.837-7.121A22.476,22.476,0,0,1,5.78,10V9.649a8.458,8.458,0,0,1,4.344-7.416A17.308,17.308,0,0,1,18.378,0a16.73,16.73,0,0,1,8.849,2.889A8.43,8.43,0,0,1,31.073,10a22.459,22.459,0,0,1-2.521,10.563c-3.187,5.967-7.271,7.1-10.187,7.04-.088,0-.179,0-.269,0m.281-23.3a13,13,0,0,0-6.169,1.695,4.147,4.147,0,0,0-2.116,3.642V10a18.17,18.17,0,0,0,1.98,8.471c1.728,3.27,3.853,4.882,6.293,4.822,2.568.076,4.66-1.533,6.383-4.76A18.152,18.152,0,0,0,26.76,10,4.133,4.133,0,0,0,24.885,6.51a12.487,12.487,0,0,0-6.507-2.2" transform="translate(7.977 0)" fill="#fff"/>
        <path id="Trazado_150835" data-name="Trazado 150835" d="M13.2,31.594H2.156a2.156,2.156,0,0,1,0-4.313H13.2a2.156,2.156,0,1,1,0,4.313" transform="translate(0 37.65)" fill="#fff"/>
        <path id="Trazado_150836" data-name="Trazado 150836" d="M28.935,31.594H17.893a2.156,2.156,0,0,1,0-4.313H28.935a2.156,2.156,0,0,1,0,4.313" transform="translate(21.718 37.65)" fill="#fff"/>
        <path id="Trazado_150837" data-name="Trazado 150837" d="M37.113,111.693H15.7a4.661,4.661,0,0,1-4.655-4.655V60.547a7.726,7.726,0,0,1-4.11.743A7.863,7.863,0,0,1,0,53.412V25.741a13.215,13.215,0,0,1,13.2-13.2H39.612a13.21,13.21,0,0,1,13.2,13.193V53.416a7.86,7.86,0,0,1-6.928,7.873,7.73,7.73,0,0,1-4.113-.743v46.49a4.662,4.662,0,0,1-4.655,4.655M15.354,53.65v53.387a.344.344,0,0,0,.343.343H37.113a.344.344,0,0,0,.343-.343V53.65a2.156,2.156,0,1,1,4.313,0A3.367,3.367,0,0,0,45.471,57,3.519,3.519,0,0,0,48.5,53.416V25.734a8.892,8.892,0,0,0-8.885-8.88H13.2a8.9,8.9,0,0,0-8.885,8.887V53.412A3.524,3.524,0,0,0,7.34,57a3.367,3.367,0,0,0,3.7-3.349,2.156,2.156,0,1,1,4.313,0" transform="translate(0 17.308)" fill="#fff"/>
        <path id="Trazado_150838" data-name="Trazado 150838" d="M12.344,83.654A2.157,2.157,0,0,1,10.188,81.5V35.012a2.156,2.156,0,0,1,4.313,0V81.5a2.157,2.157,0,0,1-2.156,2.156" transform="translate(14.06 45.347)" fill="#fff"/>
        <path id="Trazado_150839" data-name="Trazado 150839" d="M50.818,4.313H26.777a2.156,2.156,0,1,1,0-4.313H50.818a2.156,2.156,0,1,1,0,4.313" transform="translate(33.979 0)" fill="#fff"/>
        <path id="Trazado_150840" data-name="Trazado 150840" d="M41.465,10.138H26.777a2.156,2.156,0,1,1,0-4.313H41.465a2.156,2.156,0,1,1,0,4.313" transform="translate(33.979 8.039)" fill="#fff"/>
        <path id="Trazado_150841" data-name="Trazado 150841" d="M50.818,15.964H26.777a2.156,2.156,0,1,1,0-4.313H50.818a2.156,2.156,0,1,1,0,4.313" transform="translate(33.979 16.079)" fill="#fff"/>
        <path id="Trazado_150842" data-name="Trazado 150842" d="M41.465,21.789H26.777a2.156,2.156,0,1,1,0-4.313H41.465a2.156,2.156,0,1,1,0,4.313" transform="translate(33.979 24.118)" fill="#fff"/>
        <path id="Trazado_150843" data-name="Trazado 150843" d="M50.818,27.614H26.777a2.156,2.156,0,1,1,0-4.313H50.818a2.156,2.156,0,1,1,0,4.313" transform="translate(33.979 32.157)" fill="#fff"/>
        <path id="Trazado_150844" data-name="Trazado 150844" d="M41.465,33.439H26.777a2.156,2.156,0,1,1,0-4.313H41.465a2.156,2.156,0,1,1,0,4.313" transform="translate(33.979 40.196)" fill="#fff"/>
        <path id="Trazado_150845" data-name="Trazado 150845" d="M50.818,39.264H26.777a2.156,2.156,0,1,1,0-4.313H50.818a2.156,2.156,0,1,1,0,4.313" transform="translate(33.979 48.235)" fill="#fff"/>
        <path id="Trazado_150846" data-name="Trazado 150846" d="M41.465,45.09H26.777a2.156,2.156,0,1,1,0-4.313H41.465a2.156,2.156,0,1,1,0,4.313" transform="translate(33.979 56.276)" fill="#fff"/>
        <path id="Trazado_150847" data-name="Trazado 150847" d="M50.818,50.915H26.777a2.156,2.156,0,1,1,0-4.313H50.818a2.156,2.156,0,1,1,0,4.313" transform="translate(33.979 64.315)" fill="#fff"/>
        <path id="Trazado_150848" data-name="Trazado 150848" d="M84.8,56.7H2.156a2.156,2.156,0,0,1,0-4.313H84.8a2.156,2.156,0,1,1,0,4.313" transform="translate(0 72.3)" fill="#fff"/>
      </g>
    </g>
  </g>
</svg>
