<svg xmlns="http://www.w3.org/2000/svg" width="125" height="125" viewBox="0 0 125 125">
  <g id="Grupo_157513" data-name="Grupo 157513" transform="translate(-717 -12468.722)">
    <path id="Trazado_149979" data-name="Trazado 149979" d="M255.846,178.022a62.5,62.5,0,1,1,62.786-62.212,62.571,62.571,0,0,1-62.786,62.212" transform="translate(523.368 12415.699)" fill="rgba(254,217,129,0)"/>
    <path id="Trazado_196196" data-name="Trazado 196196" d="M9.5,0H-9.352V-4.082l8.684-9.129q3.21-3.655,3.21-5.808a4.04,4.04,0,0,0-.761-2.653,2.716,2.716,0,0,0-2.208-.909,2.75,2.75,0,0,0-2.319,1.215,5,5,0,0,0-.891,3.034H-9.908a8.872,8.872,0,0,1,1.243-4.592,8.718,8.718,0,0,1,3.451-3.293A10.252,10.252,0,0,1-.278-27.405q4.379,0,6.745,2.022a7.22,7.22,0,0,1,2.366,5.808,8.433,8.433,0,0,1-.594,3.108,13.63,13.63,0,0,1-1.846,3.173A46.506,46.506,0,0,1,2.356-8.851L-1.132-4.824H9.5Z" transform="translate(780 12546.722)" fill="#12263f"/>
  </g>
</svg>
