<svg xmlns="http://www.w3.org/2000/svg" xmlns:xlink="http://www.w3.org/1999/xlink" width="463.99" height="280.001" viewBox="0 0 463.99 280.001">
  <defs>
    <clipPath id="clip-path">
      <rect id="Rectángulo_39331" data-name="Rectángulo 39331" width="463.99" height="280.001" fill="none"/>
    </clipPath>
  </defs>
  <g id="Grupo_145952" data-name="Grupo 145952" transform="translate(0 0.001)">
    <rect id="Rectángulo_39332" data-name="Rectángulo 39332" width="10.29" height="215.412" transform="translate(73.433 41.51)" fill="#2b9eb3"/>
    <rect id="Rectángulo_39333" data-name="Rectángulo 39333" width="10.29" height="145.45" transform="translate(73.433 111.473)" fill="#118696"/>
    <rect id="Rectángulo_39334" data-name="Rectángulo 39334" width="10.29" height="156.862" transform="translate(93.182 100.061)" fill="#39b54a"/>
    <rect id="Rectángulo_39335" data-name="Rectángulo 39335" width="10.29" height="100.416" transform="translate(93.182 156.506)" fill="#189624"/>
    <rect id="Rectángulo_39336" data-name="Rectángulo 39336" width="10.29" height="127.167" transform="translate(112.942 129.756)" fill="#fcab10"/>
    <rect id="Rectángulo_39337" data-name="Rectángulo 39337" width="10.29" height="76.661" transform="translate(112.942 180.262)" fill="#e8901a"/>
    <rect id="Rectángulo_39338" data-name="Rectángulo 39338" width="10.29" height="186.729" transform="translate(171.492 70.194)" fill="#2b9eb3"/>
    <rect id="Rectángulo_39339" data-name="Rectángulo 39339" width="10.29" height="126.085" transform="translate(171.492 130.838)" fill="#118696"/>
    <rect id="Rectángulo_39340" data-name="Rectángulo 39340" width="10.29" height="135.969" transform="translate(191.252 120.953)" fill="#39b54a"/>
    <rect id="Rectángulo_39341" data-name="Rectángulo 39341" width="10.29" height="87.041" transform="translate(191.252 169.882)" fill="#189624"/>
    <rect id="Rectángulo_39342" data-name="Rectángulo 39342" width="10.29" height="159.918" transform="translate(211.001 97.005)" fill="#fcab10"/>
    <rect id="Rectángulo_39343" data-name="Rectángulo 39343" width="10.29" height="96.41" transform="translate(211.001 160.513)" fill="#e8901a"/>
    <rect id="Rectángulo_39344" data-name="Rectángulo 39344" width="10.29" height="215.412" transform="translate(268.853 41.51)" fill="#2b9eb3"/>
    <rect id="Rectángulo_39345" data-name="Rectángulo 39345" width="10.29" height="145.45" transform="translate(268.853 111.473)" fill="#118696"/>
    <rect id="Rectángulo_39346" data-name="Rectángulo 39346" width="10.29" height="156.862" transform="translate(288.613 100.061)" fill="#39b54a"/>
    <rect id="Rectángulo_39347" data-name="Rectángulo 39347" width="10.29" height="100.416" transform="translate(288.613 156.506)" fill="#189624"/>
    <rect id="Rectángulo_39348" data-name="Rectángulo 39348" width="10.29" height="127.167" transform="translate(308.362 129.756)" fill="#fcab10"/>
    <rect id="Rectángulo_39349" data-name="Rectángulo 39349" width="10.29" height="76.661" transform="translate(308.362 180.262)" fill="#e8901a"/>
    <path id="Trazado_173125" data-name="Trazado 173125" d="M97.6,262.313h0Zm.555-12.333h0Zm41.819,12.333h.6V249.98h-.6Zm.59-12.333h0Zm42.374,0h0ZM224.8,262.313h.546V249.98H224.8Zm.546-12.333h0Zm42.418,0h0Zm41.819,12.333h.6V249.98h-.6Zm.6-12.333h0ZM12.783,7.685V57.5H1.2v.627H12.783V105.41H1.2v.637H12.783v47.32H1.2v.688H12.783v47.33H1.2v.627H12.783v47.664h.291v.3H55.192v12.333h.555V249.98H352.592l41.828-.04-.009-.6H13.329V10.174h1.153V9.547H13.329V7.685Z" transform="translate(10.914 8.071)" fill="#939598"/>
    <g id="Grupo_145951" data-name="Grupo 145951" transform="translate(0 0)">
      <g id="Grupo_145950" data-name="Grupo 145950" clip-path="url(#clip-path)">
        <path id="Trazado_173126" data-name="Trazado 173126" d="M2.534,31.277C1.168,31.277.49,32.2.49,33.87c0,1.64.678,2.551,2.044,2.551s1.993-.911,1.993-2.551S3.9,31.277,2.534,31.277m0,4.589c-.779,0-1.174-.555-1.174-2,0-1.474.395-2.038,1.174-2.038.728,0,1.123.563,1.123,2.038,0,1.441-.395,2-1.123,2" transform="translate(4.468 227.805)" fill="#939598"/>
        <path id="Trazado_173127" data-name="Trazado 173127" d="M.084,27.522.448,28l1.406-.7v4.233h.84V26.577H1.956Z" transform="translate(0.767 193.575)" fill="#939598"/>
        <path id="Trazado_173128" data-name="Trazado 173128" d="M2.534,26.57c-1.366,0-2.044.878-2.044,2.551,0,1.64.678,2.551,2.044,2.551s1.993-.911,1.993-2.551S3.9,26.57,2.534,26.57m0,4.548c-.779,0-1.174-.555-1.174-2,0-1.474.395-2.038,1.174-2.038.728,0,1.123.563,1.123,2.038,0,1.441-.395,2-1.123,2" transform="translate(4.468 193.522)" fill="#939598"/>
        <path id="Trazado_173129" data-name="Trazado 173129" d="M7.149,34.138l.364.48,1.406-.7v4.233h.83V33.194H9.021Z" transform="translate(57.182 241.768)" fill="#939598"/>
        <path id="Trazado_173130" data-name="Trazado 173130" d="M3.672,23.2c0-.77-.708-1.358-1.821-1.358A2.424,2.424,0,0,0,.02,22.6l.536.356a1.689,1.689,0,0,1,1.255-.547c.587,0,.992.306.992.828,0,.8-.526,1.276-2.661,3.1v.538H3.713l.1-.563H1.092c1.862-1.524,2.58-2.179,2.58-3.106" transform="translate(0.182 159.116)" fill="#939598"/>
        <path id="Trazado_173131" data-name="Trazado 173131" d="M2.534,21.844C1.168,21.844.49,22.763.49,24.4c0,1.682.678,2.593,2.044,2.593s1.993-.911,1.993-2.593c0-1.632-.627-2.551-1.993-2.551m0,4.589c-.779,0-1.174-.555-1.174-2.038,0-1.433.395-2,1.174-2,.728,0,1.123.563,1.123,2,0,1.483-.395,2.038-1.123,2.038" transform="translate(4.468 159.101)" fill="#939598"/>
        <path id="Trazado_173132" data-name="Trazado 173132" d="M20.437,34.543c0-.77-.708-1.358-1.821-1.358a2.424,2.424,0,0,0-1.831.754l.536.356a1.689,1.689,0,0,1,1.255-.547c.587,0,.992.307.992.82,0,.812-.526,1.284-2.661,3.106v.538h3.571l.1-.572H17.857c1.851-1.516,2.58-2.17,2.58-3.1" transform="translate(132.038 241.701)" fill="#939598"/>
        <path id="Trazado_173133" data-name="Trazado 173133" d="M1.8,21.624a1.89,1.89,0,0,1-1.3-.489l-.5.373a2.5,2.5,0,0,0,1.821.671c1.255,0,2.054-.654,2.054-1.516,0-.754-.6-1.143-1.356-1.2C3.2,19.33,3.7,18.949,3.7,18.319c0-.663-.637-1.259-1.791-1.259a2.765,2.765,0,0,0-1.73.588l.435.406a1.88,1.88,0,0,1,1.244-.447c.607,0,1,.29,1,.762,0,.572-.5.87-1.093.87h-.3l-.1.53h.455c.728,0,1.2.207,1.2.886,0,.588-.465.969-1.224.969" transform="translate(0.064 124.258)" fill="#939598"/>
        <path id="Trazado_173134" data-name="Trazado 173134" d="M2.534,17.06c-1.366,0-2.044.919-2.044,2.551s.678,2.56,2.044,2.56,1.993-.919,1.993-2.56S3.9,17.06,2.534,17.06m0,4.589c-.779,0-1.174-.6-1.174-2.038s.395-2.029,1.174-2.029c.728,0,1.123.6,1.123,2.029s-.395,2.038-1.123,2.038" transform="translate(4.468 124.258)" fill="#939598"/>
        <path id="Trazado_173135" data-name="Trazado 173135" d="M28.949,35.587c.678-.133,1.174-.514,1.174-1.143,0-.663-.627-1.259-1.791-1.259a2.786,2.786,0,0,0-1.73.588l.435.406a1.95,1.95,0,0,1,1.255-.447c.607,0,1,.29,1,.762,0,.58-.5.87-1.093.87h-.314l-.091.53h.445c.739,0,1.2.207,1.2.886,0,.588-.465.969-1.224.969a1.866,1.866,0,0,1-1.285-.489l-.5.381a2.521,2.521,0,0,0,1.811.663c1.255,0,2.064-.654,2.064-1.516,0-.754-.607-1.143-1.366-1.2" transform="translate(208.067 241.701)" fill="#939598"/>
        <path id="Trazado_173136" data-name="Trazado 173136" d="M3.39,14.172H2.661L2.59,15.506H.87l1.639-3.032-.7-.232L0,15.555v.489H2.58V17.27H3.39V16.044h.789v-.538H3.39Z" transform="translate(0.003 89.167)" fill="#939598"/>
        <path id="Trazado_173137" data-name="Trazado 173137" d="M2.534,12.243c-1.366,0-2.044.919-2.044,2.551s.678,2.551,2.044,2.551,1.993-.911,1.993-2.551S3.9,12.243,2.534,12.243m0,4.548c-.779,0-1.174-.555-1.174-2,0-1.474.395-2.038,1.174-2.038.728,0,1.123.563,1.123,2.038,0,1.441-.395,2-1.123,2" transform="translate(4.468 89.174)" fill="#939598"/>
        <path id="Trazado_173138" data-name="Trazado 173138" d="M39.4,35.115h-.728L38.6,36.449h-1.72l1.639-3.032-.7-.232L36.014,36.5v.489h2.58v1.226H39.4V36.987h.789v-.538H39.4Z" transform="translate(282.362 241.704)" fill="#939598"/>
      </g>
    </g>
  </g>
</svg>
