<svg xmlns="http://www.w3.org/2000/svg" width="125" height="125" viewBox="0 0 125 125">
  <g id="Grupo_157514" data-name="Grupo 157514" transform="translate(-895 -12469.722)">
    <path id="Trazado_149981" data-name="Trazado 149981" d="M394.843,178.66a62.5,62.5,0,1,1,62.786-62.213,62.571,62.571,0,0,1-62.786,62.213" transform="translate(562.371 12416.062)" fill="rgba(255,222,150,0)"/>
    <path id="Trazado_196197" data-name="Trazado 196197" d="M-3.637-16.124h2.95q3.507,0,3.507-3.433a2.968,2.968,0,0,0-.835-2.18,3.166,3.166,0,0,0-2.356-.844,3.39,3.39,0,0,0-2.162.724,2.208,2.208,0,0,0-.918,1.8H-9.7a6.4,6.4,0,0,1,1.188-3.8,7.842,7.842,0,0,1,3.293-2.607,11.26,11.26,0,0,1,4.629-.937,11.064,11.064,0,0,1,7.088,2.06,6.847,6.847,0,0,1,2.579,5.659,5.707,5.707,0,0,1-1.067,3.293A7.6,7.6,0,0,1,4.9-13.879a7.263,7.263,0,0,1,3.377,2.366A6.23,6.23,0,0,1,9.5-7.589,6.971,6.971,0,0,1,6.717-1.8,11.553,11.553,0,0,1-.594.371,11.981,11.981,0,0,1-5.52-.64a7.718,7.718,0,0,1-3.442-2.8,7.284,7.284,0,0,1-1.169-4.073h6.29a2.815,2.815,0,0,0,1,2.152,3.537,3.537,0,0,0,2.468.909,3.705,3.705,0,0,0,2.635-.918,3.07,3.07,0,0,0,.983-2.347,3.589,3.589,0,0,0-1.021-2.895,4.266,4.266,0,0,0-2.82-.854H-3.637Z" transform="translate(957 12546.722)" fill="#12263f"/>
  </g>
</svg>
