<svg xmlns="http://www.w3.org/2000/svg" xmlns:xlink="http://www.w3.org/1999/xlink" width="400" height="454" viewBox="0 0 400 454">
  <defs>
    <clipPath id="clip-path">
      <rect id="Rect치ngulo_38817" data-name="Rect치ngulo 38817" width="85.404" height="93.52" fill="#fff"/>
    </clipPath>
  </defs>
  <g id="Grupo_157512" data-name="Grupo 157512" transform="translate(-180 -820.786)">
    <rect id="Rect치ngulo_38813" data-name="Rect치ngulo 38813" width="400" height="454" rx="10" transform="translate(180 820.786)" fill="#ff8578"/>
    <g id="Grupo_157511" data-name="Grupo 157511">
      <path id="Trazado_196192" data-name="Trazado 196192" d="M9.306,14.882h5.6V17H6.669V4.2H9.306Zm6.548-2.725A5.64,5.64,0,0,1,16.4,9.635a3.989,3.989,0,0,1,1.569-1.714,4.577,4.577,0,0,1,2.377-.606,4.33,4.33,0,0,1,3.142,1.178,4.727,4.727,0,0,1,1.358,3.2l.018.65a4.97,4.97,0,0,1-1.222,3.511,4.247,4.247,0,0,1-3.278,1.323,4.268,4.268,0,0,1-3.283-1.318,5.058,5.058,0,0,1-1.226-3.586Zm2.54.18a3.555,3.555,0,0,0,.51,2.073,1.831,1.831,0,0,0,2.9.009,3.89,3.89,0,0,0,.519-2.267,3.519,3.519,0,0,0-.519-2.06,1.686,1.686,0,0,0-1.459-.731,1.658,1.658,0,0,0-1.441.726A3.955,3.955,0,0,0,18.394,12.338Zm13.184,2.035a.818.818,0,0,0-.461-.734,5.241,5.241,0,0,0-1.481-.479q-3.393-.712-3.393-2.883a2.613,2.613,0,0,1,1.05-2.114,4.237,4.237,0,0,1,2.747-.848,4.56,4.56,0,0,1,2.9.853,2.687,2.687,0,0,1,1.085,2.215H31.48a1.229,1.229,0,0,0-.352-.9,1.488,1.488,0,0,0-1.1-.356,1.52,1.52,0,0,0-.993.29.916.916,0,0,0-.352.738.783.783,0,0,0,.4.681,4.114,4.114,0,0,0,1.349.448,11.019,11.019,0,0,1,1.6.426,2.628,2.628,0,0,1,2.013,2.558,2.481,2.481,0,0,1-1.116,2.1,4.815,4.815,0,0,1-2.883.8,5.029,5.029,0,0,1-2.123-.426,3.561,3.561,0,0,1-1.455-1.169,2.716,2.716,0,0,1-.527-1.6h2.408a1.326,1.326,0,0,0,.5,1.037,1.987,1.987,0,0,0,1.248.36,1.839,1.839,0,0,0,1.1-.277A.861.861,0,0,0,31.577,14.372Zm17.147-2.039a5.7,5.7,0,0,1-1,3.52,3.2,3.2,0,0,1-2.694,1.323,2.963,2.963,0,0,1-2.329-1v4.482h-2.54V7.49H42.52l.088.932a2.985,2.985,0,0,1,2.408-1.107,3.22,3.22,0,0,1,2.733,1.3,5.858,5.858,0,0,1,.976,3.586Zm-2.54-.194a3.763,3.763,0,0,0-.47-2.054,1.53,1.53,0,0,0-1.367-.723,1.662,1.662,0,0,0-1.644.917v3.906a1.691,1.691,0,0,0,1.661.943Q46.185,15.128,46.185,12.139Zm9.457-2.267a6.9,6.9,0,0,0-.914-.07,1.86,1.86,0,0,0-1.89.976V17H50.3V7.49h2.4l.07,1.134a2.354,2.354,0,0,1,2.118-1.31,2.662,2.662,0,0,1,.791.114Zm.51,2.285A5.64,5.64,0,0,1,56.7,9.635a3.989,3.989,0,0,1,1.569-1.714,4.577,4.577,0,0,1,2.377-.606,4.33,4.33,0,0,1,3.142,1.178,4.727,4.727,0,0,1,1.358,3.2l.018.65a4.97,4.97,0,0,1-1.222,3.511,4.735,4.735,0,0,1-6.561,0,5.058,5.058,0,0,1-1.226-3.586Zm2.54.18a3.555,3.555,0,0,0,.51,2.073,1.831,1.831,0,0,0,2.9.009,3.89,3.89,0,0,0,.519-2.267,3.519,3.519,0,0,0-.519-2.06,1.686,1.686,0,0,0-1.459-.731,1.658,1.658,0,0,0-1.441.726A3.955,3.955,0,0,0,58.691,12.338Zm11.988,2.79a1.666,1.666,0,0,0,1.143-.387,1.355,1.355,0,0,0,.457-1.028h2.382a3.258,3.258,0,0,1-.527,1.771,3.48,3.48,0,0,1-1.419,1.248,4.442,4.442,0,0,1-1.991.444,4.129,4.129,0,0,1-3.217-1.3A5.13,5.13,0,0,1,66.329,12.3v-.167A5.071,5.071,0,0,1,67.5,8.624a4.08,4.08,0,0,1,3.208-1.31A4,4,0,0,1,73.567,8.33a3.594,3.594,0,0,1,1.094,2.7H72.279a1.745,1.745,0,0,0-.457-1.206,1.7,1.7,0,0,0-2.5.183,3.749,3.749,0,0,0-.453,2.1v.264a3.8,3.8,0,0,0,.448,2.113A1.549,1.549,0,0,0,70.68,15.128Zm9.809,2.048a4.668,4.668,0,0,1-3.406-1.283,4.561,4.561,0,0,1-1.314-3.419v-.246a5.745,5.745,0,0,1,.554-2.562,4.064,4.064,0,0,1,1.569-1.74,4.4,4.4,0,0,1,2.316-.611,3.947,3.947,0,0,1,3.072,1.23A5,5,0,0,1,84.4,12.034v1.037H78.344a2.36,2.36,0,0,0,.743,1.494,2.245,2.245,0,0,0,1.569.563,2.742,2.742,0,0,0,2.294-1.063l1.248,1.4a3.813,3.813,0,0,1-1.547,1.261A5.075,5.075,0,0,1,80.488,17.176ZM80.2,9.362a1.587,1.587,0,0,0-1.226.512,2.651,2.651,0,0,0-.6,1.466H81.9v-.2a1.891,1.891,0,0,0-.457-1.311A1.638,1.638,0,0,0,80.2,9.362Zm10.793,5.01a.818.818,0,0,0-.461-.734,5.241,5.241,0,0,0-1.481-.479q-3.393-.712-3.393-2.883a2.613,2.613,0,0,1,1.05-2.114,4.237,4.237,0,0,1,2.747-.848,4.56,4.56,0,0,1,2.9.853,2.687,2.687,0,0,1,1.085,2.215h-2.54a1.229,1.229,0,0,0-.352-.9,1.488,1.488,0,0,0-1.1-.356,1.52,1.52,0,0,0-.993.29.916.916,0,0,0-.352.738.783.783,0,0,0,.4.681,4.114,4.114,0,0,0,1.349.448,11.019,11.019,0,0,1,1.6.426,2.628,2.628,0,0,1,2.013,2.558,2.481,2.481,0,0,1-1.116,2.1,4.815,4.815,0,0,1-2.883.8,5.029,5.029,0,0,1-2.123-.426,3.561,3.561,0,0,1-1.455-1.169,2.716,2.716,0,0,1-.527-1.6h2.408a1.326,1.326,0,0,0,.5,1.037,1.987,1.987,0,0,0,1.248.36,1.839,1.839,0,0,0,1.1-.277A.861.861,0,0,0,90.991,14.372ZM100.606,17a2.821,2.821,0,0,1-.255-.853,3.073,3.073,0,0,1-2.4,1.028,3.376,3.376,0,0,1-2.316-.809,2.6,2.6,0,0,1-.918-2.039,2.687,2.687,0,0,1,1.121-2.32,5.529,5.529,0,0,1,3.239-.817h1.169v-.545a1.567,1.567,0,0,0-.338-1.055,1.331,1.331,0,0,0-1.068-.4,1.513,1.513,0,0,0-1.006.308,1.045,1.045,0,0,0-.365.844h-2.54a2.551,2.551,0,0,1,.51-1.529,3.37,3.37,0,0,1,1.441-1.1,5.253,5.253,0,0,1,2.092-.4,4.15,4.15,0,0,1,2.791.883,3.09,3.09,0,0,1,1.033,2.483V14.8a4.546,4.546,0,0,0,.378,2.048V17Zm-2.1-1.767a2.188,2.188,0,0,0,1.037-.25,1.645,1.645,0,0,0,.7-.672V12.676H99.3q-1.907,0-2.03,1.318l-.009.149a1.017,1.017,0,0,0,.334.782A1.3,1.3,0,0,0,98.506,15.233Zm5.845-3.059a5.731,5.731,0,0,1,1-3.542,3.237,3.237,0,0,1,2.729-1.318,2.913,2.913,0,0,1,2.294,1.037V3.5h2.549V17h-2.294l-.123-1.011a2.989,2.989,0,0,1-2.443,1.187,3.228,3.228,0,0,1-2.694-1.323A5.916,5.916,0,0,1,104.351,12.175Zm2.54.181a3.775,3.775,0,0,0,.466,2.057,1.516,1.516,0,0,0,1.354.715,1.7,1.7,0,0,0,1.661-1V10.36a1.675,1.675,0,0,0-1.644-1Q106.891,9.362,106.891,12.356Zm7.6-.2a5.64,5.64,0,0,1,.545-2.522,3.989,3.989,0,0,1,1.569-1.714,4.577,4.577,0,0,1,2.377-.606,4.33,4.33,0,0,1,3.142,1.178,4.727,4.727,0,0,1,1.358,3.2l.018.65a4.97,4.97,0,0,1-1.222,3.511,4.735,4.735,0,0,1-6.561,0,5.058,5.058,0,0,1-1.226-3.586Zm2.54.18a3.555,3.555,0,0,0,.51,2.073,1.831,1.831,0,0,0,2.9.009,3.89,3.89,0,0,0,.519-2.267,3.519,3.519,0,0,0-.519-2.06,1.686,1.686,0,0,0-1.459-.731,1.658,1.658,0,0,0-1.441.726A3.955,3.955,0,0,0,117.033,12.338ZM130.41,9.872a6.9,6.9,0,0,0-.914-.07,1.86,1.86,0,0,0-1.89.976V17h-2.54V7.49h2.4l.07,1.134a2.354,2.354,0,0,1,2.118-1.31,2.662,2.662,0,0,1,.791.114Zm5.432,7.3a4.668,4.668,0,0,1-3.406-1.283,4.561,4.561,0,0,1-1.314-3.419v-.246a5.745,5.745,0,0,1,.554-2.562,4.064,4.064,0,0,1,1.569-1.74,4.4,4.4,0,0,1,2.316-.611,3.947,3.947,0,0,1,3.072,1.23,5,5,0,0,1,1.121,3.489v1.037H133.7a2.36,2.36,0,0,0,.743,1.494,2.245,2.245,0,0,0,1.569.563,2.742,2.742,0,0,0,2.294-1.063l1.248,1.4A3.813,3.813,0,0,1,138,16.723,5.075,5.075,0,0,1,135.842,17.176Zm-.29-7.813a1.587,1.587,0,0,0-1.226.512,2.651,2.651,0,0,0-.6,1.466h3.533v-.2a1.891,1.891,0,0,0-.457-1.311A1.638,1.638,0,0,0,135.552,9.362Zm10.793,5.01a.818.818,0,0,0-.461-.734,5.241,5.241,0,0,0-1.481-.479q-3.393-.712-3.393-2.883a2.613,2.613,0,0,1,1.05-2.114,4.237,4.237,0,0,1,2.747-.848,4.56,4.56,0,0,1,2.9.853,2.687,2.687,0,0,1,1.085,2.215h-2.54a1.229,1.229,0,0,0-.352-.9,1.488,1.488,0,0,0-1.1-.356,1.52,1.52,0,0,0-.993.29.916.916,0,0,0-.352.738.783.783,0,0,0,.4.681,4.114,4.114,0,0,0,1.349.448,11.019,11.019,0,0,1,1.6.426,2.628,2.628,0,0,1,2.013,2.558,2.481,2.481,0,0,1-1.116,2.1,4.815,4.815,0,0,1-2.883.8,5.029,5.029,0,0,1-2.123-.426,3.561,3.561,0,0,1-1.455-1.169,2.716,2.716,0,0,1-.527-1.6h2.408a1.326,1.326,0,0,0,.5,1.037,1.987,1.987,0,0,0,1.248.36,1.839,1.839,0,0,0,1.1-.277A.861.861,0,0,0,146.345,14.372ZM45.42,36.175a5.731,5.731,0,0,1,1-3.542,3.237,3.237,0,0,1,2.729-1.318,2.913,2.913,0,0,1,2.294,1.037V27.5h2.549V41H51.7l-.123-1.011a2.989,2.989,0,0,1-2.443,1.187,3.228,3.228,0,0,1-2.694-1.323A5.916,5.916,0,0,1,45.42,36.175Zm2.54.181a3.775,3.775,0,0,0,.466,2.057,1.516,1.516,0,0,0,1.354.715,1.7,1.7,0,0,0,1.661-1V34.36a1.675,1.675,0,0,0-1.644-1Q47.96,33.362,47.96,36.356Zm12.375,4.82a4.668,4.668,0,0,1-3.406-1.283,4.561,4.561,0,0,1-1.314-3.419v-.246a5.745,5.745,0,0,1,.554-2.562,4.064,4.064,0,0,1,1.569-1.74,4.4,4.4,0,0,1,2.316-.611,3.947,3.947,0,0,1,3.072,1.23,5,5,0,0,1,1.121,3.489v1.037H58.19a2.36,2.36,0,0,0,.743,1.494,2.245,2.245,0,0,0,1.569.563A2.742,2.742,0,0,0,62.8,38.064l1.248,1.4A3.813,3.813,0,0,1,62.5,40.723,5.075,5.075,0,0,1,60.335,41.176Zm-.29-7.813a1.587,1.587,0,0,0-1.226.512,2.651,2.651,0,0,0-.6,1.466H61.75v-.2a1.891,1.891,0,0,0-.457-1.311A1.638,1.638,0,0,0,60.045,33.362Zm13.166-4.21V31.49h1.626v1.863H73.211V38.1a1.133,1.133,0,0,0,.2.756,1.015,1.015,0,0,0,.773.229,4.051,4.051,0,0,0,.747-.062v1.925a5.229,5.229,0,0,1-1.538.229,2.425,2.425,0,0,1-2.725-2.7V33.354H69.282V31.49h1.389V29.152Zm7.418,12.023a4.668,4.668,0,0,1-3.406-1.283,4.561,4.561,0,0,1-1.314-3.419v-.246a5.745,5.745,0,0,1,.554-2.562,4.064,4.064,0,0,1,1.569-1.74,4.4,4.4,0,0,1,2.316-.611,3.947,3.947,0,0,1,3.072,1.23,5,5,0,0,1,1.121,3.489v1.037H78.484a2.36,2.36,0,0,0,.743,1.494,2.245,2.245,0,0,0,1.569.563,2.742,2.742,0,0,0,2.294-1.063l1.248,1.4a3.813,3.813,0,0,1-1.547,1.261A5.075,5.075,0,0,1,80.629,41.176Zm-.29-7.813a1.587,1.587,0,0,0-1.226.512,2.651,2.651,0,0,0-.6,1.466h3.533v-.2a1.891,1.891,0,0,0-.457-1.311A1.638,1.638,0,0,0,80.339,33.362Zm9.264.967,1.6-2.839h2.716l-2.707,4.658L94.032,41H91.308l-1.7-2.988L87.924,41H85.19l2.821-4.852-2.7-4.658h2.725Zm8.578-5.177V31.49h1.626v1.863H98.181V38.1a1.133,1.133,0,0,0,.2.756,1.015,1.015,0,0,0,.773.229,4.051,4.051,0,0,0,.747-.062v1.925a5.229,5.229,0,0,1-1.538.229,2.425,2.425,0,0,1-2.725-2.7V33.354H94.252V31.49h1.389V29.152Zm2.382,7a5.64,5.64,0,0,1,.545-2.522,3.989,3.989,0,0,1,1.569-1.714,4.577,4.577,0,0,1,2.377-.606,4.33,4.33,0,0,1,3.142,1.178,4.727,4.727,0,0,1,1.358,3.2l.018.65a4.97,4.97,0,0,1-1.222,3.511,4.735,4.735,0,0,1-6.561,0,5.058,5.058,0,0,1-1.226-3.586Zm2.54.18a3.555,3.555,0,0,0,.51,2.073,1.831,1.831,0,0,0,2.9.009,3.89,3.89,0,0,0,.519-2.267,3.519,3.519,0,0,0-.519-2.06,1.686,1.686,0,0,0-1.459-.731,1.658,1.658,0,0,0-1.441.726A3.955,3.955,0,0,0,103.1,36.338Z" transform="translate(306 1095.786)" fill="#12263f"/>
      <g id="Grupo_145423" data-name="Grupo 145423" transform="translate(340.798 965.307)">
        <g id="Grupo_145422" data-name="Grupo 145422" transform="translate(0 0)" clip-path="url(#clip-path)">
          <path id="Trazado_150883" data-name="Trazado 150883" d="M33.153,60.784a1.578,1.578,0,0,1-.7-.164,1.6,1.6,0,0,1-.895-1.434V44.425a1.6,1.6,0,0,1,1.6-1.6H52.2a1.6,1.6,0,0,1,.981,2.86c-5.754,4.485-13.233,10.272-19.052,14.764a1.589,1.589,0,0,1-.976.333m1.6-14.761v9.909c4.074-3.149,8.656-6.7,12.79-9.909Z" transform="translate(24.12 32.735)" fill="#fff"/>
          <path id="Trazado_150884" data-name="Trazado 150884" d="M52.931,90.9H7.278a1.6,1.6,0,0,1-1.6-1.6V63.486a1.6,1.6,0,1,1,3.2,0V87.708H52.383c5.486-4.275,12.423-9.644,18-13.948V6.621H7.278a1.6,1.6,0,1,1,0-3.2h64.7a1.6,1.6,0,0,1,1.6,1.6V74.545a1.6,1.6,0,0,1-.621,1.265C67.14,80.3,59.664,86.083,53.914,90.568a1.608,1.608,0,0,1-.983.337" transform="translate(4.341 2.616)" fill="#fff"/>
          <path id="Trazado_150885" data-name="Trazado 150885" d="M49.7,12.309H16.087a1.6,1.6,0,1,1,0-3.2H49.7a1.6,1.6,0,1,1,0,3.2" transform="translate(11.075 6.964)" fill="#fff"/>
          <path id="Trazado_150886" data-name="Trazado 150886" d="M57.738,16.947H13.448a1.6,1.6,0,0,1,0-3.2h44.29a1.6,1.6,0,1,1,0,3.2" transform="translate(9.057 10.51)" fill="#fff"/>
          <path id="Trazado_150887" data-name="Trazado 150887" d="M56.556,21.586H14.994a1.6,1.6,0,0,1,0-3.2H56.556a1.6,1.6,0,1,1,0,3.2" transform="translate(10.239 14.056)" fill="#fff"/>
          <path id="Trazado_150888" data-name="Trazado 150888" d="M55.373,26.225H16.541a1.6,1.6,0,0,1,0-3.2H55.373a1.6,1.6,0,1,1,0,3.2" transform="translate(11.422 17.602)" fill="#fff"/>
          <path id="Trazado_150889" data-name="Trazado 150889" d="M53.009,30.864H19.634a1.6,1.6,0,1,1,0-3.2H53.009a1.6,1.6,0,1,1,0,3.2" transform="translate(13.786 21.148)" fill="#fff"/>
          <path id="Trazado_150890" data-name="Trazado 150890" d="M53.009,35.5H19.634a1.6,1.6,0,1,1,0-3.2H53.009a1.6,1.6,0,1,1,0,3.2" transform="translate(13.786 24.694)" fill="#fff"/>
          <path id="Trazado_150891" data-name="Trazado 150891" d="M34.041,47.431H12.676a1.6,1.6,0,1,1,0-3.2H34.041a1.6,1.6,0,1,1,0,3.2" transform="translate(8.467 33.812)" fill="#fff"/>
          <path id="Trazado_150892" data-name="Trazado 150892" d="M17.626,66.275A1.6,1.6,0,0,1,16.087,65.1L2.158,14.563A6.178,6.178,0,0,1,14.069,11.28L28,61.818a1.6,1.6,0,0,1-1.117,1.966l-8.831,2.433a1.6,1.6,0,0,1-.425.058M8.112,9.941a2.983,2.983,0,0,0-2.874,3.774l13.506,49,5.747-1.584-13.5-49a2.985,2.985,0,0,0-2.874-2.19" transform="translate(1.479 5.155)" fill="#fff"/>
          <path id="Trazado_150893" data-name="Trazado 150893" d="M18.993,52.79a1.6,1.6,0,0,1-1.274-.633l-7.472-9.868a1.6,1.6,0,0,1,.852-2.505l8.827-2.433a1.6,1.6,0,0,1,2.013,1.717l-1.357,12.3a1.6,1.6,0,0,1-1.59,1.422M14.22,42.239l3.624,4.789.66-5.969Z" transform="translate(7.584 28.505)" fill="#fff"/>
          <path id="Trazado_150894" data-name="Trazado 150894" d="M6.274,38.85a1.6,1.6,0,0,1-1.54-1.175L.282,21.518A7.736,7.736,0,0,1,5.683,12a1.6,1.6,0,1,1,.849,3.082,4.54,4.54,0,0,0-3.169,5.583L7.816,36.826A1.6,1.6,0,0,1,6.274,38.85" transform="translate(0 9.13)" fill="#fff"/>
          <path id="Trazado_150895" data-name="Trazado 150895" d="M76.22,87.481H57.461a1.6,1.6,0,0,1-.979-2.862c3.643-2.823,7.382-5.715,10.653-8.242V9.238H11.522a1.6,1.6,0,0,1-1.6-1.6V1.6a1.6,1.6,0,0,1,1.6-1.6h64.7a1.6,1.6,0,0,1,1.6,1.6V85.882a1.6,1.6,0,0,1-1.6,1.6m-14.085-3.2H74.622V3.2H13.12V6.041H68.734a1.6,1.6,0,0,1,1.6,1.6V77.162a1.6,1.6,0,0,1-.623,1.265c-2.331,1.8-4.928,3.808-7.575,5.856" transform="translate(7.585 -0.001)" fill="#fff"/>
        </g>
      </g>
    </g>
  </g>
</svg>
