<svg xmlns="http://www.w3.org/2000/svg" width="385.606" height="385.608" viewBox="0 0 385.606 385.608">
  <g id="Grupo_157512" data-name="Grupo 157512" transform="translate(5781.816 8496.435)">
    <path id="Trazado_151337" data-name="Trazado 151337" d="M390.606,206.543,217.235,379.916a19.433,19.433,0,0,1-27.481,0L16.379,206.543a19.435,19.435,0,0,1,0-27.479L189.754,5.692a19.43,19.43,0,0,1,27.481,0L390.606,179.065a19.431,19.431,0,0,1,0,27.479" transform="translate(-5792.506 -8496.434)" fill="#ffc743"/>
    <g id="Grupo_145564" data-name="Grupo 145564" transform="translate(-6374.911 -13063.876)">
      <path id="Trazado_151327" data-name="Trazado 151327" d="M605.769,249.5a1.9,1.9,0,1,1,1.9,1.9,1.9,1.9,0,0,1-1.9-1.9" transform="translate(183.549 4497.132)" fill="none" stroke="#12263f" stroke-width="2"/>
      <path id="Trazado_151332" data-name="Trazado 151332" d="M530.179,44.758v192.6H346.413V0h139Z" transform="translate(352.923 4658.83)" fill="none" stroke="#12263f" stroke-width="2"/>
      <rect id="Rectángulo_38908" data-name="Rectángulo 38908" width="13.384" height="47.844" transform="translate(723.341 4784.091)" fill="none" stroke="#12263f" stroke-width="2"/>
      <rect id="Rectángulo_38909" data-name="Rectángulo 38909" width="13.384" height="54.27" transform="translate(743.736 4777.666)" fill="none" stroke="#12263f" stroke-width="2"/>
      <rect id="Rectángulo_38910" data-name="Rectángulo 38910" width="13.384" height="65.539" transform="translate(764.132 4766.396)" fill="none" stroke="#12263f" stroke-width="2"/>
      <rect id="Rectángulo_38911" data-name="Rectángulo 38911" width="13.384" height="61.091" transform="translate(784.526 4770.844)" fill="none" stroke="#12263f" stroke-width="2"/>
      <rect id="Rectángulo_38912" data-name="Rectángulo 38912" width="13.384" height="74.436" transform="translate(804.922 4757.5)" fill="none" stroke="#12263f" stroke-width="2"/>
      <rect id="Rectángulo_38913" data-name="Rectángulo 38913" width="13.384" height="67.615" transform="translate(825.316 4764.32)" fill="none" stroke="#12263f" stroke-width="2"/>
      <rect id="Rectángulo_38914" data-name="Rectángulo 38914" width="13.384" height="84.519" transform="translate(845.712 4747.416)" fill="none" stroke="#12263f" stroke-width="2"/>
      <rect id="Rectángulo_38915" data-name="Rectángulo 38915" width="24.122" height="8.126" transform="translate(723.341 4839.149)" fill="none" stroke="#12263f" stroke-width="2"/>
      <rect id="Rectángulo_38916" data-name="Rectángulo 38916" width="24.122" height="8.126" transform="translate(751.249 4839.149)" fill="none" stroke="#12263f" stroke-width="2"/>
      <rect id="Rectángulo_38917" data-name="Rectángulo 38917" width="24.122" height="8.126" transform="translate(779.157 4839.149)" fill="none" stroke="#12263f" stroke-width="2"/>
      <rect id="Rectángulo_38918" data-name="Rectángulo 38918" width="24.122" height="8.126" transform="translate(807.066 4839.149)" fill="none" stroke="#12263f" stroke-width="2"/>
      <rect id="Rectángulo_38919" data-name="Rectángulo 38919" width="24.122" height="8.126" transform="translate(834.975 4839.149)" fill="none" stroke="#12263f" stroke-width="2"/>
      <rect id="Rectángulo_38920" data-name="Rectángulo 38920" width="24.122" height="8.126" transform="translate(723.341 4854.489)" fill="none" stroke="#12263f" stroke-width="2"/>
      <rect id="Rectángulo_38921" data-name="Rectángulo 38921" width="24.122" height="8.126" transform="translate(751.249 4854.489)" fill="none" stroke="#12263f" stroke-width="2"/>
      <rect id="Rectángulo_38922" data-name="Rectángulo 38922" width="24.122" height="8.126" transform="translate(779.157 4854.489)" fill="none" stroke="#12263f" stroke-width="2"/>
      <rect id="Rectángulo_38923" data-name="Rectángulo 38923" width="24.122" height="8.126" transform="translate(807.066 4854.489)" fill="none" stroke="#12263f" stroke-width="2"/>
      <rect id="Rectángulo_38924" data-name="Rectángulo 38924" width="24.122" height="8.126" transform="translate(834.975 4854.489)" fill="none" stroke="#12263f" stroke-width="2"/>
      <rect id="Rectángulo_38925" data-name="Rectángulo 38925" width="24.122" height="8.126" transform="translate(723.341 4869.829)" fill="none" stroke="#12263f" stroke-width="2"/>
      <rect id="Rectángulo_38926" data-name="Rectángulo 38926" width="24.122" height="8.126" transform="translate(751.249 4869.829)" fill="none" stroke="#12263f" stroke-width="2"/>
      <rect id="Rectángulo_38927" data-name="Rectángulo 38927" width="24.122" height="8.126" transform="translate(779.157 4869.829)" fill="none" stroke="#12263f" stroke-width="2"/>
      <rect id="Rectángulo_38928" data-name="Rectángulo 38928" width="24.122" height="8.126" transform="translate(807.066 4869.829)" fill="none" stroke="#12263f" stroke-width="2"/>
      <rect id="Rectángulo_38929" data-name="Rectángulo 38929" width="24.122" height="8.126" transform="translate(834.975 4869.829)" fill="none" stroke="#12263f" stroke-width="2"/>
      <path id="Trazado_151333" data-name="Trazado 151333" d="M791.83,44.758H747.068V0Z" transform="translate(91.272 4658.83)" fill="none" stroke="#12263f" stroke-width="2"/>
      <rect id="Rectángulo_38930" data-name="Rectángulo 38930" width="89.15" height="43.83" transform="translate(686.463 4697.931)" fill="#ffc743" stroke="#12263f" stroke-width="2"/>
      <path id="Trazado_151334" data-name="Trazado 151334" d="M345.052,165.134l8.3-12.677-7.523-11.617h5.734l4.872,7.806,4.773-7.806h5.684l-7.557,11.8,8.3,12.5h-5.916l-5.386-8.4-5.4,8.4Z" transform="translate(353.812 4566.85)" fill="none" stroke="#12263f" stroke-width="2"/>
      <path id="Trazado_151335" data-name="Trazado 151335" d="M417.8,165.508v-24.1H422.7v20h12.2v4.093Z" transform="translate(306.305 4566.476)" fill="none" stroke="#12263f" stroke-width="2"/>
      <path id="Trazado_151336" data-name="Trazado 151336" d="M473.588,156.45l4.773-.464a5.823,5.823,0,0,0,1.749,3.53,5.284,5.284,0,0,0,3.554,1.127,5.463,5.463,0,0,0,3.571-1,2.984,2.984,0,0,0,1.2-2.345,2.213,2.213,0,0,0-.505-1.467,4.041,4.041,0,0,0-1.765-1.052q-.862-.3-3.927-1.061a13.323,13.323,0,0,1-5.535-2.4,6.321,6.321,0,0,1-2.237-4.889,6.246,6.246,0,0,1,1.052-3.472,6.586,6.586,0,0,1,3.033-2.461,12.153,12.153,0,0,1,4.781-.845q4.574,0,6.885,2.005A7.076,7.076,0,0,1,492.646,147l-4.905.215a4.165,4.165,0,0,0-1.351-2.693,4.946,4.946,0,0,0-3.107-.82,5.6,5.6,0,0,0-3.348.878,1.77,1.77,0,0,0-.779,1.508,1.867,1.867,0,0,0,.729,1.475,12.894,12.894,0,0,0,4.508,1.624,23.8,23.8,0,0,1,5.295,1.748,6.826,6.826,0,0,1,2.685,2.469,7.649,7.649,0,0,1-.191,7.781,6.95,6.95,0,0,1-3.281,2.71,13.764,13.764,0,0,1-5.286.886q-4.607,0-7.076-2.13a9.263,9.263,0,0,1-2.95-6.206" transform="translate(269.87 4567.629)" fill="none" stroke="#12263f" stroke-width="2"/>
    </g>
  </g>
</svg>
