<svg xmlns="http://www.w3.org/2000/svg" xmlns:xlink="http://www.w3.org/1999/xlink" width="400" height="454" viewBox="0 0 400 454">
  <defs>
    <clipPath id="clip-path">
      <rect id="Rectángulo_38818" data-name="Rectángulo 38818" width="125.25" height="114.621" fill="#fff"/>
    </clipPath>
  </defs>
  <g id="Grupo_157516" data-name="Grupo 157516" transform="translate(-830 -1312.36)">
    <path id="Trazado_196198" data-name="Trazado 196198" d="M10,0H390a10,10,0,0,1,10,10V444a10,10,0,0,1-10,10H10A10,10,0,0,1,0,444V10A10,10,0,0,1,10,0Z" transform="translate(830 1312.36)" fill="#ff8578"/>
    <path id="Trazado_196199" data-name="Trazado 196199" d="M27.726,12.491V17H25.089V4.2h4.992a5.776,5.776,0,0,1,2.536.527,3.886,3.886,0,0,1,1.683,1.5,4.178,4.178,0,0,1,.589,2.21A3.674,3.674,0,0,1,33.6,11.406a5.363,5.363,0,0,1-3.564,1.085Zm0-2.136h2.355a2.316,2.316,0,0,0,1.6-.492,1.79,1.79,0,0,0,.549-1.406,2.111,2.111,0,0,0-.554-1.521,2.068,2.068,0,0,0-1.529-.6H27.726Zm14.15-.483a6.9,6.9,0,0,0-.914-.07,1.86,1.86,0,0,0-1.89.976V17h-2.54V7.49h2.4L39,8.624a2.354,2.354,0,0,1,2.118-1.31,2.662,2.662,0,0,1,.791.114Zm.51,2.285a5.64,5.64,0,0,1,.545-2.522A3.989,3.989,0,0,1,44.5,7.921a4.577,4.577,0,0,1,2.377-.606A4.33,4.33,0,0,1,50.02,8.492a4.727,4.727,0,0,1,1.358,3.2l.018.65a4.97,4.97,0,0,1-1.222,3.511,4.735,4.735,0,0,1-6.561,0,5.058,5.058,0,0,1-1.226-3.586Zm2.54.18a3.555,3.555,0,0,0,.51,2.073,1.831,1.831,0,0,0,2.9.009,3.89,3.89,0,0,0,.519-2.267,3.519,3.519,0,0,0-.519-2.06,1.686,1.686,0,0,0-1.459-.731,1.658,1.658,0,0,0-1.441.726A3.955,3.955,0,0,0,44.926,12.338Zm7.664-.163A5.573,5.573,0,0,1,53.632,8.65,3.375,3.375,0,0,1,56.44,7.314a2.96,2.96,0,0,1,2.435,1.072l.105-.9h2.3v9.193a4.064,4.064,0,0,1-.567,2.171,3.641,3.641,0,0,1-1.6,1.406,5.608,5.608,0,0,1-2.408.483,5.215,5.215,0,0,1-2.039-.417,3.619,3.619,0,0,1-1.5-1.077L54.3,17.7a2.975,2.975,0,0,0,2.3,1.063,2.178,2.178,0,0,0,1.573-.541,2.027,2.027,0,0,0,.563-1.534v-.51a2.938,2.938,0,0,1-2.312.993,3.366,3.366,0,0,1-2.773-1.34A5.572,5.572,0,0,1,52.59,12.28Zm2.54.181a3.489,3.489,0,0,0,.519,2.035,1.648,1.648,0,0,0,1.424.737,1.762,1.762,0,0,0,1.661-.874V10.236a1.758,1.758,0,0,0-1.644-.874,1.659,1.659,0,0,0-1.437.751A3.933,3.933,0,0,0,55.13,12.356ZM68.578,9.872a6.9,6.9,0,0,0-.914-.07,1.86,1.86,0,0,0-1.89.976V17h-2.54V7.49h2.4l.07,1.134a2.354,2.354,0,0,1,2.118-1.31,2.662,2.662,0,0,1,.791.114ZM75.046,17a2.821,2.821,0,0,1-.255-.853,3.073,3.073,0,0,1-2.4,1.028,3.376,3.376,0,0,1-2.316-.809,2.6,2.6,0,0,1-.918-2.039,2.687,2.687,0,0,1,1.121-2.32,5.529,5.529,0,0,1,3.239-.817h1.169v-.545a1.567,1.567,0,0,0-.338-1.055,1.331,1.331,0,0,0-1.068-.4,1.513,1.513,0,0,0-1.006.308,1.045,1.045,0,0,0-.365.844h-2.54a2.551,2.551,0,0,1,.51-1.529,3.37,3.37,0,0,1,1.441-1.1,5.253,5.253,0,0,1,2.092-.4A4.15,4.15,0,0,1,76.2,8.2a3.09,3.09,0,0,1,1.033,2.483V14.8a4.546,4.546,0,0,0,.378,2.048V17Zm-2.1-1.767a2.188,2.188,0,0,0,1.037-.25,1.645,1.645,0,0,0,.7-.672V12.676h-.949q-1.907,0-2.03,1.318l-.009.149a1.017,1.017,0,0,0,.334.782A1.3,1.3,0,0,0,72.946,15.233ZM81.568,7.49l.079,1.063A3.342,3.342,0,0,1,84.38,7.314,2.536,2.536,0,0,1,86.9,8.765a3.265,3.265,0,0,1,2.856-1.45,2.836,2.836,0,0,1,2.3.9,4.141,4.141,0,0,1,.756,2.711V17H90.269V10.922a1.818,1.818,0,0,0-.316-1.185,1.4,1.4,0,0,0-1.116-.374,1.585,1.585,0,0,0-1.582,1.092L87.263,17h-2.54V10.93a1.8,1.8,0,0,0-.325-1.2,1.414,1.414,0,0,0-1.107-.37,1.645,1.645,0,0,0-1.564.9V17h-2.54V7.49ZM100.28,17a2.821,2.821,0,0,1-.255-.853,3.073,3.073,0,0,1-2.4,1.028,3.376,3.376,0,0,1-2.316-.809,2.6,2.6,0,0,1-.918-2.039,2.687,2.687,0,0,1,1.121-2.32,5.529,5.529,0,0,1,3.239-.817h1.169v-.545a1.567,1.567,0,0,0-.338-1.055,1.331,1.331,0,0,0-1.068-.4,1.513,1.513,0,0,0-1.006.308,1.045,1.045,0,0,0-.365.844H94.6a2.551,2.551,0,0,1,.51-1.529,3.37,3.37,0,0,1,1.441-1.1,5.253,5.253,0,0,1,2.092-.4,4.15,4.15,0,0,1,2.791.883,3.09,3.09,0,0,1,1.033,2.483V14.8a4.546,4.546,0,0,0,.378,2.048V17Zm-2.1-1.767a2.188,2.188,0,0,0,1.037-.25,1.645,1.645,0,0,0,.7-.672V12.676H98.97q-1.907,0-2.03,1.318l-.009.149a1.017,1.017,0,0,0,.334.782A1.3,1.3,0,0,0,98.179,15.233Zm11.391-.861a.818.818,0,0,0-.461-.734,5.241,5.241,0,0,0-1.481-.479q-3.393-.712-3.393-2.883a2.613,2.613,0,0,1,1.05-2.114,4.237,4.237,0,0,1,2.747-.848,4.56,4.56,0,0,1,2.9.853,2.687,2.687,0,0,1,1.085,2.215h-2.54a1.229,1.229,0,0,0-.352-.9,1.488,1.488,0,0,0-1.1-.356,1.52,1.52,0,0,0-.993.29.916.916,0,0,0-.352.738.783.783,0,0,0,.4.681,4.114,4.114,0,0,0,1.349.448,11.019,11.019,0,0,1,1.6.426,2.628,2.628,0,0,1,2.013,2.558,2.481,2.481,0,0,1-1.116,2.1,4.815,4.815,0,0,1-2.883.8,5.029,5.029,0,0,1-2.123-.426,3.561,3.561,0,0,1-1.455-1.169,2.716,2.716,0,0,1-.527-1.6h2.408a1.326,1.326,0,0,0,.5,1.037,1.987,1.987,0,0,0,1.248.36,1.839,1.839,0,0,0,1.1-.277A.861.861,0,0,0,109.57,14.372Zm8.191-2.2a5.731,5.731,0,0,1,1-3.542,3.237,3.237,0,0,1,2.729-1.318,2.913,2.913,0,0,1,2.294,1.037V3.5h2.549V17h-2.294l-.123-1.011a2.989,2.989,0,0,1-2.443,1.187,3.228,3.228,0,0,1-2.694-1.323A5.916,5.916,0,0,1,117.761,12.175Zm2.54.181a3.775,3.775,0,0,0,.466,2.057,1.516,1.516,0,0,0,1.354.715,1.7,1.7,0,0,0,1.661-1V10.36a1.675,1.675,0,0,0-1.644-1Q120.3,9.362,120.3,12.356Zm12.375,4.82a4.668,4.668,0,0,1-3.406-1.283,4.561,4.561,0,0,1-1.314-3.419v-.246a5.745,5.745,0,0,1,.554-2.562,4.064,4.064,0,0,1,1.569-1.74,4.4,4.4,0,0,1,2.316-.611,3.947,3.947,0,0,1,3.072,1.23,5,5,0,0,1,1.121,3.489v1.037h-6.056a2.36,2.36,0,0,0,.743,1.494,2.245,2.245,0,0,0,1.569.563,2.742,2.742,0,0,0,2.294-1.063l1.248,1.4a3.813,3.813,0,0,1-1.547,1.261A5.075,5.075,0,0,1,132.676,17.176Zm-.29-7.813a1.587,1.587,0,0,0-1.226.512,2.651,2.651,0,0,0-.6,1.466h3.533v-.2a1.891,1.891,0,0,0-.457-1.311A1.638,1.638,0,0,0,132.386,9.362ZM11.7,39.128a1.666,1.666,0,0,0,1.143-.387,1.355,1.355,0,0,0,.457-1.028h2.382a3.258,3.258,0,0,1-.527,1.771,3.48,3.48,0,0,1-1.419,1.248,4.442,4.442,0,0,1-1.991.444,4.129,4.129,0,0,1-3.217-1.3A5.13,5.13,0,0,1,7.349,36.3v-.167a5.071,5.071,0,0,1,1.169-3.507,4.08,4.08,0,0,1,3.208-1.31,4,4,0,0,1,2.861,1.015,3.594,3.594,0,0,1,1.094,2.7H13.3a1.745,1.745,0,0,0-.457-1.206,1.524,1.524,0,0,0-1.16-.464,1.53,1.53,0,0,0-1.34.647,3.749,3.749,0,0,0-.453,2.1v.264a3.8,3.8,0,0,0,.448,2.113A1.549,1.549,0,0,0,11.7,39.128Zm5.036-2.971a5.64,5.64,0,0,1,.545-2.522,3.989,3.989,0,0,1,1.569-1.714,4.577,4.577,0,0,1,2.377-.606,4.33,4.33,0,0,1,3.142,1.178,4.727,4.727,0,0,1,1.358,3.2l.018.65a4.97,4.97,0,0,1-1.222,3.511,4.247,4.247,0,0,1-3.278,1.323,4.268,4.268,0,0,1-3.283-1.318,5.058,5.058,0,0,1-1.226-3.586Zm2.54.18a3.555,3.555,0,0,0,.51,2.073,1.831,1.831,0,0,0,2.9.009,3.89,3.89,0,0,0,.519-2.267,3.519,3.519,0,0,0-.519-2.06,1.686,1.686,0,0,0-1.459-.731,1.658,1.658,0,0,0-1.441.726A3.955,3.955,0,0,0,19.275,36.338Zm13.377-2.465a6.9,6.9,0,0,0-.914-.07,1.86,1.86,0,0,0-1.89.976V41h-2.54V31.49h2.4l.07,1.134a2.354,2.354,0,0,1,2.118-1.31,2.662,2.662,0,0,1,.791.114Zm6.565,0a6.9,6.9,0,0,0-.914-.07,1.86,1.86,0,0,0-1.89.976V41h-2.54V31.49h2.4l.07,1.134a2.354,2.354,0,0,1,2.118-1.31,2.662,2.662,0,0,1,.791.114Zm5.432,7.3a4.668,4.668,0,0,1-3.406-1.283,4.561,4.561,0,0,1-1.314-3.419v-.246a5.745,5.745,0,0,1,.554-2.562,4.064,4.064,0,0,1,1.569-1.74,4.4,4.4,0,0,1,2.316-.611,3.947,3.947,0,0,1,3.072,1.23,5,5,0,0,1,1.121,3.489v1.037H42.5a2.36,2.36,0,0,0,.743,1.494,2.245,2.245,0,0,0,1.569.563,2.742,2.742,0,0,0,2.294-1.063l1.248,1.4a3.813,3.813,0,0,1-1.547,1.261A5.075,5.075,0,0,1,44.649,41.176Zm-.29-7.813a1.587,1.587,0,0,0-1.226.512,2.651,2.651,0,0,0-.6,1.466h3.533v-.2a1.891,1.891,0,0,0-.457-1.311A1.638,1.638,0,0,0,44.359,33.362Zm5.247,2.795a5.64,5.64,0,0,1,.545-2.522,3.989,3.989,0,0,1,1.569-1.714,4.577,4.577,0,0,1,2.377-.606,4.33,4.33,0,0,1,3.142,1.178,4.727,4.727,0,0,1,1.358,3.2l.018.65a4.97,4.97,0,0,1-1.222,3.511,4.735,4.735,0,0,1-6.561,0,5.058,5.058,0,0,1-1.226-3.586Zm2.54.18a3.555,3.555,0,0,0,.51,2.073,1.831,1.831,0,0,0,2.9.009,3.89,3.89,0,0,0,.519-2.267,3.519,3.519,0,0,0-.519-2.06,1.686,1.686,0,0,0-1.459-.731,1.658,1.658,0,0,0-1.441.726A3.955,3.955,0,0,0,52.146,36.338Zm16.893,4.838a4.668,4.668,0,0,1-3.406-1.283,4.561,4.561,0,0,1-1.314-3.419v-.246a5.745,5.745,0,0,1,.554-2.562,4.064,4.064,0,0,1,1.569-1.74,4.4,4.4,0,0,1,2.316-.611,3.947,3.947,0,0,1,3.072,1.23,5,5,0,0,1,1.121,3.489v1.037H66.895a2.36,2.36,0,0,0,.743,1.494,2.245,2.245,0,0,0,1.569.563A2.742,2.742,0,0,0,71.5,38.064l1.248,1.4A3.813,3.813,0,0,1,71.2,40.723,5.075,5.075,0,0,1,69.039,41.176Zm-.29-7.813a1.587,1.587,0,0,0-1.226.512,2.651,2.651,0,0,0-.6,1.466h3.533v-.2A1.891,1.891,0,0,0,70,33.826,1.638,1.638,0,0,0,68.749,33.362ZM77.072,41H74.523V27.5h2.549Zm6.469.176a4.668,4.668,0,0,1-3.406-1.283,4.561,4.561,0,0,1-1.314-3.419v-.246a5.745,5.745,0,0,1,.554-2.562,4.064,4.064,0,0,1,1.569-1.74,4.4,4.4,0,0,1,2.316-.611,3.947,3.947,0,0,1,3.072,1.23,5,5,0,0,1,1.121,3.489v1.037H81.4a2.36,2.36,0,0,0,.743,1.494,2.245,2.245,0,0,0,1.569.563A2.742,2.742,0,0,0,86,38.064l1.248,1.4A3.813,3.813,0,0,1,85.7,40.723,5.075,5.075,0,0,1,83.541,41.176Zm-.29-7.813a1.587,1.587,0,0,0-1.226.512,2.651,2.651,0,0,0-.6,1.466h3.533v-.2a1.891,1.891,0,0,0-.457-1.311A1.638,1.638,0,0,0,83.251,33.362Zm9.6,5.766a1.666,1.666,0,0,0,1.143-.387,1.355,1.355,0,0,0,.457-1.028H96.83a3.258,3.258,0,0,1-.527,1.771,3.48,3.48,0,0,1-1.419,1.248,4.442,4.442,0,0,1-1.991.444,4.129,4.129,0,0,1-3.217-1.3A5.13,5.13,0,0,1,88.5,36.3v-.167a5.071,5.071,0,0,1,1.169-3.507,4.08,4.08,0,0,1,3.208-1.31,4,4,0,0,1,2.861,1.015,3.594,3.594,0,0,1,1.094,2.7H94.448a1.745,1.745,0,0,0-.457-1.206,1.7,1.7,0,0,0-2.5.183,3.749,3.749,0,0,0-.453,2.1v.264a3.8,3.8,0,0,0,.448,2.113A1.549,1.549,0,0,0,92.849,39.128Zm8.473-9.976V31.49h1.626v1.863h-1.626V38.1a1.133,1.133,0,0,0,.2.756,1.015,1.015,0,0,0,.773.229,4.051,4.051,0,0,0,.747-.062v1.925a5.229,5.229,0,0,1-1.538.229,2.425,2.425,0,0,1-2.725-2.7V33.354H97.393V31.49h1.389V29.152Zm8.385,4.72a6.9,6.9,0,0,0-.914-.07,1.86,1.86,0,0,0-1.89.976V41h-2.54V31.49h2.4l.07,1.134a2.354,2.354,0,0,1,2.118-1.31,2.662,2.662,0,0,1,.791.114Zm.51,2.285a5.64,5.64,0,0,1,.545-2.522,3.989,3.989,0,0,1,1.569-1.714,4.577,4.577,0,0,1,2.377-.606,4.33,4.33,0,0,1,3.142,1.178,4.727,4.727,0,0,1,1.358,3.2l.018.65A4.97,4.97,0,0,1,118,39.853a4.735,4.735,0,0,1-6.561,0,5.058,5.058,0,0,1-1.226-3.586Zm2.54.18a3.555,3.555,0,0,0,.51,2.073,1.831,1.831,0,0,0,2.9.009,3.89,3.89,0,0,0,.519-2.267,3.519,3.519,0,0,0-.519-2.06,1.686,1.686,0,0,0-1.459-.731,1.658,1.658,0,0,0-1.441.726A3.955,3.955,0,0,0,112.756,36.338Zm2.452-8.838h2.769l-2.435,2.725h-2.065Zm7.919,3.99.079,1.1a3.32,3.32,0,0,1,2.733-1.274,2.759,2.759,0,0,1,2.25.888,4.142,4.142,0,0,1,.756,2.654V41h-2.54V34.9a1.654,1.654,0,0,0-.352-1.176,1.572,1.572,0,0,0-1.169-.366,1.747,1.747,0,0,0-1.608.916V41h-2.54V31.49ZM133.551,41H131V31.49h2.549Zm-2.7-11.971a1.251,1.251,0,0,1,.382-.94,1.648,1.648,0,0,1,2.079,0,1.342,1.342,0,0,1,0,1.89,1.629,1.629,0,0,1-2.065,0A1.247,1.247,0,0,1,130.853,29.029Zm8.745,10.1a1.666,1.666,0,0,0,1.143-.387,1.355,1.355,0,0,0,.457-1.028h2.382a3.258,3.258,0,0,1-.527,1.771,3.48,3.48,0,0,1-1.419,1.248,4.442,4.442,0,0,1-1.991.444,4.129,4.129,0,0,1-3.217-1.3,5.13,5.13,0,0,1-1.178-3.582v-.167a5.071,5.071,0,0,1,1.169-3.507,4.08,4.08,0,0,1,3.208-1.31,4,4,0,0,1,2.861,1.015,3.594,3.594,0,0,1,1.094,2.7H141.2a1.745,1.745,0,0,0-.457-1.206,1.7,1.7,0,0,0-2.5.183,3.749,3.749,0,0,0-.453,2.1v.264a3.8,3.8,0,0,0,.448,2.113A1.549,1.549,0,0,0,139.6,39.128Zm5.036-2.971a5.64,5.64,0,0,1,.545-2.522,3.989,3.989,0,0,1,1.569-1.714,4.577,4.577,0,0,1,2.377-.606,4.33,4.33,0,0,1,3.142,1.178,4.727,4.727,0,0,1,1.358,3.2l.018.65a4.97,4.97,0,0,1-1.222,3.511,4.735,4.735,0,0,1-6.561,0,5.058,5.058,0,0,1-1.226-3.586Zm2.54.18a3.555,3.555,0,0,0,.51,2.073,1.831,1.831,0,0,0,2.9.009,3.89,3.89,0,0,0,.519-2.267,3.519,3.519,0,0,0-.519-2.06,1.686,1.686,0,0,0-1.459-.731,1.658,1.658,0,0,0-1.441.726A3.955,3.955,0,0,0,147.174,36.338Z" transform="translate(939.5 1592.933)" fill="#12263f"/>
    <g id="Grupo_145425" data-name="Grupo 145425" transform="translate(957.375 1438.238)">
      <g id="Grupo_145424" data-name="Grupo 145424" transform="translate(0 0)" clip-path="url(#clip-path)">
        <path id="Trazado_150896" data-name="Trazado 150896" d="M105.669,59.484H19.584A19.566,19.566,0,0,1,0,39.982a2.035,2.035,0,0,1,2.039-2.031H123.213a2.035,2.035,0,0,1,2.039,2.031,19.566,19.566,0,0,1-19.584,19.5M4.214,42.013A15.5,15.5,0,0,0,19.584,55.42h86.085a15.5,15.5,0,0,0,15.369-13.407Z" transform="translate(0 55.138)" fill="#fff"/>
        <path id="Trazado_150897" data-name="Trazado 150897" d="M117.683,83.567H3.447a2.035,2.035,0,0,1-2.039-2.031V16.256A6.93,6.93,0,0,1,8.344,9.349H51.839a2.032,2.032,0,1,1,0,4.064H8.344a2.853,2.853,0,0,0-2.857,2.843V79.5H115.643V16.256a2.853,2.853,0,0,0-2.857-2.843H111.4a2.032,2.032,0,1,1,0-4.064h1.382a6.93,6.93,0,0,1,6.936,6.907v65.28a2.035,2.035,0,0,1-2.039,2.031" transform="translate(2.06 13.584)" fill="#fff"/>
        <path id="Trazado_150898" data-name="Trazado 150898" d="M36.137,17.911H29.61a2.031,2.031,0,1,1,0-4.062h6.527a2.031,2.031,0,1,1,0,4.062" transform="translate(40.337 20.121)" fill="#fff"/>
        <path id="Trazado_150899" data-name="Trazado 150899" d="M98.927,66.195H9.442a2.047,2.047,0,0,1-1.776-1.03c-.266-.471-.52-.856-.736-1.192a5.333,5.333,0,0,1-1.16-2.98V17.467a3.65,3.65,0,0,1,3.672-3.618h6.64a2.032,2.032,0,1,1,0,4.064H9.849V60.992c.032.042.3.449.507.775.076.115.155.238.236.363H97.776c.081-.125.16-.248.236-.363a6.773,6.773,0,0,0,.517-.873l-.012-42.981H92.375a2.032,2.032,0,1,1,0-4.064h6.552a3.65,3.65,0,0,1,3.672,3.618V60.992a5.333,5.333,0,0,1-1.16,2.98c-.219.336-.47.721-.736,1.192a2.047,2.047,0,0,1-1.776,1.03" transform="translate(8.442 20.121)" fill="#fff"/>
        <path id="Trazado_150900" data-name="Trazado 150900" d="M25.17,54.89a2.072,2.072,0,0,1-.325-.025,2.038,2.038,0,0,1-1.547-1.2L19.064,43.9l-7.448-.211a2.035,2.035,0,0,1-1.98-2.031V22.5a2.029,2.029,0,0,1,1.616-1.987l36.1-7.626A2.036,2.036,0,0,1,49.806,14.7L51.943,40a2.032,2.032,0,0,1-1.825,2.19L36.163,43.6,26.695,54.208a2.038,2.038,0,0,1-1.525.682M13.715,39.685l6.766.194a2.034,2.034,0,0,1,1.813,1.226l3.48,8.021,7.869-8.815a2.035,2.035,0,0,1,1.318-.672l12.749-1.29L45.934,17.335,13.715,24.142Z" transform="translate(14.098 18.652)" fill="#fff"/>
        <path id="Trazado_150901" data-name="Trazado 150901" d="M22.133,21.972a2.791,2.791,0,1,1-2.791-2.779,2.784,2.784,0,0,1,2.791,2.779" transform="translate(24.216 27.885)" fill="#fff"/>
        <path id="Trazado_150902" data-name="Trazado 150902" d="M18.734,22.615a2.791,2.791,0,1,1-2.791-2.779,2.784,2.784,0,0,1,2.791,2.779" transform="translate(19.243 28.82)" fill="#fff"/>
        <path id="Trazado_150903" data-name="Trazado 150903" d="M25.532,21.262a2.791,2.791,0,1,1-2.791-2.779,2.784,2.784,0,0,1,2.791,2.779" transform="translate(29.189 26.854)" fill="#fff"/>
        <path id="Trazado_150904" data-name="Trazado 150904" d="M52.495,42.054a2.043,2.043,0,0,1-1.525-.682L41.5,30.764,27.547,29.351a2.036,2.036,0,0,1-1.828-2.193l2.14-25.3A2.017,2.017,0,0,1,28.675.4a2.039,2.039,0,0,1,1.64-.358l36.1,7.626a2.034,2.034,0,0,1,1.618,1.987V28.821a2.036,2.036,0,0,1-1.983,2.031l-7.446.211-4.234,9.765a2.043,2.043,0,0,1-1.549,1.2,1.81,1.81,0,0,1-.323.027M29.953,25.51,42.7,26.8a2.046,2.046,0,0,1,1.318.672l7.869,8.815,3.478-8.023a2.042,2.042,0,0,1,1.815-1.224l6.763-.191V11.3L31.729,4.5Z" transform="translate(37.617 0.001)" fill="#fff"/>
        <path id="Trazado_150905" data-name="Trazado 150905" d="M33.71,9.135A2.791,2.791,0,1,0,36.5,6.356,2.784,2.784,0,0,0,33.71,9.135" transform="translate(49.319 9.235)" fill="#fff"/>
        <path id="Trazado_150906" data-name="Trazado 150906" d="M37.109,9.777A2.791,2.791,0,1,0,39.9,7a2.784,2.784,0,0,0-2.791,2.779" transform="translate(54.292 10.168)" fill="#fff"/>
        <path id="Trazado_150907" data-name="Trazado 150907" d="M30.311,8.424A2.791,2.791,0,1,0,33.1,5.645a2.784,2.784,0,0,0-2.791,2.779" transform="translate(44.346 8.202)" fill="#fff"/>
        <path id="Trazado_150908" data-name="Trazado 150908" d="M36.177,35.038h-22.3a2.031,2.031,0,1,1,0-4.062h22.3a2.031,2.031,0,1,1,0,4.062" transform="translate(17.315 45.004)" fill="#fff"/>
        <path id="Trazado_150909" data-name="Trazado 150909" d="M52.562,22.2H32.978a2.031,2.031,0,1,1,0-4.062H52.562a2.031,2.031,0,1,1,0,4.062" transform="translate(45.265 26.354)" fill="#fff"/>
        <path id="Trazado_150910" data-name="Trazado 150910" d="M58.944,30.142H28.616a2.031,2.031,0,1,1,0-4.062H58.944a2.031,2.031,0,1,1,0,4.062" transform="translate(38.883 37.891)" fill="#fff"/>
        <path id="Trazado_150911" data-name="Trazado 150911" d="M58.2,45.575H18.6a2.032,2.032,0,1,1,0-4.064H58.2a2.032,2.032,0,1,1,0,4.064" transform="translate(24.229 60.31)" fill="#fff"/>
      </g>
    </g>
  </g>
</svg>
