<svg xmlns="http://www.w3.org/2000/svg" xmlns:xlink="http://www.w3.org/1999/xlink" width="400" height="454" viewBox="0 0 400 454">
  <defs>
    <clipPath id="clip-path">
      <rect id="Rectángulo_38819" data-name="Rectángulo 38819" width="111.5" height="90.702" fill="#fff"/>
    </clipPath>
  </defs>
  <g id="Grupo_157514" data-name="Grupo 157514" transform="translate(-1020 -820.786)">
    <path id="Trazado_196194" data-name="Trazado 196194" d="M10,0H390a10,10,0,0,1,10,10V444a10,10,0,0,1-10,10H10A10,10,0,0,1,0,444V10A10,10,0,0,1,10,0Z" transform="translate(1020 820.786)" fill="#ff8578"/>
    <path id="Trazado_196195" data-name="Trazado 196195" d="M12.119,14.882h5.6V17H9.482V4.2h2.637ZM24.573,17a2.821,2.821,0,0,1-.255-.853,3.073,3.073,0,0,1-2.4,1.028,3.376,3.376,0,0,1-2.316-.809,2.6,2.6,0,0,1-.918-2.039,2.687,2.687,0,0,1,1.121-2.32,5.529,5.529,0,0,1,3.239-.817h1.169v-.545a1.567,1.567,0,0,0-.338-1.055,1.331,1.331,0,0,0-1.068-.4A1.513,1.513,0,0,0,21.8,9.5a1.045,1.045,0,0,0-.365.844H18.9a2.551,2.551,0,0,1,.51-1.529,3.37,3.37,0,0,1,1.441-1.1,5.253,5.253,0,0,1,2.092-.4,4.15,4.15,0,0,1,2.791.883,3.09,3.09,0,0,1,1.033,2.483V14.8a4.546,4.546,0,0,0,.378,2.048V17Zm-2.1-1.767a2.188,2.188,0,0,0,1.037-.25,1.645,1.645,0,0,0,.7-.672V12.676h-.949q-1.907,0-2.03,1.318l-.009.149a1.017,1.017,0,0,0,.334.782A1.3,1.3,0,0,0,22.473,15.233Zm11.391-.861a.818.818,0,0,0-.461-.734,5.241,5.241,0,0,0-1.481-.479q-3.393-.712-3.393-2.883a2.613,2.613,0,0,1,1.05-2.114,4.237,4.237,0,0,1,2.747-.848,4.56,4.56,0,0,1,2.9.853,2.687,2.687,0,0,1,1.085,2.215h-2.54a1.229,1.229,0,0,0-.352-.9,1.488,1.488,0,0,0-1.1-.356,1.52,1.52,0,0,0-.993.29.916.916,0,0,0-.352.738.783.783,0,0,0,.4.681,4.114,4.114,0,0,0,1.349.448,11.019,11.019,0,0,1,1.6.426,2.628,2.628,0,0,1,2.013,2.558,2.481,2.481,0,0,1-1.116,2.1,4.815,4.815,0,0,1-2.883.8,5.029,5.029,0,0,1-2.123-.426,3.561,3.561,0,0,1-1.455-1.169,2.716,2.716,0,0,1-.527-1.6h2.408a1.326,1.326,0,0,0,.5,1.037,1.987,1.987,0,0,0,1.248.36,1.839,1.839,0,0,0,1.1-.277A.861.861,0,0,0,33.863,14.372ZM44.929,8.527a3.17,3.17,0,0,1,2.54-1.213q3.094,0,3.138,3.595V17h-2.54V10.966a1.774,1.774,0,0,0-.352-1.211,1.505,1.505,0,0,0-1.169-.392,1.728,1.728,0,0,0-1.617.863V17h-2.54V3.5h2.54Zm7.2,3.63a5.64,5.64,0,0,1,.545-2.522,3.989,3.989,0,0,1,1.569-1.714,4.577,4.577,0,0,1,2.377-.606A4.33,4.33,0,0,1,59.76,8.492a4.727,4.727,0,0,1,1.358,3.2l.018.65a4.97,4.97,0,0,1-1.222,3.511,4.735,4.735,0,0,1-6.561,0,5.058,5.058,0,0,1-1.226-3.586Zm2.54.18a3.555,3.555,0,0,0,.51,2.073,1.831,1.831,0,0,0,2.9.009,3.89,3.89,0,0,0,.519-2.267,3.519,3.519,0,0,0-.519-2.06,1.686,1.686,0,0,0-1.459-.731,1.658,1.658,0,0,0-1.441.726A3.955,3.955,0,0,0,54.667,12.338ZM65.39,7.49V17.519a3.4,3.4,0,0,1-.835,2.448,3.174,3.174,0,0,1-2.408.875,5.165,5.165,0,0,1-1.257-.149V18.679a4.768,4.768,0,0,0,.8.079q1.151,0,1.151-1.222V7.49ZM62.639,5.029a1.251,1.251,0,0,1,.382-.94,1.654,1.654,0,0,1,2.083,0,1.251,1.251,0,0,1,.382.94,1.247,1.247,0,0,1-.391.949,1.629,1.629,0,0,1-2.065,0A1.247,1.247,0,0,1,62.639,5.029ZM72.887,17a2.821,2.821,0,0,1-.255-.853,3.073,3.073,0,0,1-2.4,1.028,3.376,3.376,0,0,1-2.316-.809A2.6,2.6,0,0,1,67,14.328a2.687,2.687,0,0,1,1.121-2.32,5.529,5.529,0,0,1,3.239-.817h1.169v-.545a1.567,1.567,0,0,0-.338-1.055,1.331,1.331,0,0,0-1.068-.4,1.513,1.513,0,0,0-1.006.308,1.045,1.045,0,0,0-.365.844h-2.54a2.551,2.551,0,0,1,.51-1.529,3.37,3.37,0,0,1,1.441-1.1,5.253,5.253,0,0,1,2.092-.4,4.15,4.15,0,0,1,2.791.883,3.09,3.09,0,0,1,1.033,2.483V14.8a4.546,4.546,0,0,0,.378,2.048V17Zm-2.1-1.767a2.188,2.188,0,0,0,1.037-.25,1.645,1.645,0,0,0,.7-.672V12.676h-.949q-1.907,0-2.03,1.318l-.009.149a1.017,1.017,0,0,0,.334.782A1.3,1.3,0,0,0,70.786,15.233Zm11.391-.861a.818.818,0,0,0-.461-.734,5.241,5.241,0,0,0-1.481-.479q-3.393-.712-3.393-2.883a2.613,2.613,0,0,1,1.05-2.114,4.237,4.237,0,0,1,2.747-.848,4.56,4.56,0,0,1,2.9.853,2.687,2.687,0,0,1,1.085,2.215H82.08a1.229,1.229,0,0,0-.352-.9,1.488,1.488,0,0,0-1.1-.356,1.52,1.52,0,0,0-.993.29.916.916,0,0,0-.352.738.783.783,0,0,0,.4.681,4.114,4.114,0,0,0,1.349.448,11.019,11.019,0,0,1,1.6.426,2.628,2.628,0,0,1,2.013,2.558,2.481,2.481,0,0,1-1.116,2.1,4.815,4.815,0,0,1-2.883.8,5.029,5.029,0,0,1-2.123-.426,3.561,3.561,0,0,1-1.455-1.169,2.716,2.716,0,0,1-.527-1.6h2.408a1.326,1.326,0,0,0,.5,1.037,1.987,1.987,0,0,0,1.248.36,1.839,1.839,0,0,0,1.1-.277A.861.861,0,0,0,82.177,14.372Zm8.191-2.2a5.731,5.731,0,0,1,1-3.542,3.237,3.237,0,0,1,2.729-1.318,2.913,2.913,0,0,1,2.294,1.037V3.5h2.549V17H96.644l-.123-1.011a2.989,2.989,0,0,1-2.443,1.187,3.228,3.228,0,0,1-2.694-1.323A5.916,5.916,0,0,1,90.368,12.175Zm2.54.181a3.775,3.775,0,0,0,.466,2.057,1.516,1.516,0,0,0,1.354.715,1.7,1.7,0,0,0,1.661-1V10.36a1.675,1.675,0,0,0-1.644-1Q92.908,9.362,92.908,12.356Zm12.375,4.82a4.668,4.668,0,0,1-3.406-1.283,4.561,4.561,0,0,1-1.314-3.419v-.246a5.745,5.745,0,0,1,.554-2.562,4.064,4.064,0,0,1,1.569-1.74A4.4,4.4,0,0,1,105,7.314a3.947,3.947,0,0,1,3.072,1.23,5,5,0,0,1,1.121,3.489v1.037h-6.056a2.36,2.36,0,0,0,.743,1.494,2.245,2.245,0,0,0,1.569.563,2.742,2.742,0,0,0,2.294-1.063l1.248,1.4a3.813,3.813,0,0,1-1.547,1.261A5.075,5.075,0,0,1,105.283,17.176Zm-.29-7.813a1.587,1.587,0,0,0-1.226.512,2.651,2.651,0,0,0-.6,1.466H106.7v-.2a1.891,1.891,0,0,0-.457-1.311A1.638,1.638,0,0,0,104.993,9.362ZM34.821,39.128a1.666,1.666,0,0,0,1.143-.387,1.355,1.355,0,0,0,.457-1.028H38.8a3.258,3.258,0,0,1-.527,1.771,3.48,3.48,0,0,1-1.419,1.248,4.442,4.442,0,0,1-1.991.444,4.129,4.129,0,0,1-3.217-1.3A5.13,5.13,0,0,1,30.471,36.3v-.167a5.071,5.071,0,0,1,1.169-3.507,4.08,4.08,0,0,1,3.208-1.31,4,4,0,0,1,2.861,1.015,3.594,3.594,0,0,1,1.094,2.7H36.421a1.745,1.745,0,0,0-.457-1.206,1.7,1.7,0,0,0-2.5.183,3.749,3.749,0,0,0-.453,2.1v.264a3.8,3.8,0,0,0,.448,2.113A1.549,1.549,0,0,0,34.821,39.128ZM45.764,41a2.821,2.821,0,0,1-.255-.853,3.073,3.073,0,0,1-2.4,1.028,3.376,3.376,0,0,1-2.316-.809,2.6,2.6,0,0,1-.918-2.039A2.687,2.687,0,0,1,41,36.008a5.529,5.529,0,0,1,3.239-.817H45.4v-.545a1.567,1.567,0,0,0-.338-1.055A1.331,1.331,0,0,0,44,33.2a1.513,1.513,0,0,0-1.006.308,1.045,1.045,0,0,0-.365.844h-2.54a2.551,2.551,0,0,1,.51-1.529,3.37,3.37,0,0,1,1.441-1.1,5.253,5.253,0,0,1,2.092-.4,4.15,4.15,0,0,1,2.791.883,3.09,3.09,0,0,1,1.033,2.483V38.8a4.546,4.546,0,0,0,.378,2.048V41Zm-2.1-1.767a2.188,2.188,0,0,0,1.037-.25,1.645,1.645,0,0,0,.7-.672V36.676h-.949q-1.907,0-2.03,1.318l-.009.149a1.017,1.017,0,0,0,.334.782A1.3,1.3,0,0,0,43.663,39.233ZM44.63,27.5H47.4l-2.435,2.725H42.9ZM52.584,41H50.035V27.5h2.549Zm6.047-1.872a1.666,1.666,0,0,0,1.143-.387,1.355,1.355,0,0,0,.457-1.028h2.382a3.258,3.258,0,0,1-.527,1.771,3.48,3.48,0,0,1-1.419,1.248,4.442,4.442,0,0,1-1.991.444,4.129,4.129,0,0,1-3.217-1.3A5.13,5.13,0,0,1,54.28,36.3v-.167a5.071,5.071,0,0,1,1.169-3.507,4.08,4.08,0,0,1,3.208-1.31,4,4,0,0,1,2.861,1.015,3.594,3.594,0,0,1,1.094,2.7H60.23a1.745,1.745,0,0,0-.457-1.206,1.7,1.7,0,0,0-2.5.183,3.749,3.749,0,0,0-.453,2.1v.264a3.8,3.8,0,0,0,.448,2.113A1.549,1.549,0,0,0,58.631,39.128Zm11.127.905a3.185,3.185,0,0,1-2.6,1.143,3,3,0,0,1-2.333-.879A3.752,3.752,0,0,1,64,37.722V31.49h2.54v6.151q0,1.487,1.354,1.487a1.834,1.834,0,0,0,1.775-.9V31.49h2.549V41H69.828ZM76.815,41H74.267V27.5h2.549Zm1.7-4.843a5.64,5.64,0,0,1,.545-2.522,3.989,3.989,0,0,1,1.569-1.714A4.577,4.577,0,0,1,83,31.314a4.33,4.33,0,0,1,3.142,1.178,4.727,4.727,0,0,1,1.358,3.2l.018.65A4.97,4.97,0,0,1,86.3,39.853a4.735,4.735,0,0,1-6.561,0,5.058,5.058,0,0,1-1.226-3.586Zm2.54.18a3.555,3.555,0,0,0,.51,2.073,1.831,1.831,0,0,0,2.9.009,3.89,3.89,0,0,0,.519-2.267,3.519,3.519,0,0,0-.519-2.06A1.686,1.686,0,0,0,83,33.362a1.658,1.658,0,0,0-1.441.726A3.955,3.955,0,0,0,81.052,36.338Z" transform="translate(1171 1095.786)" fill="#12263f"/>
    <g id="Grupo_145427" data-name="Grupo 145427" transform="translate(1174.5 965.308)">
      <g id="Grupo_145426" data-name="Grupo 145426" transform="translate(0 0)" clip-path="url(#clip-path)">
        <path id="Trazado_150912" data-name="Trazado 150912" d="M96.49,67.459H8.758a5.95,5.95,0,0,1-5.942-5.942V5.942A5.948,5.948,0,0,1,8.758,0H96.49a5.948,5.948,0,0,1,5.942,5.942V61.517a5.95,5.95,0,0,1-5.942,5.942M8.758,3.494A2.451,2.451,0,0,0,6.31,5.942V61.517a2.45,2.45,0,0,0,2.448,2.446H96.49a2.449,2.449,0,0,0,2.448-2.446V5.942A2.45,2.45,0,0,0,96.49,3.494Z" transform="translate(3.126 -0.001)" fill="#fff"/>
        <path id="Trazado_150913" data-name="Trazado 150913" d="M85.912,53.725H10.141A3.188,3.188,0,0,1,6.957,50.54V7.449a3.187,3.187,0,0,1,3.184-3.184H85.912A3.187,3.187,0,0,1,89.1,7.449V50.54a3.188,3.188,0,0,1-3.184,3.184M10.454,50.23H85.6V7.759H10.454Z" transform="translate(7.723 4.734)" fill="#fff"/>
        <path id="Trazado_150914" data-name="Trazado 150914" d="M104.16,49.879H7.34A7.347,7.347,0,0,1,0,42.54V38.52a1.745,1.745,0,0,1,1.747-1.747h108A1.747,1.747,0,0,1,111.5,38.52v4.02a7.349,7.349,0,0,1-7.341,7.339M3.5,40.267V42.54A3.851,3.851,0,0,0,7.34,46.385h96.82A3.849,3.849,0,0,0,108,42.54V40.267Z" transform="translate(0.001 40.822)" fill="#fff"/>
        <path id="Trazado_150915" data-name="Trazado 150915" d="M1.749,44.683a1.719,1.719,0,0,1-.521-.08A1.749,1.749,0,0,1,.08,42.412L2.7,34.024a1.747,1.747,0,1,1,3.334,1.042l-2.621,8.39a1.748,1.748,0,0,1-1.667,1.226" transform="translate(0 36.409)" fill="#fff"/>
        <path id="Trazado_150916" data-name="Trazado 150916" d="M54.31,44.683a1.748,1.748,0,0,1-1.667-1.226l-2.621-8.39a1.747,1.747,0,1,1,3.334-1.042l2.623,8.388a1.749,1.749,0,0,1-1.669,2.271" transform="translate(55.443 36.409)" fill="#fff"/>
        <path id="Trazado_150917" data-name="Trazado 150917" d="M68.465,37.288H7.3a1.748,1.748,0,0,1,0-3.5H68.465a1.748,1.748,0,0,1,0,3.5" transform="translate(6.16 37.512)" fill="#fff"/>
        <path id="Trazado_150918" data-name="Trazado 150918" d="M15.462,28.469a4.762,4.762,0,1,1,4.763-4.763,4.767,4.767,0,0,1-4.763,4.763m0-6.029a1.267,1.267,0,1,0,1.266,1.266,1.268,1.268,0,0,0-1.266-1.266" transform="translate(11.877 21.032)" fill="#fff"/>
        <path id="Trazado_150919" data-name="Trazado 150919" d="M23.524,21.263A4.762,4.762,0,1,1,28.286,16.5a4.767,4.767,0,0,1-4.763,4.763m0-6.029A1.267,1.267,0,1,0,24.79,16.5a1.268,1.268,0,0,0-1.266-1.266" transform="translate(20.827 13.032)" fill="#fff"/>
        <path id="Trazado_150920" data-name="Trazado 150920" d="M33.1,26.791a4.762,4.762,0,1,1,4.763-4.763A4.767,4.767,0,0,1,33.1,26.791m0-6.029a1.267,1.267,0,1,0,1.266,1.266A1.268,1.268,0,0,0,33.1,20.762" transform="translate(31.464 19.169)" fill="#fff"/>
        <path id="Trazado_150921" data-name="Trazado 150921" d="M40.646,19.648a4.762,4.762,0,1,1,4.763-4.763,4.767,4.767,0,0,1-4.763,4.763m0-6.029a1.267,1.267,0,1,0,1.266,1.266,1.268,1.268,0,0,0-1.266-1.266" transform="translate(39.835 11.239)" fill="#fff"/>
        <path id="Trazado_150922" data-name="Trazado 150922" d="M14.925,28.879a1.748,1.748,0,0,1-1.182-3.036l12.4-11.357a1.747,1.747,0,1,1,2.359,2.579L16.1,28.421a1.745,1.745,0,0,1-1.18.458" transform="translate(14.628 15.572)" fill="#fff"/>
        <path id="Trazado_150923" data-name="Trazado 150923" d="M37.554,27.762a1.73,1.73,0,0,1-1.074-.371l-14.191-11.1a1.748,1.748,0,0,1,2.154-2.754l14.189,11.1a1.747,1.747,0,0,1-1.078,3.123" transform="translate(23.999 14.618)" fill="#fff"/>
        <path id="Trazado_150924" data-name="Trazado 150924" d="M32.948,29A1.747,1.747,0,0,1,31.6,26.135L42.37,13.2a1.747,1.747,0,1,1,2.686,2.235L34.29,28.369A1.742,1.742,0,0,1,32.948,29" transform="translate(34.636 13.947)" fill="#fff"/>
        <path id="Trazado_150925" data-name="Trazado 150925" d="M48.626,10.893H11.574a1.747,1.747,0,0,1,0-3.494H48.626a1.747,1.747,0,0,1,0,3.494" transform="translate(10.912 8.213)" fill="#fff"/>
      </g>
    </g>
  </g>
</svg>
