<svg xmlns="http://www.w3.org/2000/svg" xmlns:xlink="http://www.w3.org/1999/xlink" width="400" height="454" viewBox="0 0 400 454">
  <defs>
    <clipPath id="clip-path">
      <rect id="Rect치ngulo_38816" data-name="Rect치ngulo 38816" width="113" height="92.958" fill="#fff"/>
    </clipPath>
  </defs>
  <g id="Grupo_157513" data-name="Grupo 157513" transform="translate(-600 -820.786)">
    <rect id="Rect치ngulo_38810" data-name="Rect치ngulo 38810" width="400" height="454" rx="10" transform="translate(600 820.786)" fill="#ff8578"/>
    <path id="Trazado_196193" data-name="Trazado 196193" d="M14.476,14.882h5.6V17H11.839V4.2h2.637ZM26.93,17a2.821,2.821,0,0,1-.255-.853,3.073,3.073,0,0,1-2.4,1.028,3.376,3.376,0,0,1-2.316-.809,2.6,2.6,0,0,1-.918-2.039,2.687,2.687,0,0,1,1.121-2.32A5.529,5.529,0,0,1,25.4,11.19h1.169v-.545a1.567,1.567,0,0,0-.338-1.055,1.331,1.331,0,0,0-1.068-.4,1.513,1.513,0,0,0-1.006.308,1.045,1.045,0,0,0-.365.844h-2.54a2.551,2.551,0,0,1,.51-1.529,3.37,3.37,0,0,1,1.441-1.1,5.253,5.253,0,0,1,2.092-.4,4.15,4.15,0,0,1,2.791.883,3.09,3.09,0,0,1,1.033,2.483V14.8a4.546,4.546,0,0,0,.378,2.048V17Zm-2.1-1.767a2.188,2.188,0,0,0,1.037-.25,1.645,1.645,0,0,0,.7-.672V12.676H25.62q-1.907,0-2.03,1.318l-.009.149a1.017,1.017,0,0,0,.334.782A1.3,1.3,0,0,0,24.829,15.233Zm11.391-.861a.818.818,0,0,0-.461-.734,5.241,5.241,0,0,0-1.481-.479q-3.393-.712-3.393-2.883a2.613,2.613,0,0,1,1.05-2.114,4.237,4.237,0,0,1,2.747-.848,4.56,4.56,0,0,1,2.9.853,2.687,2.687,0,0,1,1.085,2.215h-2.54a1.229,1.229,0,0,0-.352-.9,1.488,1.488,0,0,0-1.1-.356,1.52,1.52,0,0,0-.993.29.916.916,0,0,0-.352.738.783.783,0,0,0,.4.681,4.114,4.114,0,0,0,1.349.448,11.019,11.019,0,0,1,1.6.426,2.628,2.628,0,0,1,2.013,2.558,2.481,2.481,0,0,1-1.116,2.1,4.815,4.815,0,0,1-2.883.8,5.029,5.029,0,0,1-2.123-.426,3.561,3.561,0,0,1-1.455-1.169,2.716,2.716,0,0,1-.527-1.6h2.408a1.326,1.326,0,0,0,.5,1.037,1.987,1.987,0,0,0,1.248.36,1.839,1.839,0,0,0,1.1-.277A.861.861,0,0,0,36.22,14.372ZM47.285,8.527a3.17,3.17,0,0,1,2.54-1.213q3.094,0,3.138,3.595V17h-2.54V10.966a1.774,1.774,0,0,0-.352-1.211A1.505,1.505,0,0,0,48.9,9.362a1.728,1.728,0,0,0-1.617.863V17h-2.54V3.5h2.54Zm11.971,8.648a4.668,4.668,0,0,1-3.406-1.283,4.561,4.561,0,0,1-1.314-3.419v-.246a5.745,5.745,0,0,1,.554-2.562,4.064,4.064,0,0,1,1.569-1.74,4.4,4.4,0,0,1,2.316-.611,3.947,3.947,0,0,1,3.072,1.23,5,5,0,0,1,1.121,3.489v1.037H57.111a2.36,2.36,0,0,0,.743,1.494,2.245,2.245,0,0,0,1.569.563,2.742,2.742,0,0,0,2.294-1.063l1.248,1.4a3.813,3.813,0,0,1-1.547,1.261A5.075,5.075,0,0,1,59.256,17.176Zm-.29-7.813a1.587,1.587,0,0,0-1.226.512,2.651,2.651,0,0,0-.6,1.466h3.533v-.2a1.891,1.891,0,0,0-.457-1.311A1.638,1.638,0,0,0,58.966,9.362Zm10.986.51a6.9,6.9,0,0,0-.914-.07,1.86,1.86,0,0,0-1.89.976V17h-2.54V7.49h2.4l.07,1.134A2.354,2.354,0,0,1,69.2,7.314a2.662,2.662,0,0,1,.791.114Zm6.565,0A6.9,6.9,0,0,0,75.6,9.8a1.86,1.86,0,0,0-1.89.976V17h-2.54V7.49h2.4l.07,1.134a2.354,2.354,0,0,1,2.118-1.31,2.662,2.662,0,0,1,.791.114ZM82.986,17a2.821,2.821,0,0,1-.255-.853,3.073,3.073,0,0,1-2.4,1.028,3.376,3.376,0,0,1-2.316-.809,2.6,2.6,0,0,1-.918-2.039,2.687,2.687,0,0,1,1.121-2.32,5.529,5.529,0,0,1,3.239-.817h1.169v-.545a1.567,1.567,0,0,0-.338-1.055,1.331,1.331,0,0,0-1.068-.4,1.513,1.513,0,0,0-1.006.308,1.045,1.045,0,0,0-.365.844h-2.54a2.551,2.551,0,0,1,.51-1.529,3.37,3.37,0,0,1,1.441-1.1,5.253,5.253,0,0,1,2.092-.4,4.15,4.15,0,0,1,2.791.883,3.09,3.09,0,0,1,1.033,2.483V14.8a4.546,4.546,0,0,0,.378,2.048V17Zm-2.1-1.767a2.188,2.188,0,0,0,1.037-.25,1.645,1.645,0,0,0,.7-.672V12.676h-.949q-1.907,0-2.03,1.318l-.009.149a1.017,1.017,0,0,0,.334.782A1.3,1.3,0,0,0,80.886,15.233ZM89.508,7.49l.079,1.063A3.342,3.342,0,0,1,92.32,7.314a2.536,2.536,0,0,1,2.522,1.45A3.265,3.265,0,0,1,97.7,7.314a2.836,2.836,0,0,1,2.3.9,4.141,4.141,0,0,1,.756,2.711V17H98.209V10.922a1.818,1.818,0,0,0-.316-1.185,1.4,1.4,0,0,0-1.116-.374,1.585,1.585,0,0,0-1.582,1.092L95.2,17h-2.54V10.93a1.8,1.8,0,0,0-.325-1.2,1.414,1.414,0,0,0-1.107-.37,1.645,1.645,0,0,0-1.564.9V17h-2.54V7.49ZM105.39,17h-2.549V7.49h2.549Zm-2.7-11.971a1.251,1.251,0,0,1,.382-.94,1.648,1.648,0,0,1,2.079,0,1.244,1.244,0,0,1,.387.94,1.247,1.247,0,0,1-.391.949,1.629,1.629,0,0,1-2.065,0A1.247,1.247,0,0,1,102.691,5.029Zm9.167,12.146a4.668,4.668,0,0,1-3.406-1.283,4.561,4.561,0,0,1-1.314-3.419v-.246a5.745,5.745,0,0,1,.554-2.562,4.064,4.064,0,0,1,1.569-1.74,4.4,4.4,0,0,1,2.316-.611,3.947,3.947,0,0,1,3.072,1.23,5,5,0,0,1,1.121,3.489v1.037h-6.056a2.36,2.36,0,0,0,.743,1.494,2.245,2.245,0,0,0,1.569.563,2.742,2.742,0,0,0,2.294-1.063l1.248,1.4a3.813,3.813,0,0,1-1.547,1.261A5.075,5.075,0,0,1,111.858,17.176Zm-.29-7.813a1.587,1.587,0,0,0-1.226.512,2.651,2.651,0,0,0-.6,1.466h3.533v-.2a1.891,1.891,0,0,0-.457-1.311A1.638,1.638,0,0,0,111.568,9.362Zm7.98-1.872.079,1.1a3.32,3.32,0,0,1,2.733-1.274,2.759,2.759,0,0,1,2.25.888,4.142,4.142,0,0,1,.756,2.654V17h-2.54V10.9a1.654,1.654,0,0,0-.352-1.176,1.572,1.572,0,0,0-1.169-.366,1.747,1.747,0,0,0-1.608.916V17h-2.54V7.49Zm10.784-2.338V7.49h1.626V9.354h-1.626V14.1a1.133,1.133,0,0,0,.2.756,1.015,1.015,0,0,0,.773.229,4.051,4.051,0,0,0,.747-.062v1.925a5.229,5.229,0,0,1-1.538.229,2.425,2.425,0,0,1-2.725-2.7V9.354H126.4V7.49h1.389V5.152ZM138.885,17a2.821,2.821,0,0,1-.255-.853,3.073,3.073,0,0,1-2.4,1.028,3.376,3.376,0,0,1-2.316-.809A2.6,2.6,0,0,1,133,14.328a2.687,2.687,0,0,1,1.121-2.32,5.529,5.529,0,0,1,3.239-.817h1.169v-.545a1.567,1.567,0,0,0-.338-1.055,1.331,1.331,0,0,0-1.068-.4,1.513,1.513,0,0,0-1.006.308,1.045,1.045,0,0,0-.365.844h-2.54a2.551,2.551,0,0,1,.51-1.529,3.37,3.37,0,0,1,1.441-1.1,5.253,5.253,0,0,1,2.092-.4,4.15,4.15,0,0,1,2.791.883,3.09,3.09,0,0,1,1.033,2.483V14.8a4.546,4.546,0,0,0,.378,2.048V17Zm-2.1-1.767a2.188,2.188,0,0,0,1.037-.25,1.645,1.645,0,0,0,.7-.672V12.676h-.949q-1.907,0-2.03,1.318l-.009.149a1.017,1.017,0,0,0,.334.782A1.3,1.3,0,0,0,136.784,15.233Zm11.391-.861a.818.818,0,0,0-.461-.734,5.241,5.241,0,0,0-1.481-.479q-3.393-.712-3.393-2.883a2.613,2.613,0,0,1,1.05-2.114,4.237,4.237,0,0,1,2.747-.848,4.56,4.56,0,0,1,2.9.853,2.687,2.687,0,0,1,1.085,2.215h-2.54a1.229,1.229,0,0,0-.352-.9,1.488,1.488,0,0,0-1.1-.356,1.52,1.52,0,0,0-.993.29.916.916,0,0,0-.352.738.783.783,0,0,0,.4.681,4.114,4.114,0,0,0,1.349.448,11.019,11.019,0,0,1,1.6.426,2.628,2.628,0,0,1,2.013,2.558,2.481,2.481,0,0,1-1.116,2.1,4.815,4.815,0,0,1-2.883.8,5.029,5.029,0,0,1-2.123-.426,3.561,3.561,0,0,1-1.455-1.169,2.716,2.716,0,0,1-.527-1.6h2.408a1.326,1.326,0,0,0,.5,1.037,1.987,1.987,0,0,0,1.248.36,1.839,1.839,0,0,0,1.1-.277A.861.861,0,0,0,148.175,14.372ZM16.664,36.175a5.731,5.731,0,0,1,1-3.542,3.237,3.237,0,0,1,2.729-1.318,2.913,2.913,0,0,1,2.294,1.037V27.5h2.549V41H22.939l-.123-1.011a2.989,2.989,0,0,1-2.443,1.187,3.228,3.228,0,0,1-2.694-1.323A5.916,5.916,0,0,1,16.664,36.175Zm2.54.181a3.775,3.775,0,0,0,.466,2.057,1.516,1.516,0,0,0,1.354.715,1.7,1.7,0,0,0,1.661-1V34.36a1.675,1.675,0,0,0-1.644-1Q19.2,33.362,19.2,36.356Zm12.375,4.82a4.668,4.668,0,0,1-3.406-1.283,4.561,4.561,0,0,1-1.314-3.419v-.246a5.745,5.745,0,0,1,.554-2.562,4.064,4.064,0,0,1,1.569-1.74,4.4,4.4,0,0,1,2.316-.611,3.947,3.947,0,0,1,3.072,1.23,5,5,0,0,1,1.121,3.489v1.037H29.435a2.36,2.36,0,0,0,.743,1.494,2.245,2.245,0,0,0,1.569.563,2.742,2.742,0,0,0,2.294-1.063l1.248,1.4a3.813,3.813,0,0,1-1.547,1.261A5.075,5.075,0,0,1,31.579,41.176Zm-.29-7.813a1.587,1.587,0,0,0-1.226.512,2.651,2.651,0,0,0-.6,1.466h3.533v-.2a1.891,1.891,0,0,0-.457-1.311A1.638,1.638,0,0,0,31.289,33.362Zm18.686,2.971a5.7,5.7,0,0,1-1,3.52,3.2,3.2,0,0,1-2.694,1.323,2.963,2.963,0,0,1-2.329-1v4.482h-2.54V31.49H43.77l.088.932a2.985,2.985,0,0,1,2.408-1.107A3.22,3.22,0,0,1,49,32.615a5.858,5.858,0,0,1,.976,3.586Zm-2.54-.194a3.763,3.763,0,0,0-.47-2.054,1.53,1.53,0,0,0-1.367-.723,1.662,1.662,0,0,0-1.644.917v3.906a1.691,1.691,0,0,0,1.661.943Q47.435,39.128,47.435,36.139Zm9.457-2.267a6.9,6.9,0,0,0-.914-.07,1.86,1.86,0,0,0-1.89.976V41h-2.54V31.49h2.4l.07,1.134a2.354,2.354,0,0,1,2.118-1.31,2.662,2.662,0,0,1,.791.114Zm5.432,7.3a4.668,4.668,0,0,1-3.406-1.283A4.561,4.561,0,0,1,57.6,36.474v-.246a5.745,5.745,0,0,1,.554-2.562,4.064,4.064,0,0,1,1.569-1.74,4.4,4.4,0,0,1,2.316-.611,3.947,3.947,0,0,1,3.072,1.23,5,5,0,0,1,1.121,3.489v1.037H60.179a2.36,2.36,0,0,0,.743,1.494,2.245,2.245,0,0,0,1.569.563,2.742,2.742,0,0,0,2.294-1.063l1.248,1.4a3.813,3.813,0,0,1-1.547,1.261A5.075,5.075,0,0,1,62.323,41.176Zm-.29-7.813a1.587,1.587,0,0,0-1.226.512,2.651,2.651,0,0,0-.6,1.466h3.533v-.2a1.891,1.891,0,0,0-.457-1.311A1.638,1.638,0,0,0,62.033,33.362Zm10.793,5.01a.818.818,0,0,0-.461-.734,5.241,5.241,0,0,0-1.481-.479q-3.393-.712-3.393-2.883a2.613,2.613,0,0,1,1.05-2.114,4.237,4.237,0,0,1,2.747-.848,4.56,4.56,0,0,1,2.9.853,2.687,2.687,0,0,1,1.085,2.215h-2.54a1.229,1.229,0,0,0-.352-.9,1.488,1.488,0,0,0-1.1-.356,1.52,1.52,0,0,0-.993.29.916.916,0,0,0-.352.738.783.783,0,0,0,.4.681,4.114,4.114,0,0,0,1.349.448,11.019,11.019,0,0,1,1.6.426A2.628,2.628,0,0,1,75.3,38.267a2.481,2.481,0,0,1-1.116,2.1,4.815,4.815,0,0,1-2.883.8,5.029,5.029,0,0,1-2.123-.426,3.561,3.561,0,0,1-1.455-1.169,2.716,2.716,0,0,1-.527-1.6H69.6a1.326,1.326,0,0,0,.5,1.037,1.987,1.987,0,0,0,1.248.36,1.839,1.839,0,0,0,1.1-.277A.861.861,0,0,0,72.826,38.372Zm8.481,2.8A4.668,4.668,0,0,1,77.9,39.893a4.561,4.561,0,0,1-1.314-3.419v-.246a5.745,5.745,0,0,1,.554-2.562,4.064,4.064,0,0,1,1.569-1.74,4.4,4.4,0,0,1,2.316-.611,3.947,3.947,0,0,1,3.072,1.23,5,5,0,0,1,1.121,3.489v1.037H79.163a2.36,2.36,0,0,0,.743,1.494,2.245,2.245,0,0,0,1.569.563,2.742,2.742,0,0,0,2.294-1.063l1.248,1.4a3.813,3.813,0,0,1-1.547,1.261A5.075,5.075,0,0,1,81.308,41.176Zm-.29-7.813a1.587,1.587,0,0,0-1.226.512,2.651,2.651,0,0,0-.6,1.466h3.533v-.2a1.891,1.891,0,0,0-.457-1.311A1.638,1.638,0,0,0,81.018,33.362ZM89,31.49l.079,1.1a3.32,3.32,0,0,1,2.733-1.274,2.759,2.759,0,0,1,2.25.888,4.142,4.142,0,0,1,.756,2.654V41h-2.54V34.9a1.654,1.654,0,0,0-.352-1.176,1.572,1.572,0,0,0-1.169-.366,1.747,1.747,0,0,0-1.608.916V41h-2.54V31.49Zm10.784-2.338V31.49h1.626v1.863H99.782V38.1a1.133,1.133,0,0,0,.2.756,1.015,1.015,0,0,0,.773.229,4.051,4.051,0,0,0,.747-.062v1.925a5.229,5.229,0,0,1-1.538.229,2.425,2.425,0,0,1-2.725-2.7V33.354H95.854V31.49h1.389V29.152ZM108.334,41a2.821,2.821,0,0,1-.255-.853,3.073,3.073,0,0,1-2.4,1.028,3.376,3.376,0,0,1-2.316-.809,2.6,2.6,0,0,1-.918-2.039,2.687,2.687,0,0,1,1.121-2.32,5.529,5.529,0,0,1,3.239-.817h1.169v-.545a1.567,1.567,0,0,0-.338-1.055,1.331,1.331,0,0,0-1.068-.4,1.513,1.513,0,0,0-1.006.308,1.045,1.045,0,0,0-.365.844h-2.54a2.551,2.551,0,0,1,.51-1.529,3.37,3.37,0,0,1,1.441-1.1,5.253,5.253,0,0,1,2.092-.4,4.15,4.15,0,0,1,2.791.883,3.09,3.09,0,0,1,1.033,2.483V38.8a4.546,4.546,0,0,0,.378,2.048V41Zm-2.1-1.767a2.188,2.188,0,0,0,1.037-.25,1.645,1.645,0,0,0,.7-.672V36.676h-.949q-1.907,0-2.03,1.318l-.009.149a1.017,1.017,0,0,0,.334.782A1.3,1.3,0,0,0,106.233,39.233Zm10.2-.105a1.666,1.666,0,0,0,1.143-.387,1.355,1.355,0,0,0,.457-1.028h2.382a3.258,3.258,0,0,1-.527,1.771,3.48,3.48,0,0,1-1.419,1.248,4.442,4.442,0,0,1-1.991.444,4.129,4.129,0,0,1-3.217-1.3,5.13,5.13,0,0,1-1.178-3.582v-.167a5.071,5.071,0,0,1,1.169-3.507,4.08,4.08,0,0,1,3.208-1.31,4,4,0,0,1,2.861,1.015,3.594,3.594,0,0,1,1.094,2.7h-2.382a1.745,1.745,0,0,0-.457-1.206,1.7,1.7,0,0,0-2.5.183,3.749,3.749,0,0,0-.453,2.1v.264a3.8,3.8,0,0,0,.448,2.113A1.549,1.549,0,0,0,116.429,39.128ZM124.541,41h-2.549V31.49h2.549Zm-2.7-11.971a1.251,1.251,0,0,1,.382-.94,1.648,1.648,0,0,1,2.079,0,1.342,1.342,0,0,1,0,1.89,1.629,1.629,0,0,1-2.065,0A1.247,1.247,0,0,1,121.843,29.029Zm4.395,7.128a5.64,5.64,0,0,1,.545-2.522,3.989,3.989,0,0,1,1.569-1.714,4.577,4.577,0,0,1,2.377-.606,4.33,4.33,0,0,1,3.142,1.178,4.727,4.727,0,0,1,1.358,3.2l.018.65a4.97,4.97,0,0,1-1.222,3.511,4.735,4.735,0,0,1-6.561,0,5.058,5.058,0,0,1-1.226-3.586Zm2.54.18a3.555,3.555,0,0,0,.51,2.073,1.831,1.831,0,0,0,2.9.009,3.89,3.89,0,0,0,.519-2.267,3.519,3.519,0,0,0-.519-2.06,1.686,1.686,0,0,0-1.459-.731,1.658,1.658,0,0,0-1.441.726A3.955,3.955,0,0,0,128.777,36.338Zm2.452-8.838H134l-2.435,2.725H129.5Zm7.919,3.99.079,1.1a3.32,3.32,0,0,1,2.733-1.274,2.759,2.759,0,0,1,2.25.888,4.142,4.142,0,0,1,.756,2.654V41h-2.54V34.9a1.654,1.654,0,0,0-.352-1.176,1.572,1.572,0,0,0-1.169-.366,1.747,1.747,0,0,0-1.608.916V41h-2.54V31.49Zm-95.7,28.667A5.64,5.64,0,0,1,44,57.635a3.989,3.989,0,0,1,1.569-1.714,4.577,4.577,0,0,1,2.377-.606,4.33,4.33,0,0,1,3.142,1.178,4.727,4.727,0,0,1,1.358,3.2l.018.65a4.97,4.97,0,0,1-1.222,3.511,4.735,4.735,0,0,1-6.561,0,5.058,5.058,0,0,1-1.226-3.586Zm2.54.18a3.555,3.555,0,0,0,.51,2.073,1.831,1.831,0,0,0,2.9.009,3.89,3.89,0,0,0,.519-2.267,3.519,3.519,0,0,0-.519-2.06,1.686,1.686,0,0,0-1.459-.731,1.658,1.658,0,0,0-1.441.726A3.955,3.955,0,0,0,45.993,60.338ZM54.642,65V57.354H53.227V55.49h1.415v-.439a3.566,3.566,0,0,1,1.1-2.764,4.438,4.438,0,0,1,3.063-.971,10.16,10.16,0,0,1,2.883.519l-.369,2.1a11.247,11.247,0,0,0-1.336-.33,6.564,6.564,0,0,0-1.02-.075q-1.775,0-1.775,1.573v.387h1.872v1.863H57.19V65Zm8.235,0H60.328V55.49h2.549Zm4.482-9.51.079,1.063a3.342,3.342,0,0,1,2.733-1.239,2.536,2.536,0,0,1,2.522,1.45,3.265,3.265,0,0,1,2.856-1.45,2.836,2.836,0,0,1,2.3.9,4.141,4.141,0,0,1,.756,2.711V65H76.061V58.922a1.818,1.818,0,0,0-.316-1.185,1.4,1.4,0,0,0-1.116-.374,1.585,1.585,0,0,0-1.582,1.092L73.055,65h-2.54V58.93a1.8,1.8,0,0,0-.325-1.2,1.414,1.414,0,0,0-1.107-.37,1.645,1.645,0,0,0-1.564.9V65h-2.54V55.49ZM86.071,65a2.821,2.821,0,0,1-.255-.853,3.073,3.073,0,0,1-2.4,1.028,3.376,3.376,0,0,1-2.316-.809,2.6,2.6,0,0,1-.918-2.039,2.687,2.687,0,0,1,1.121-2.32,5.529,5.529,0,0,1,3.239-.817h1.169v-.545a1.567,1.567,0,0,0-.338-1.055,1.331,1.331,0,0,0-1.068-.4A1.513,1.513,0,0,0,83.3,57.5a1.045,1.045,0,0,0-.365.844h-2.54a2.551,2.551,0,0,1,.51-1.529,3.37,3.37,0,0,1,1.441-1.1,5.253,5.253,0,0,1,2.092-.4,4.15,4.15,0,0,1,2.791.883,3.09,3.09,0,0,1,1.033,2.483V62.8a4.546,4.546,0,0,0,.378,2.048V65Zm-2.1-1.767a2.188,2.188,0,0,0,1.037-.25,1.645,1.645,0,0,0,.7-.672V60.676h-.949q-1.907,0-2.03,1.318l-.009.149a1.017,1.017,0,0,0,.334.782A1.3,1.3,0,0,0,83.971,63.233ZM84.938,51.5h2.769l-2.435,2.725H83.206Zm8.314,1.652V55.49h1.626v1.863H93.252V62.1a1.133,1.133,0,0,0,.2.756,1.015,1.015,0,0,0,.773.229,4.051,4.051,0,0,0,.747-.062v1.925a5.229,5.229,0,0,1-1.538.229,2.425,2.425,0,0,1-2.725-2.7V57.354H89.323V55.49h1.389V53.152ZM98.974,65H96.425V55.49h2.549Zm-2.7-11.971a1.251,1.251,0,0,1,.382-.94,1.648,1.648,0,0,1,2.079,0,1.342,1.342,0,0,1,0,1.89,1.629,1.629,0,0,1-2.065,0A1.247,1.247,0,0,1,96.275,53.029Zm8.745,10.1a1.666,1.666,0,0,0,1.143-.387,1.355,1.355,0,0,0,.457-1.028H109a3.258,3.258,0,0,1-.527,1.771,3.48,3.48,0,0,1-1.419,1.248,4.442,4.442,0,0,1-1.991.444,4.129,4.129,0,0,1-3.217-1.3A5.13,5.13,0,0,1,100.67,60.3v-.167a5.071,5.071,0,0,1,1.169-3.507,4.08,4.08,0,0,1,3.208-1.31,4,4,0,0,1,2.861,1.015,3.594,3.594,0,0,1,1.094,2.7H106.62a1.745,1.745,0,0,0-.457-1.206,1.7,1.7,0,0,0-2.5.183,3.749,3.749,0,0,0-.453,2.1v.264a3.8,3.8,0,0,0,.448,2.113A1.549,1.549,0,0,0,105.021,63.128ZM115.963,65a2.821,2.821,0,0,1-.255-.853,3.073,3.073,0,0,1-2.4,1.028,3.376,3.376,0,0,1-2.316-.809,2.6,2.6,0,0,1-.918-2.039,2.687,2.687,0,0,1,1.121-2.32,5.529,5.529,0,0,1,3.239-.817H115.6v-.545a1.567,1.567,0,0,0-.338-1.055,1.331,1.331,0,0,0-1.068-.4,1.513,1.513,0,0,0-1.006.308,1.045,1.045,0,0,0-.365.844h-2.54a2.551,2.551,0,0,1,.51-1.529,3.37,3.37,0,0,1,1.441-1.1,5.253,5.253,0,0,1,2.092-.4,4.15,4.15,0,0,1,2.791.883,3.09,3.09,0,0,1,1.033,2.483V62.8a4.546,4.546,0,0,0,.378,2.048V65Zm-2.1-1.767a2.188,2.188,0,0,0,1.037-.25,1.645,1.645,0,0,0,.7-.672V60.676h-.949q-1.907,0-2.03,1.318l-.009.149a1.017,1.017,0,0,0,.334.782A1.3,1.3,0,0,0,113.862,63.233Z" transform="translate(719 1095.786)" fill="#12263f"/>
    <g id="Grupo_145421" data-name="Grupo 145421" transform="translate(743.5 965.308)">
      <g id="Grupo_145420" data-name="Grupo 145420" transform="translate(0 0)" clip-path="url(#clip-path)">
        <path id="Trazado_150849" data-name="Trazado 150849" d="M33.182,54.534H4.144A1.737,1.737,0,0,1,2.406,52.8V51.219a16.257,16.257,0,1,1,32.514,0V52.8a1.736,1.736,0,0,1-1.738,1.738m-27.3-3.476h25.56a12.781,12.781,0,0,0-25.56,0" transform="translate(2.644 38.423)" fill="#fff"/>
        <path id="Trazado_150850" data-name="Trazado 150850" d="M14.408,42.724a8.13,8.13,0,1,1,8.13-8.13,8.139,8.139,0,0,1-8.13,8.13m0-12.783a4.654,4.654,0,1,0,4.654,4.654,4.659,4.659,0,0,0-4.654-4.654" transform="translate(6.9 29.087)" fill="#fff"/>
        <path id="Trazado_150851" data-name="Trazado 150851" d="M7.264,48.71a1.739,1.739,0,0,1-1.738-1.738V42A1.738,1.738,0,1,1,9,42v4.971A1.739,1.739,0,0,1,7.264,48.71" transform="translate(6.073 44.25)" fill="#fff"/>
        <path id="Trazado_150852" data-name="Trazado 150852" d="M14.858,48.71a1.739,1.739,0,0,1-1.738-1.738V42A1.738,1.738,0,1,1,16.6,42v4.971a1.739,1.739,0,0,1-1.738,1.738" transform="translate(14.419 44.25)" fill="#fff"/>
        <path id="Trazado_150853" data-name="Trazado 150853" d="M14.408,42.724a8.13,8.13,0,1,1,8.13-8.13,8.139,8.139,0,0,1-8.13,8.13m0-12.783a4.654,4.654,0,1,0,4.654,4.654,4.659,4.659,0,0,0-4.654-4.654" transform="translate(6.9 29.087)" fill="#fff"/>
        <path id="Trazado_150854" data-name="Trazado 150854" d="M49.948,54.534H20.91A1.737,1.737,0,0,1,19.172,52.8V51.219a16.258,16.258,0,1,1,32.516,0V52.8a1.738,1.738,0,0,1-1.74,1.738m-27.3-3.476H48.21a12.781,12.781,0,0,0-25.56,0" transform="translate(21.071 38.423)" fill="#fff"/>
        <path id="Trazado_150855" data-name="Trazado 150855" d="M31.174,42.724a8.13,8.13,0,1,1,8.13-8.13,8.139,8.139,0,0,1-8.13,8.13m0-12.783a4.654,4.654,0,1,0,4.654,4.654,4.659,4.659,0,0,0-4.654-4.654" transform="translate(25.326 29.087)" fill="#fff"/>
        <path id="Trazado_150856" data-name="Trazado 150856" d="M24.032,48.71a1.739,1.739,0,0,1-1.74-1.738V42a1.738,1.738,0,1,1,3.476,0v4.971a1.738,1.738,0,0,1-1.736,1.738" transform="translate(24.5 44.25)" fill="#fff"/>
        <path id="Trazado_150857" data-name="Trazado 150857" d="M31.624,48.71a1.737,1.737,0,0,1-1.738-1.738V42a1.738,1.738,0,1,1,3.476,0v4.971a1.737,1.737,0,0,1-1.738,1.738" transform="translate(32.846 44.25)" fill="#fff"/>
        <path id="Trazado_150858" data-name="Trazado 150858" d="M31.174,42.724a8.13,8.13,0,1,1,8.13-8.13,8.139,8.139,0,0,1-8.13,8.13m0-12.783a4.654,4.654,0,1,0,4.654,4.654,4.659,4.659,0,0,0-4.654-4.654" transform="translate(25.326 29.087)" fill="#fff"/>
        <path id="Trazado_150859" data-name="Trazado 150859" d="M14.372,31.311a1.739,1.739,0,0,1-1.413-2.752,14.832,14.832,0,0,1,24.068-.065,1.738,1.738,0,1,1-2.815,2.04,11.353,11.353,0,0,0-18.425.05,1.736,1.736,0,0,1-1.415.726" transform="translate(13.886 24.581)" fill="#fff"/>
        <path id="Trazado_150860" data-name="Trazado 150860" d="M29.411,32.752H16.326a1.738,1.738,0,1,1,0-3.476H29.411a1.738,1.738,0,0,1,0,3.476" transform="translate(16.033 32.176)" fill="#fff"/>
        <path id="Trazado_150861" data-name="Trazado 150861" d="M22.459,29.706a7.5,7.5,0,1,1,7.5-7.5,7.507,7.507,0,0,1-7.5,7.5m0-11.522a4.022,4.022,0,1,0,4.022,4.022,4.028,4.028,0,0,0-4.022-4.022" transform="translate(16.443 16.166)" fill="#fff"/>
        <path id="Trazado_150862" data-name="Trazado 150862" d="M16.7,35.1a1.739,1.739,0,0,1-1.738-1.738V28.879a1.738,1.738,0,0,1,3.476,0V33.36A1.739,1.739,0,0,1,16.7,35.1" transform="translate(16.443 29.83)" fill="#fff"/>
        <path id="Trazado_150863" data-name="Trazado 150863" d="M22.187,35.1a1.739,1.739,0,0,1-1.738-1.738V28.879a1.738,1.738,0,0,1,3.476,0V33.36A1.739,1.739,0,0,1,22.187,35.1" transform="translate(22.474 29.83)" fill="#fff"/>
        <path id="Trazado_150864" data-name="Trazado 150864" d="M22.459,29.706a7.5,7.5,0,1,1,7.5-7.5,7.507,7.507,0,0,1-7.5,7.5m0-11.522a4.022,4.022,0,1,0,4.022,4.022,4.028,4.028,0,0,0-4.022-4.022" transform="translate(16.443 16.166)" fill="#fff"/>
        <path id="Trazado_150865" data-name="Trazado 150865" d="M31.139,31.312a1.739,1.739,0,0,1-1.413-2.752,14.828,14.828,0,0,1,24.112,0,1.738,1.738,0,1,1-2.823,2.028,11.349,11.349,0,0,0-18.461,0,1.736,1.736,0,0,1-1.415.726" transform="translate(32.313 24.58)" fill="#fff"/>
        <path id="Trazado_150866" data-name="Trazado 150866" d="M45.853,32.752H33.194a1.738,1.738,0,0,1,0-3.476H45.853a1.738,1.738,0,1,1,0,3.476" transform="translate(34.572 32.176)" fill="#fff"/>
        <path id="Trazado_150867" data-name="Trazado 150867" d="M39.226,29.706a7.5,7.5,0,1,1,7.5-7.5,7.507,7.507,0,0,1-7.5,7.5m0-11.522a4.022,4.022,0,1,0,4.022,4.022,4.028,4.028,0,0,0-4.022-4.022" transform="translate(34.871 16.166)" fill="#fff"/>
        <path id="Trazado_150868" data-name="Trazado 150868" d="M33.466,35.1a1.739,1.739,0,0,1-1.738-1.738V28.879a1.738,1.738,0,1,1,3.476,0V33.36A1.737,1.737,0,0,1,33.466,35.1" transform="translate(34.871 29.83)" fill="#fff"/>
        <path id="Trazado_150869" data-name="Trazado 150869" d="M38.954,35.1a1.739,1.739,0,0,1-1.738-1.738V28.879a1.738,1.738,0,0,1,3.476,0V33.36A1.739,1.739,0,0,1,38.954,35.1" transform="translate(40.902 29.83)" fill="#fff"/>
        <path id="Trazado_150870" data-name="Trazado 150870" d="M39.226,29.706a7.5,7.5,0,1,1,7.5-7.5,7.507,7.507,0,0,1-7.5,7.5m0-11.522a4.022,4.022,0,1,0,4.022,4.022,4.028,4.028,0,0,0-4.022-4.022" transform="translate(34.871 16.166)" fill="#fff"/>
        <path id="Trazado_150871" data-name="Trazado 150871" d="M66.714,54.534H37.678a1.738,1.738,0,0,1-1.74-1.738V51.219a16.258,16.258,0,1,1,32.516,0V52.8a1.738,1.738,0,0,1-1.74,1.738m-27.3-3.476h25.56a12.781,12.781,0,0,0-25.56,0" transform="translate(39.497 38.423)" fill="#fff"/>
        <path id="Trazado_150872" data-name="Trazado 150872" d="M47.94,42.724a8.13,8.13,0,1,1,8.13-8.13,8.139,8.139,0,0,1-8.13,8.13m0-12.783a4.654,4.654,0,1,0,4.654,4.654,4.659,4.659,0,0,0-4.654-4.654" transform="translate(43.753 29.087)" fill="#fff"/>
        <path id="Trazado_150873" data-name="Trazado 150873" d="M40.8,48.71a1.739,1.739,0,0,1-1.738-1.738V42a1.738,1.738,0,1,1,3.476,0v4.971A1.737,1.737,0,0,1,40.8,48.71" transform="translate(42.927 44.25)" fill="#fff"/>
        <path id="Trazado_150874" data-name="Trazado 150874" d="M48.39,48.71a1.739,1.739,0,0,1-1.738-1.738V42a1.738,1.738,0,1,1,3.476,0v4.971A1.737,1.737,0,0,1,48.39,48.71" transform="translate(51.273 44.25)" fill="#fff"/>
        <path id="Trazado_150875" data-name="Trazado 150875" d="M47.94,42.724a8.13,8.13,0,1,1,8.13-8.13,8.139,8.139,0,0,1-8.13,8.13m0-12.783a4.654,4.654,0,1,0,4.654,4.654,4.659,4.659,0,0,0-4.654-4.654" transform="translate(43.753 29.087)" fill="#fff"/>
        <path id="Trazado_150876" data-name="Trazado 150876" d="M107.4,11.209H5.6A5.6,5.6,0,0,1,5.6,0H107.4a5.6,5.6,0,1,1,0,11.209M5.6,3.476a2.127,2.127,0,1,0,0,4.255H107.4a2.127,2.127,0,0,0,0-4.255Z" transform="translate(0 0.001)" fill="#fff"/>
        <path id="Trazado_150877" data-name="Trazado 150877" d="M107.095,66.5a1.739,1.739,0,0,1-1.738-1.738V7.162H4.781v57.6a1.739,1.739,0,0,1-3.478,0V5.422a1.739,1.739,0,0,1,1.74-1.738H107.095a1.737,1.737,0,0,1,1.738,1.738v59.34a1.737,1.737,0,0,1-1.738,1.738" transform="translate(1.432 4.05)" fill="#fff"/>
        <path id="Trazado_150878" data-name="Trazado 150878" d="M14,33.805a1.739,1.739,0,0,1-1.738-1.738V12.716A1.739,1.739,0,0,1,14,10.976h7.97a1.739,1.739,0,0,1,1.738,1.74v3.757a1.738,1.738,0,1,1-3.476,0V14.454H15.741V32.067A1.739,1.739,0,0,1,14,33.805" transform="translate(13.48 12.064)" fill="#fff"/>
        <path id="Trazado_150879" data-name="Trazado 150879" d="M29.923,28.979a1.739,1.739,0,0,1-1.738-1.738V13.1H23.691v4.859a1.738,1.738,0,1,1-3.476,0v-6.6a1.737,1.737,0,0,1,1.738-1.738h7.97a1.737,1.737,0,0,1,1.738,1.738V27.241a1.739,1.739,0,0,1-1.738,1.738" transform="translate(22.217 10.578)" fill="#fff"/>
        <path id="Trazado_150880" data-name="Trazado 150880" d="M29.9,30.384a1.739,1.739,0,0,1-1.738-1.738V10.084A1.737,1.737,0,0,1,29.9,8.346h7.97a1.737,1.737,0,0,1,1.738,1.738v9.28a1.738,1.738,0,1,1-3.476,0V11.822H31.642V28.646A1.739,1.739,0,0,1,29.9,30.384" transform="translate(30.956 9.173)" fill="#fff"/>
        <path id="Trazado_150881" data-name="Trazado 150881" d="M45.825,31.954a1.739,1.739,0,0,1-1.74-1.738V10.4H39.593V20.934a1.738,1.738,0,1,1-3.476,0V8.655a1.737,1.737,0,0,1,1.736-1.738h7.972a1.738,1.738,0,0,1,1.736,1.738V30.216a1.738,1.738,0,0,1-1.736,1.738" transform="translate(39.694 7.603)" fill="#fff"/>
        <path id="Trazado_150882" data-name="Trazado 150882" d="M109.338,46.106h-107a1.738,1.738,0,1,1,0-3.476h107a1.738,1.738,0,1,1,0,3.476" transform="translate(0.661 46.853)" fill="#fff"/>
      </g>
    </g>
  </g>
</svg>
