<svg id="Grupo_145560" data-name="Grupo 145560" xmlns="http://www.w3.org/2000/svg" xmlns:xlink="http://www.w3.org/1999/xlink" width="410" height="398.721" viewBox="0 0 410 398.721">
  <defs>
    <clipPath id="clip-path">
      <rect id="Rect치ngulo_38935" data-name="Rect치ngulo 38935" width="410" height="398.721" fill="#43a99b"/>
    </clipPath>
  </defs>
  <g id="Grupo_145559" data-name="Grupo 145559" clip-path="url(#clip-path)">
    <path id="Trazado_151337" data-name="Trazado 151337" d="M390.606,206.543,217.235,379.916a19.433,19.433,0,0,1-27.481,0L16.379,206.543a19.435,19.435,0,0,1,0-27.479L189.754,5.692a19.43,19.43,0,0,1,27.481,0L390.606,179.065a19.431,19.431,0,0,1,0,27.479" transform="translate(10.081 0)" fill="#ffc743"/>
    <path id="Trazado_151338" data-name="Trazado 151338" d="M206.586,111.72H179.838a3.377,3.377,0,0,1-3.377-3.373V58.313a3.378,3.378,0,0,1,3.377-3.373h26.748a3.378,3.378,0,0,1,3.375,3.373v50.034a3.377,3.377,0,0,1-3.375,3.373M179.838,56.337a1.98,1.98,0,0,0-1.98,1.976v50.034a1.98,1.98,0,0,0,1.98,1.976h26.748a1.978,1.978,0,0,0,1.978-1.976V58.313a1.978,1.978,0,0,0-1.978-1.976Z" transform="translate(166.412 51.811)" fill="#00003e"/>
    <path id="Trazado_151339" data-name="Trazado 151339" d="M189.742,83.723a2.59,2.59,0,1,1,2.59-2.59,2.593,2.593,0,0,1-2.59,2.59m0-3.783a1.193,1.193,0,1,0,1.193,1.193,1.195,1.195,0,0,0-1.193-1.193" transform="translate(176.494 74.07)" fill="#00003e"/>
    <path id="Trazado_151340" data-name="Trazado 151340" d="M184.194,59.962a1.054,1.054,0,1,1-1.055-1.053,1.055,1.055,0,0,1,1.055,1.053" transform="translate(171.717 55.554)" fill="#00003e"/>
    <path id="Trazado_151341" data-name="Trazado 151341" d="M186.487,59.962a1.054,1.054,0,1,1-1.055-1.053,1.055,1.055,0,0,1,1.055,1.053" transform="translate(173.879 55.554)" fill="#00003e"/>
    <path id="Trazado_151342" data-name="Trazado 151342" d="M188.781,59.962a1.054,1.054,0,1,1-1.055-1.053,1.055,1.055,0,0,1,1.055,1.053" transform="translate(176.043 55.554)" fill="#00003e"/>
    <path id="Trazado_151343" data-name="Trazado 151343" d="M195.928,63.441H181.781a.7.7,0,0,1,0-1.4h14.147a.7.7,0,1,1,0,1.4" transform="translate(170.771 58.511)" fill="#00003e"/>
    <path id="Trazado_151344" data-name="Trazado 151344" d="M195.928,66.253H181.781a.7.7,0,0,1,0-1.4h14.147a.7.7,0,1,1,0,1.4" transform="translate(170.771 61.163)" fill="#00003e"/>
    <path id="Trazado_151345" data-name="Trazado 151345" d="M195.928,69.066H181.781a.7.7,0,0,1,0-1.4h14.147a.7.7,0,1,1,0,1.4" transform="translate(170.771 63.816)" fill="#00003e"/>
    <path id="Trazado_151346" data-name="Trazado 151346" d="M195.928,71.878H181.781a.7.7,0,0,1,0-1.4h14.147a.7.7,0,1,1,0,1.4" transform="translate(170.771 66.467)" fill="#00003e"/>
    <path id="Trazado_151347" data-name="Trazado 151347" d="M195.928,74.691H181.781a.7.7,0,0,1,0-1.4h14.147a.7.7,0,1,1,0,1.4" transform="translate(170.771 69.12)" fill="#00003e"/>
    <path id="Trazado_151348" data-name="Trazado 151348" d="M195.928,77.5H181.781a.7.7,0,0,1,0-1.4h14.147a.7.7,0,1,1,0,1.4" transform="translate(170.771 71.772)" fill="#00003e"/>
    <path id="Trazado_151349" data-name="Trazado 151349" d="M180.952,102.861H174.04a2.484,2.484,0,0,1-2.481-2.481V61.143a2.484,2.484,0,0,1,2.481-2.481h7.246a.7.7,0,1,1,0,1.4H174.04a1.087,1.087,0,0,0-1.084,1.084v39.236a1.087,1.087,0,0,0,1.084,1.084h6.911a.7.7,0,1,1,0,1.4" transform="translate(161.789 55.321)" fill="#00003e"/>
    <path id="Trazado_151350" data-name="Trazado 151350" d="M175.638,63.121a1.054,1.054,0,1,1-1.053-1.055,1.054,1.054,0,0,1,1.053,1.055" transform="translate(163.648 58.532)" fill="#00003e"/>
    <path id="Trazado_151351" data-name="Trazado 151351" d="M201.185,102.861h-6.913a.7.7,0,1,1,0-1.4h6.913a1.086,1.086,0,0,0,1.084-1.084V61.143a1.086,1.086,0,0,0-1.084-1.084h-7.246a.7.7,0,1,1,0-1.4h7.246a2.483,2.483,0,0,1,2.479,2.481v39.236a2.483,2.483,0,0,1-2.479,2.481" transform="translate(182.236 55.321)" fill="#00003e"/>
    <path id="Trazado_151352" data-name="Trazado 151352" d="M195.55,63.121a1.054,1.054,0,1,0,1.053-1.055,1.054,1.054,0,0,0-1.053,1.055" transform="translate(184.414 58.532)" fill="#00003e"/>
    <path id="Trazado_151353" data-name="Trazado 151353" d="M253.661,110.481H134.638a.972.972,0,1,1,0-1.943H252.69V82.367a4.5,4.5,0,0,0-4.5-4.5H82.451a4.505,4.505,0,0,0-4.5,4.5v26.171l6.925-.041a.972.972,0,1,1,1.943,0v1.012a.971.971,0,0,1-.972.972H76.978a.972.972,0,0,1-.972-.972V82.367a6.45,6.45,0,0,1,6.445-6.441H248.19a6.449,6.449,0,0,1,6.443,6.441V109.51a.972.972,0,0,1-.972.972" transform="translate(71.678 71.602)" fill="#00003e"/>
    <path id="Trazado_151354" data-name="Trazado 151354" d="M248.19,211.15H82.449a6.45,6.45,0,0,1-6.443-6.443V99.436a.972.972,0,0,1,.972-.972h7.9V90.317a3.713,3.713,0,0,1,3.707-3.709H131.9a3.713,3.713,0,0,1,3.705,3.709v8.147H253.661a.972.972,0,0,1,.972.972V204.707a6.45,6.45,0,0,1-6.443,6.443M77.949,100.408v104.3a4.505,4.505,0,0,0,4.5,4.5H248.19a4.505,4.505,0,0,0,4.5-4.5v-104.3H134.636a.973.973,0,0,1-.972-.97l0-9.121a1.767,1.767,0,0,0-1.762-1.766H88.581a1.767,1.767,0,0,0-1.764,1.766v8.106a.971.971,0,0,1-.542.87.874.874,0,0,1,.012.142.972.972,0,0,1-.972.972Z" transform="translate(71.678 81.676)" fill="#00003e"/>
    <path id="Trazado_151355" data-name="Trazado 151355" d="M87.422,88.662a4.206,4.206,0,1,1,4.2-4.207,4.213,4.213,0,0,1-4.2,4.207m0-6.468a2.263,2.263,0,1,0,2.262,2.262,2.264,2.264,0,0,0-2.262-2.262" transform="translate(78.476 75.681)" fill="#00003e"/>
    <path id="Trazado_151356" data-name="Trazado 151356" d="M94.457,88.662a4.206,4.206,0,1,1,4.207-4.207,4.213,4.213,0,0,1-4.207,4.207m0-6.468a2.263,2.263,0,1,0,2.264,2.262,2.266,2.266,0,0,0-2.264-2.262" transform="translate(85.111 75.681)" fill="#00003e"/>
    <path id="Trazado_151357" data-name="Trazado 151357" d="M101.493,88.662a4.206,4.206,0,1,1,4.207-4.207,4.213,4.213,0,0,1-4.207,4.207m0-6.468a2.263,2.263,0,1,0,2.264,2.262,2.266,2.266,0,0,0-2.264-2.262" transform="translate(91.746 75.681)" fill="#00003e"/>
    <path id="Trazado_151358" data-name="Trazado 151358" d="M159.648,100.3H108.917V90.433a3.712,3.712,0,0,1,3.707-3.707h43.318a3.711,3.711,0,0,1,3.705,3.707ZM110.86,98.353h46.845v-7.92a1.765,1.765,0,0,0-1.762-1.764H112.624a1.765,1.765,0,0,0-1.764,1.764Z" transform="translate(102.715 81.787)" fill="#00003e"/>
    <path id="Trazado_151359" data-name="Trazado 151359" d="M187.458,100.3H136.725V90.433a3.712,3.712,0,0,1,3.707-3.707h43.318a3.712,3.712,0,0,1,3.707,3.707Zm-48.79-1.943h46.847v-7.92a1.766,1.766,0,0,0-1.764-1.764H140.432a1.765,1.765,0,0,0-1.764,1.764Z" transform="translate(128.939 81.787)" fill="#00003e"/>
    <path id="Trazado_151360" data-name="Trazado 151360" d="M99.234,166.341H89.589a2.918,2.918,0,0,1-2.915-2.915V117.621a2.918,2.918,0,0,1,2.915-2.915h9.645a2.918,2.918,0,0,1,2.915,2.915v45.806a2.918,2.918,0,0,1-2.915,2.915m-9.645-49.692a.973.973,0,0,0-.972.972v45.806a.972.972,0,0,0,.972.972h9.645a.972.972,0,0,0,.972-.972V117.621a.973.973,0,0,0-.972-.972Z" transform="translate(81.738 108.174)" fill="#00003e"/>
    <path id="Trazado_151361" data-name="Trazado 151361" d="M109.576,165.08H101.24a3.573,3.573,0,0,1-3.569-3.569v-41.9a3.574,3.574,0,0,1,3.569-3.571h8.336a3.573,3.573,0,0,1,3.567,3.571v41.9a3.573,3.573,0,0,1-3.567,3.569m-8.336-47.094a1.629,1.629,0,0,0-1.626,1.628v41.9a1.627,1.627,0,0,0,1.626,1.626h8.336a1.627,1.627,0,0,0,1.624-1.626v-41.9a1.628,1.628,0,0,0-1.624-1.628Z" transform="translate(92.109 109.435)" fill="#00003e"/>
    <path id="Trazado_151362" data-name="Trazado 151362" d="M120.282,153.281h-8.009a3.473,3.473,0,0,1-3.468-3.468V132.024a3.473,3.473,0,0,1,3.468-3.468h8.009a3.473,3.473,0,0,1,3.468,3.468v17.789a3.473,3.473,0,0,1-3.468,3.468M112.272,130.5a1.527,1.527,0,0,0-1.525,1.525v17.789a1.527,1.527,0,0,0,1.525,1.525h8.009a1.527,1.527,0,0,0,1.525-1.525V132.024a1.527,1.527,0,0,0-1.525-1.525Z" transform="translate(102.608 121.235)" fill="#00003e"/>
    <path id="Trazado_151363" data-name="Trazado 151363" d="M131.57,165.08h-8.336a3.573,3.573,0,0,1-3.569-3.569v-41.9a3.574,3.574,0,0,1,3.569-3.571h8.336a3.574,3.574,0,0,1,3.569,3.571v41.9a3.573,3.573,0,0,1-3.569,3.569m-8.336-47.094a1.63,1.63,0,0,0-1.626,1.628v41.9a1.628,1.628,0,0,0,1.626,1.626h8.336a1.628,1.628,0,0,0,1.626-1.626v-41.9a1.63,1.63,0,0,0-1.626-1.628Z" transform="translate(112.851 109.435)" fill="#00003e"/>
    <path id="Trazado_151364" data-name="Trazado 151364" d="M142.567,158.775h-8.336a3.573,3.573,0,0,1-3.569-3.569V126.3a3.573,3.573,0,0,1,3.569-3.569h8.336a3.573,3.573,0,0,1,3.567,3.569v28.907a3.573,3.573,0,0,1-3.567,3.569m-8.336-34.1a1.627,1.627,0,0,0-1.626,1.626v28.907a1.627,1.627,0,0,0,1.626,1.626h8.336a1.627,1.627,0,0,0,1.624-1.626V126.3a1.627,1.627,0,0,0-1.624-1.626Z" transform="translate(123.221 115.74)" fill="#00003e"/>
    <path id="Trazado_151365" data-name="Trazado 151365" d="M153.562,176.43h-8.334a3.573,3.573,0,0,1-3.569-3.567V107.577a3.573,3.573,0,0,1,3.569-3.569h8.334a3.573,3.573,0,0,1,3.569,3.569v65.285a3.573,3.573,0,0,1-3.569,3.567m-8.334-70.478a1.627,1.627,0,0,0-1.626,1.626v65.285a1.627,1.627,0,0,0,1.626,1.624h8.334a1.627,1.627,0,0,0,1.626-1.624V107.577a1.627,1.627,0,0,0-1.626-1.626Z" transform="translate(133.592 98.085)" fill="#00003e"/>
    <path id="Trazado_151366" data-name="Trazado 151366" d="M164.559,178.952h-8.334a3.573,3.573,0,0,1-3.569-3.569V104.9a3.574,3.574,0,0,1,3.569-3.571h8.334a3.574,3.574,0,0,1,3.569,3.571v70.478a3.573,3.573,0,0,1-3.569,3.569m-8.334-75.676A1.629,1.629,0,0,0,154.6,104.9v70.478a1.627,1.627,0,0,0,1.626,1.626h8.334a1.627,1.627,0,0,0,1.626-1.626V104.9a1.629,1.629,0,0,0-1.626-1.628Z" transform="translate(143.963 95.563)" fill="#00003e"/>
    <path id="Trazado_151367" data-name="Trazado 151367" d="M234.4,186.983H82.951a.969.969,0,0,1-.972-.972v-83.9a.972.972,0,1,1,1.943,0v82.93H234.4a.972.972,0,1,1,0,1.943" transform="translate(77.311 95.38)" fill="#00003e"/>
    <path id="Trazado_151368" data-name="Trazado 151368" d="M98.078,86.023H88.363a.972.972,0,0,1,0-1.943h9.715a.972.972,0,0,1,0,1.943m-19.431,0H68.932a.972.972,0,0,1,0-1.943h9.715a.972.972,0,0,1,0,1.943m-19.431,0H49.5a.972.972,0,1,1,0-1.943h9.715a.972.972,0,1,1,0,1.943" transform="translate(45.766 79.292)" fill="#00003e"/>
    <path id="Trazado_151369" data-name="Trazado 151369" d="M9.624,86.8a.549.549,0,0,1-.35.7.779.779,0,0,1-.22.031h-.01a.716.716,0,0,1-.391-.111.972.972,0,0,1-.319-.35,2.683,2.683,0,0,1-.21-1.2.854.854,0,0,0-.12-.429.942.942,0,0,0-.3-.291,1.917,1.917,0,0,0-.56-.239H5.965v2.168a.555.555,0,0,1-.56.55.548.548,0,0,1-.55-.55v-5.9a.542.542,0,0,1,.55-.55H7.2a2.138,2.138,0,0,1,1.36,3.789,1.525,1.525,0,0,1,.35.371,1.887,1.887,0,0,1,.33,1.078,2.5,2.5,0,0,0,.039.591.532.532,0,0,1,.35.338m-1.4-4.018a1.031,1.031,0,0,0-1.03-1.04H5.965v2.06H7.2a1.027,1.027,0,0,0,1.03-1.02" transform="translate(4.579 76.044)" fill="#00003e"/>
    <path id="Trazado_151370" data-name="Trazado 151370" d="M8.606,85.934a2.5,2.5,0,0,1-.69-1.76,2.579,2.579,0,0,1,.69-1.749,2.332,2.332,0,0,1,1.72-.76,2.21,2.21,0,0,1,1.669.76,2.491,2.491,0,0,1,.7,1.749,2.414,2.414,0,0,1-.7,1.76,2.21,2.21,0,0,1-1.669.76,2.332,2.332,0,0,1-1.72-.76m.4-1.76a1.615,1.615,0,0,0,.359,1.059,1.353,1.353,0,0,0,.96.371,1.3,1.3,0,0,0,.919-.371,1.528,1.528,0,0,0,.391-1.059,1.5,1.5,0,0,0-.391-1.04,1.409,1.409,0,0,0-.919-.379,1.459,1.459,0,0,0-.96.379,1.584,1.584,0,0,0-.359,1.04" transform="translate(7.465 77.015)" fill="#00003e"/>
    <path id="Trazado_151371" data-name="Trazado 151371" d="M11.819,85.934a2.5,2.5,0,0,1-.69-1.76,2.579,2.579,0,0,1,.69-1.749,2.332,2.332,0,0,1,1.72-.76,2.21,2.21,0,0,1,1.669.76,2.491,2.491,0,0,1,.7,1.749,2.414,2.414,0,0,1-.7,1.76,2.21,2.21,0,0,1-1.669.76,2.332,2.332,0,0,1-1.72-.76m.4-1.76a1.615,1.615,0,0,0,.359,1.059,1.353,1.353,0,0,0,.96.371,1.3,1.3,0,0,0,.919-.371,1.528,1.528,0,0,0,.391-1.059,1.5,1.5,0,0,0-.391-1.04,1.409,1.409,0,0,0-.919-.379,1.459,1.459,0,0,0-.96.379,1.584,1.584,0,0,0-.359,1.04" transform="translate(10.495 77.015)" fill="#00003e"/>
    <path id="Trazado_151372" data-name="Trazado 151372" d="M16.86,83.185a.564.564,0,0,1-.56.55h-.253v2.79a.549.549,0,0,1,.55.558.543.543,0,0,1-.55.552,1.113,1.113,0,0,1-1.109-1.109v-2.79h-.288a.55.55,0,0,1,0-1.1h.288v-1.45a.55.55,0,0,1,.56-.55.541.541,0,0,1,.55.55v1.45H16.3a.559.559,0,0,1,.56.55" transform="translate(13.298 76.044)" fill="#00003e"/>
    <path id="Trazado_151373" data-name="Trazado 151373" d="M16.4,86.837l2.448-5.827a.555.555,0,0,1,.731-.29.538.538,0,0,1,.28.709L17.41,87.266a.558.558,0,0,1-.511.33.489.489,0,0,1-.2-.039.54.54,0,0,1-.3-.721" transform="translate(15.424 76.081)" fill="#00003e"/>
    <path id="Trazado_151374" data-name="Trazado 151374" d="M8.018,94.858A3.662,3.662,0,1,1,11.678,91.2a3.664,3.664,0,0,1-3.661,3.661m0-5.38A1.719,1.719,0,1,0,9.735,91.2a1.72,1.72,0,0,0-1.718-1.72" transform="translate(4.109 82.55)" fill="#00003e"/>
    <path id="Trazado_151375" data-name="Trazado 151375" d="M32.412,90.862H12.694a.972.972,0,0,1,0-1.943H32.412a.972.972,0,0,1,0,1.943" transform="translate(11.054 83.855)" fill="#00003e"/>
    <path id="Trazado_151376" data-name="Trazado 151376" d="M33.047,90.862H25.491a.972.972,0,1,1,0-1.943h7.557a.972.972,0,0,1,0,1.943" transform="translate(23.123 83.855)" fill="#00003e"/>
    <path id="Trazado_151377" data-name="Trazado 151377" d="M45.459,90.862H32.445a.972.972,0,0,1,0-1.943H45.459a.972.972,0,1,1,0,1.943" transform="translate(29.681 83.855)" fill="#00003e"/>
    <path id="Trazado_151378" data-name="Trazado 151378" d="M8.018,102.78a3.661,3.661,0,1,1,3.661-3.661,3.664,3.664,0,0,1-3.661,3.661m0-5.378A1.718,1.718,0,1,0,9.735,99.12,1.718,1.718,0,0,0,8.018,97.4" transform="translate(4.109 90.023)" fill="#00003e"/>
    <path id="Trazado_151379" data-name="Trazado 151379" d="M24.566,98.786H12.481a.972.972,0,1,1,0-1.943H24.566a.972.972,0,0,1,0,1.943" transform="translate(10.854 91.328)" fill="#00003e"/>
    <path id="Trazado_151380" data-name="Trazado 151380" d="M44.171,98.786H21.35a.972.972,0,0,1,0-1.943H44.171a.972.972,0,0,1,0,1.943" transform="translate(19.218 91.328)" fill="#00003e"/>
    <path id="Trazado_151381" data-name="Trazado 151381" d="M42.159,98.786H35.5a.972.972,0,1,1,0-1.943h6.655a.972.972,0,0,1,0,1.943" transform="translate(32.567 91.328)" fill="#00003e"/>
    <path id="Trazado_151382" data-name="Trazado 151382" d="M83.126,85.213a.972.972,0,0,1-.972-.972V71.621a1.576,1.576,0,0,0-1.572-1.574H3.515a1.576,1.576,0,0,0-1.572,1.574v12.62a.972.972,0,0,1-1.943,0V71.621A3.519,3.519,0,0,1,3.515,68.1H80.582A3.519,3.519,0,0,1,84.1,71.621v12.62a.972.972,0,0,1-.972.972" transform="translate(0 64.226)" fill="#00003e"/>
    <path id="Trazado_151383" data-name="Trazado 151383" d="M80.582,129.345H3.517A3.521,3.521,0,0,1,0,125.828V76.881a.972.972,0,0,1,.972-.972H83.126a.971.971,0,0,1,.972.972v48.947a3.519,3.519,0,0,1-3.515,3.517M1.943,77.852v47.976A1.575,1.575,0,0,0,3.517,127.4H80.582a1.573,1.573,0,0,0,1.572-1.574V77.852Z" transform="translate(0 71.586)" fill="#00003e"/>
    <path id="Trazado_151384" data-name="Trazado 151384" d="M6.86,72.119a1.5,1.5,0,1,1-1.5-1.5,1.5,1.5,0,0,1,1.5,1.5" transform="translate(3.633 66.594)" fill="#00003e"/>
    <path id="Trazado_151385" data-name="Trazado 151385" d="M10.131,72.119a1.5,1.5,0,1,1-1.5-1.5,1.5,1.5,0,0,1,1.5,1.5" transform="translate(6.717 66.594)" fill="#00003e"/>
    <path id="Trazado_151386" data-name="Trazado 151386" d="M13.4,72.119a1.5,1.5,0,1,1-1.5-1.5,1.5,1.5,0,0,1,1.5,1.5" transform="translate(9.803 66.594)" fill="#00003e"/>
    <path id="Trazado_151387" data-name="Trazado 151387" d="M62.917,138.023H48.276a.546.546,0,1,1,0-1.092H62.917a.546.546,0,0,1,0,1.092" transform="translate(45.012 129.133)" fill="#00003e"/>
    <path id="Trazado_151388" data-name="Trazado 151388" d="M51.132,138.023H36.485a.546.546,0,1,1,0-1.092H51.132a.546.546,0,0,1,0,1.092" transform="translate(33.891 129.133)" fill="#00003e"/>
    <path id="Trazado_151389" data-name="Trazado 151389" d="M46.061,145.738a.546.546,0,0,1-.546-.546v-19.8a.546.546,0,0,1,1.092,0v19.8a.546.546,0,0,1-.546.546" transform="translate(42.923 117.733)" fill="#00003e"/>
    <path id="Trazado_151390" data-name="Trazado 151390" d="M49.135,141.094a.544.544,0,0,1-.4-.173l-8.823-9.414a.546.546,0,1,1,.8-.748l8.823,9.416a.546.546,0,0,1-.4.919" transform="translate(37.5 123.15)" fill="#00003e"/>
    <path id="Trazado_151391" data-name="Trazado 151391" d="M40.125,133.35a.546.546,0,0,1-.416-.9l7.129-8.439a.546.546,0,1,1,.834.705l-7.129,8.439a.543.543,0,0,1-.418.194" transform="translate(37.325 116.766)" fill="#00003e"/>
    <path id="Trazado_151392" data-name="Trazado 151392" d="M34.406,140.122a.547.547,0,0,1-.418-.9l7.137-8.446a.546.546,0,1,1,.834.705l-7.135,8.446a.543.543,0,0,1-.418.194" transform="translate(31.932 123.146)" fill="#00003e"/>
    <path id="Trazado_151393" data-name="Trazado 151393" d="M36.194,143.965a4.518,4.518,0,1,1,4.518-4.518,4.523,4.523,0,0,1-4.518,4.518m0-7.943a3.425,3.425,0,1,0,3.426,3.426,3.428,3.428,0,0,0-3.426-3.426" transform="translate(29.872 127.246)" fill="#00003e"/>
    <path id="Trazado_151394" data-name="Trazado 151394" d="M55.89,133.663a.54.54,0,0,1-.42-.2l-7.411-8.891a.547.547,0,0,1,.841-.7l7.409,8.891a.546.546,0,0,1-.42.9" transform="translate(45.204 116.637)" fill="#00003e"/>
    <path id="Trazado_151395" data-name="Trazado 151395" d="M61.334,140.2a.54.54,0,0,1-.42-.2l-7.168-8.6a.547.547,0,1,1,.839-.7l7.168,8.6a.546.546,0,0,1-.42.9" transform="translate(50.567 123.072)" fill="#00003e"/>
    <path id="Trazado_151396" data-name="Trazado 151396" d="M47.273,141.1a.547.547,0,0,1-.385-.935l9.474-9.42a.546.546,0,0,1,.771.773l-9.476,9.422a.54.54,0,0,1-.385.159" transform="translate(44.066 123.146)" fill="#00003e"/>
    <path id="Trazado_151397" data-name="Trazado 151397" d="M40.545,134.684a3.3,3.3,0,1,1,3.3-3.3,3.3,3.3,0,0,1-3.3,3.3m0-5.5a2.2,2.2,0,1,0,2.2,2.2,2.207,2.207,0,0,0-2.2-2.2" transform="translate(35.127 120.797)" fill="#00003e"/>
    <path id="Trazado_151398" data-name="Trazado 151398" d="M54.609,134.585a3.3,3.3,0,1,1,3.3-3.3,3.3,3.3,0,0,1-3.3,3.3m0-5.5a2.2,2.2,0,1,0,2.2,2.2,2.207,2.207,0,0,0-2.2-2.2" transform="translate(48.39 120.703)" fill="#00003e"/>
    <path id="Trazado_151399" data-name="Trazado 151399" d="M49.366,132.352A7.355,7.355,0,1,1,56.723,125a7.364,7.364,0,0,1-7.356,7.356m0-13.619A6.263,6.263,0,1,0,55.629,125a6.27,6.27,0,0,0-6.262-6.262" transform="translate(39.618 110.942)" fill="#00003e"/>
    <path id="Trazado_151400" data-name="Trazado 151400" d="M59.783,143.965a4.518,4.518,0,1,1,4.518-4.518,4.523,4.523,0,0,1-4.518,4.518m0-7.943a3.425,3.425,0,1,0,3.426,3.426,3.428,3.428,0,0,0-3.426-3.426" transform="translate(52.118 127.246)" fill="#00003e"/>
    <path id="Trazado_151401" data-name="Trazado 151401" d="M47.989,144.067a4.517,4.517,0,1,1,4.518-4.516,4.522,4.522,0,0,1-4.518,4.516m0-7.941a3.425,3.425,0,1,0,3.424,3.426,3.43,3.43,0,0,0-3.424-3.426" transform="translate(40.996 127.344)" fill="#00003e"/>
    <path id="Trazado_151402" data-name="Trazado 151402" d="M120.616,232.852h-4.255a.972.972,0,1,1,0-1.943h4.255a3.532,3.532,0,0,0,3.529-3.529v-48.2a3.531,3.531,0,0,0-3.529-3.527H93.406a3.471,3.471,0,0,0-2.973,1.628l-6.264,9.476a.971.971,0,0,1-1.62-1.071l6.249-9.455a5.391,5.391,0,0,1,4.609-2.522h27.211a5.477,5.477,0,0,1,5.472,5.47v48.2a5.478,5.478,0,0,1-5.472,5.472" transform="translate(77.696 163.819)" fill="#00003e"/>
    <path id="Trazado_151403" data-name="Trazado 151403" d="M78.672,193.644H45.964a2.686,2.686,0,0,1-2.683-2.683V165.741a2.685,2.685,0,0,1,2.683-2.683H64.55a2.7,2.7,0,0,1,2.277,1.267l3.3,5.295a.729.729,0,0,0,.628.35H82.317A2.686,2.686,0,0,1,85,172.653v14.126a.972.972,0,1,1-1.943,0V172.653a.741.741,0,0,0-.74-.74H70.752a2.666,2.666,0,0,1-2.277-1.265l-3.3-5.3A.744.744,0,0,0,64.55,165H45.964a.741.741,0,0,0-.74.74V190.96a.741.741,0,0,0,.74.74H78.672a.972.972,0,1,1,0,1.943" transform="translate(40.816 153.773)" fill="#00003e"/>
    <path id="Trazado_151404" data-name="Trazado 151404" d="M54.489,204.979a.972.972,0,0,1-.972-.972V179.073a.972.972,0,0,1,1.943,0v24.935a.972.972,0,0,1-.972.972" transform="translate(50.469 167.959)" fill="#00003e"/>
    <path id="Trazado_151405" data-name="Trazado 151405" d="M67.394,195.7H57.314a.972.972,0,1,1,0-1.943H67.394a.972.972,0,0,1,0,1.943" transform="translate(53.134 182.725)" fill="#00003e"/>
    <path id="Trazado_151406" data-name="Trazado 151406" d="M57.153,203.855a6.461,6.461,0,1,1,6.461-6.461,6.468,6.468,0,0,1-6.461,6.461m0-10.978a4.518,4.518,0,1,0,4.518,4.518,4.523,4.523,0,0,0-4.518-4.518" transform="translate(47.805 180.061)" fill="#00003e"/>
    <path id="Trazado_151407" data-name="Trazado 151407" d="M132.258,233.907H67a5.476,5.476,0,0,1-5.47-5.472v-48.2A5.476,5.476,0,0,1,67,174.766H94.213a5.435,5.435,0,0,1,4.646,2.582l6.191,9.36a.565.565,0,0,0,.486.307h26.723a5.479,5.479,0,0,1,5.472,5.474v35.947a5.477,5.477,0,0,1-5.472,5.472M67,176.709a3.531,3.531,0,0,0-3.527,3.529v48.2A3.531,3.531,0,0,0,67,231.964h65.257a3.531,3.531,0,0,0,3.529-3.529V192.489a3.533,3.533,0,0,0-3.529-3.531H105.535a2.5,2.5,0,0,1-2.122-1.2l-6.189-9.36a3.516,3.516,0,0,0-3.012-1.689Z" transform="translate(58.027 164.814)" fill="#00003e"/>
    <path id="Trazado_151408" data-name="Trazado 151408" d="M104.461,194.424H86.273a.972.972,0,0,1,0-1.943h18.189a.972.972,0,1,1,0,1.943" transform="translate(80.443 181.52)" fill="#00003e"/>
    <path id="Trazado_151409" data-name="Trazado 151409" d="M104.461,197.56H86.273a.972.972,0,0,1,0-1.943h18.189a.972.972,0,1,1,0,1.943" transform="translate(80.443 184.477)" fill="#00003e"/>
    <path id="Trazado_151410" data-name="Trazado 151410" d="M92.459,200.7H86.273a.972.972,0,1,1,0-1.943h6.187a.972.972,0,1,1,0,1.943" transform="translate(80.443 187.436)" fill="#00003e"/>
    <path id="Trazado_151411" data-name="Trazado 151411" d="M83.394,199.152A4.154,4.154,0,1,1,87.548,195a4.159,4.159,0,0,1-4.154,4.154m0-6.365A2.211,2.211,0,1,0,85.605,195a2.215,2.215,0,0,0-2.211-2.211" transform="translate(74.726 179.975)" fill="#00003e"/>
    <rect id="Rect치ngulo_38934" data-name="Rect치ngulo 38934" width="1.177" height="13.982" transform="translate(247.403 97.623)" fill="#00003e"/>
    <path id="Trazado_151412" data-name="Trazado 151412" d="M85.493,181.706a.971.971,0,0,1-.972-.972V171.02a.972.972,0,0,1,1.943,0v9.715a.972.972,0,0,1-.972.972M153.8,162.575h-9.715a.972.972,0,1,1,0-1.943H153.8a.972.972,0,1,1,0,1.943m-19.431,0h-9.715a.972.972,0,1,1,0-1.943h9.715a.972.972,0,1,1,0,1.943m-19.431,0h-9.715a.972.972,0,1,1,0-1.943h9.715a.972.972,0,1,1,0,1.943m-19.431,0H85.792a.972.972,0,1,1,0-1.943h9.715a.972.972,0,1,1,0,1.943" transform="translate(79.708 151.485)" fill="#00003e"/>
    <path id="Trazado_151413" data-name="Trazado 151413" d="M131.317,72.212a7.6,7.6,0,1,1,7.6-7.6,7.608,7.608,0,0,1-7.6,7.6m0-14.019a6.421,6.421,0,1,0,6.42,6.422,6.428,6.428,0,0,0-6.42-6.422" transform="translate(116.673 53.768)" fill="#00003e"/>
    <path id="Trazado_151414" data-name="Trazado 151414" d="M204.123,86.021H115.9a21.266,21.266,0,1,1,4.069-42.143A28.082,28.082,0,0,1,145.5,27.5c.816,0,1.638.035,2.452.107a36.554,36.554,0,0,1,65.84,21.859c0,.577-.014,1.16-.043,1.745a18.737,18.737,0,0,1-9.628,34.81M115.9,44.667a20.088,20.088,0,0,0,0,40.177h88.222a17.56,17.56,0,0,0,8.724-32.8l-.315-.181.023-.363c.039-.684.06-1.366.06-2.036a35.376,35.376,0,0,0-63.911-20.9l-.2.272-.334-.033c-.884-.087-1.782-.132-2.67-.132a26.9,26.9,0,0,0-24.648,16.11l-.194.443-.47-.1a20.116,20.116,0,0,0-4.288-.461" transform="translate(89.245 12.191)" fill="#00003e"/>
    <path id="Trazado_151415" data-name="Trazado 151415" d="M137.974,58.912h-7.481a1.549,1.549,0,0,1-1.547-1.549v-12.9h-6.773A1.546,1.546,0,0,1,121,41.906L133.058,27.8a1.594,1.594,0,0,1,2.351,0L147.47,41.908a1.545,1.545,0,0,1-1.176,2.551h-6.773v12.9a1.549,1.549,0,0,1-1.547,1.549m-3.74-30.479a.362.362,0,0,0-.28.13l-12.061,14.11a.367.367,0,0,0,.28.608h7.362a.59.59,0,0,1,.589.589V57.363a.369.369,0,0,0,.369.369h7.481a.369.369,0,0,0,.369-.369V43.871a.59.59,0,0,1,.589-.589h7.362a.367.367,0,0,0,.28-.608l-12.061-14.11a.362.362,0,0,0-.28-.13" transform="translate(113.756 25.728)" fill="#00003e"/>
    <path id="Trazado_151416" data-name="Trazado 151416" d="M93.631,75.178a1.524,1.524,0,0,1-.869-.272L79.076,65.352a1.518,1.518,0,0,1,1.737-2.489L94.5,72.417a1.517,1.517,0,0,1-.869,2.761" transform="translate(73.961 59.028)" fill="#00003e"/>
    <path id="Trazado_151417" data-name="Trazado 151417" d="M75.6,66.951a1.515,1.515,0,0,1-1.518-1.516V50.723a1.517,1.517,0,0,1,3.033,0V65.435A1.515,1.515,0,0,1,75.6,66.951" transform="translate(69.866 46.405)" fill="#00003e"/>
    <path id="Trazado_151418" data-name="Trazado 151418" d="M64.216,75.178a1.517,1.517,0,0,1-.869-2.761l13.687-9.554a1.518,1.518,0,0,1,1.737,2.489L65.085,74.906a1.524,1.524,0,0,1-.869.272" transform="translate(59.129 59.028)" fill="#00003e"/>
    <path id="Trazado_151419" data-name="Trazado 151419" d="M222.584,187.37h-2.866a.972.972,0,0,1,0-1.943h2.866a2.339,2.339,0,0,0,2.336-2.338v-38.8a2.339,2.339,0,0,0-2.336-2.337H198.475a2.339,2.339,0,0,0-2.336,2.337v3.161a.972.972,0,1,1-1.943,0v-3.161A4.284,4.284,0,0,1,198.475,140h24.109a4.284,4.284,0,0,1,4.279,4.281v38.8a4.284,4.284,0,0,1-4.279,4.281" transform="translate(183.137 132.031)" fill="#00003e"/>
    <path id="Trazado_151420" data-name="Trazado 151420" d="M219.413,189.95l-24.679-.086a4.74,4.74,0,0,1-4.72-4.755l.1-31.47a.973.973,0,0,1,.972-.97h0a.973.973,0,0,1,.968.975l-.1,31.472a2.8,2.8,0,0,0,2.784,2.8l24.675.086a2.8,2.8,0,0,0,2.79-2.784l.13-37.548a2.8,2.8,0,0,0-2.784-2.8l-18.4-.051a.972.972,0,0,1,0-1.943h0l18.4.051a4.742,4.742,0,0,1,4.722,4.755l-.13,37.548a4.745,4.745,0,0,1-4.737,4.72" transform="translate(179.194 134.742)" fill="#00003e"/>
    <path id="Trazado_151421" data-name="Trazado 151421" d="M200.088,155.553h-.012l-9.047-.031a.969.969,0,0,1-.865-.538.949.949,0,0,1-.1-.548c0-.074,0-.243,0-.645a4.068,4.068,0,0,1,1.279-3.035l7.02-6.723a4.378,4.378,0,0,1,2.876-1.154c.587.006.738,0,.779,0a.973.973,0,0,1,.709.276.986.986,0,0,1,.3.7l-.031,8.8a2.908,2.908,0,0,1-2.907,2.9m-8.075-1.97,8.071.027h0a.964.964,0,0,0,.964-.96l.027-7.827a2.126,2.126,0,0,0-1.372.612l-7.018,6.723a2.119,2.119,0,0,0-.676,1.424" transform="translate(179.239 134.742)" fill="#00003e"/>
    <path id="Trazado_151422" data-name="Trazado 151422" d="M228.387,160.9a.972.972,0,0,1-.972-.972v-9.715a.972.972,0,0,1,1.943,0v9.715a.972.972,0,0,1-.972.972m0-19.431a.972.972,0,0,1-.972-.972v-9.715a.972.972,0,0,1,1.943,0V140.5a.972.972,0,0,1-.972.972m0-19.431a.972.972,0,0,1-.972-.972v-9.715a.972.972,0,0,1,1.943,0v9.715a.972.972,0,0,1-.972.972m-4.533-14.9h-9.715a.972.972,0,1,1,0-1.943h9.715a.972.972,0,1,1,0,1.943m-19.431,0h-9.715a.972.972,0,1,1,0-1.943h9.715a.972.972,0,1,1,0,1.943m-19.431,0h-9.715a.972.972,0,1,1,0-1.943h9.715a.972.972,0,1,1,0,1.943" transform="translate(164.38 99.21)" fill="#00003e"/>
  </g>
</svg>
